<?xml version="1.0" encoding="UTF-8" standalone="no" ?>
<!DOCTYPE svg PUBLIC "-//W3C//DTD SVG 1.1//EN" "http://www.w3.org/Graphics/SVG/1.1/DTD/svg11.dtd">
<svg xmlns="http://www.w3.org/2000/svg" xmlns:xlink="http://www.w3.org/1999/xlink" version="1.1" width="923.9" height="444.2" viewBox="0 0 923.9 444.2" xml:space="preserve">
<desc>Created with Fabric.js 5.3.0</desc>
<defs>
</defs>
<g transform="matrix(1 0 0 1 461.95 222.1)" id="Liv8YHWSfLDs9l5LjoGlf"  >
<g style=""   >
		<g transform="matrix(1 0 0 1 373.4 -132.15)" id="ss7xK43ZBskGla4uj7k3E"  >
<path style="stroke: none; stroke-width: 1; stroke-dasharray: none; stroke-linecap: butt; stroke-dashoffset: 0; stroke-linejoin: miter; stroke-miterlimit: 4; fill: rgb(0,213,134); fill-rule: nonzero; opacity: 1;"  transform=" translate(-835.35, -89.95)" d="M 838.2 86.2 C 838.1 85.5 837.8000000000001 84.9 837.3000000000001 84.60000000000001 C 836.8000000000001 84.30000000000001 836.0000000000001 84.00000000000001 835.4000000000001 84.00000000000001 C 834.8000000000001 84.00000000000001 834.3000000000001 84.10000000000001 833.8000000000001 84.30000000000001 C 833.3000000000001 84.50000000000001 833.1 84.70000000000002 832.8000000000001 85.00000000000001 C 832.5000000000001 85.30000000000001 832.5000000000001 85.60000000000001 832.5000000000001 86.00000000000001 C 832.5000000000001 86.30000000000001 832.6000000000001 86.60000000000001 832.7000000000002 86.80000000000001 C 832.9000000000002 87.00000000000001 833.1000000000001 87.20000000000002 833.3000000000002 87.4 C 833.6000000000001 87.60000000000001 833.9000000000002 87.7 834.2000000000002 87.80000000000001 C 834.5000000000001 87.9 834.9000000000002 88.00000000000001 835.3000000000002 88.10000000000001 L 836.9000000000002 88.50000000000001 C 837.7000000000002 88.70000000000002 838.4000000000002 88.90000000000002 838.7000000000002 89.20000000000002 C 839.3000000000002 89.50000000000001 839.9000000000002 89.80000000000001 840.3000000000002 90.30000000000001 C 840.8000000000002 90.70000000000002 841.1000000000001 91.20000000000002 841.4000000000002 91.80000000000001 C 841.7000000000002 92.4 841.8000000000002 93.00000000000001 841.8000000000002 93.50000000000001 C 841.8000000000002 94.60000000000001 841.5000000000002 95.20000000000002 841.0000000000002 96.00000000000001 C 840.5000000000002 96.80000000000001 839.7000000000003 97.40000000000002 838.9000000000002 97.60000000000001 C 837.8000000000002 98.10000000000001 836.9000000000002 98.30000000000001 835.5000000000002 98.30000000000001 C 834.0000000000002 98.30000000000001 833.1000000000003 98.10000000000001 832.0000000000002 97.60000000000001 C 830.9000000000002 97.2 830.4000000000002 96.50000000000001 829.8000000000002 95.9 C 829.2000000000002 95 828.9000000000002 94.2 828.9000000000002 93 L 832.3000000000002 93 C 832.3000000000002 93.6 832.5000000000002 94.1 832.8000000000002 94.5 C 833.1000000000001 94.9 833.5000000000002 95.2 834.0000000000002 95.4 C 834.5000000000002 95.60000000000001 835.1000000000003 95.7 835.6000000000003 95.7 C 836.1000000000003 95.7 836.8000000000003 95.60000000000001 837.2000000000003 95.4 C 837.7000000000003 95.2 838.0000000000002 95 838.3000000000003 94.60000000000001 C 838.6000000000003 94.30000000000001 838.7000000000003 93.9 838.7000000000003 93.50000000000001 C 838.7000000000003 93.10000000000001 838.6000000000003 92.80000000000001 838.3000000000003 92.50000000000001 C 838.1000000000003 92.20000000000002 837.7000000000003 92.00000000000001 837.3000000000003 91.80000000000001 C 836.9000000000003 91.60000000000001 836.3000000000003 91.4 835.7000000000003 91.30000000000001 L 834.1000000000003 90.80000000000001 C 832.6000000000003 90.4 831.7000000000003 89.9 830.8000000000003 89.20000000000002 C 829.9000000000003 88.40000000000002 829.5000000000003 87.60000000000002 829.5000000000003 86.40000000000002 C 829.5000000000003 85.30000000000003 829.8000000000003 84.70000000000002 830.4000000000003 83.90000000000002 C 831.0000000000003 83.10000000000002 831.8000000000003 82.50000000000001 832.5000000000003 82.30000000000003 C 833.5000000000003 81.80000000000003 834.4000000000003 81.60000000000002 835.7000000000004 81.60000000000002 C 837.0000000000003 81.60000000000002 837.9000000000004 81.80000000000003 838.9000000000004 82.30000000000003 C 839.9000000000004 82.80000000000003 840.5000000000005 83.40000000000002 840.9000000000004 83.90000000000002 C 841.4000000000004 84.60000000000002 841.7000000000004 85.50000000000001 841.8000000000004 86.40000000000002 L 838.2 86.2 L 838.2 86.2 z" stroke-linecap="round" />
</g>
		<g transform="matrix(1 0 0 1 391.35 -132.5)" id="8rz0OYjlQLbMMnv_bsVR0"  >
<path style="stroke: none; stroke-width: 1; stroke-dasharray: none; stroke-linecap: butt; stroke-dashoffset: 0; stroke-linejoin: miter; stroke-miterlimit: 4; fill: rgb(0,213,134); fill-rule: nonzero; opacity: 1;"  transform=" translate(-853.3, -89.6)" d="M 844.2 81.4 L 848.6 81.4 L 853.2 92.5 L 853.4000000000001 92.5 L 858.0000000000001 81.4 L 862.4000000000001 81.4 L 862.4000000000001 97.7 L 859.0000000000001 97.7 L 859.0000000000001 87.1 L 858.8000000000001 87.1 L 854.5000000000001 97.8 L 852.3000000000001 97.8 L 848.0000000000001 87.1 L 847.8000000000001 87.1 L 847.8000000000001 97.8 L 844.4000000000001 97.8 C 844.2 97.7 844.2 81.4 844.2 81.4 z" stroke-linecap="round" />
</g>
		<g transform="matrix(1 0 0 1 288.8 -35.1)" id="1BvGKe6Jf-WMYgRP2pcNq"  >
<path style="stroke: none; stroke-width: 1; stroke-dasharray: none; stroke-linecap: butt; stroke-dashoffset: 0; stroke-linejoin: miter; stroke-miterlimit: 4; fill: rgb(0,213,134); fill-rule: nonzero; opacity: 1;"  transform=" translate(-750.75, -187)" d="M 775.8 337.4 C 768.3 342.2 760.0999999999999 344.4 750.8 344.4 C 741.5 344.4 733.1999999999999 342.2 725.6999999999999 337.4 C 718.0999999999999 332.59999999999997 711.4 324.9 705.0999999999999 313.59999999999997 C 698.8 302.29999999999995 693.9999999999999 286.2 690.5999999999999 264.79999999999995 C 687.0999999999999 243.59999999999997 685.4999999999999 217.69999999999996 685.4999999999999 186.99999999999994 C 685.4999999999999 156.29999999999993 687.0999999999999 130.59999999999994 690.5999999999999 109.19999999999995 C 694.0999999999999 87.79999999999995 698.8 71.79999999999995 705.0999999999999 60.39999999999995 C 711.3 49.29999999999995 718.3 41.199999999999946 725.6999999999999 36.59999999999995 C 733.3 31.79999999999995 741.4999999999999 29.59999999999995 750.8 29.59999999999995 C 760.0999999999999 29.59999999999995 768.3 31.79999999999995 775.8 36.59999999999995 C 783.3 41.39999999999995 790.0999999999999 49.09999999999995 796.4 60.39999999999995 C 802.7 71.69999999999995 807.5 87.79999999999995 810.9 109.19999999999995 C 814.4 130.39999999999995 816 156.29999999999995 816 186.99999999999994 C 816 217.69999999999993 814.4 243.39999999999995 810.9 264.79999999999995 C 807.4 285.99999999999994 802.6999999999999 302.19999999999993 796.4 313.59999999999997 C 790 324.8 783.2 332.6 775.8 337.4 z M 744.3 299.7 C 745.9 303.4 748.0999999999999 305 750.6999999999999 305 C 753.3 305 755.4999999999999 303.3 756.9999999999999 299.7 C 758.5999999999999 296 760.0999999999999 285.2 761.6999999999999 266.59999999999997 C 763.3 248.09999999999997 763.9 221.69999999999996 763.9 187.09999999999997 C 763.9 152.49999999999997 763.1 125.79999999999997 761.6999999999999 107.59999999999997 C 760.1999999999999 89.39999999999996 758.6999999999999 78.19999999999996 756.9999999999999 74.49999999999997 C 755.3999999999999 70.79999999999997 753.2999999999998 69.19999999999997 750.6999999999999 69.19999999999997 C 748.1 69.19999999999997 745.9 70.89999999999998 744.3 74.49999999999997 C 742.6999999999999 78.19999999999997 741.0999999999999 88.99999999999997 739.5999999999999 107.59999999999997 C 737.9999999999999 125.89999999999996 737.5999999999999 152.49999999999997 737.5999999999999 187.09999999999997 C 737.5999999999999 221.69999999999996 738.3999999999999 248.39999999999998 739.5999999999999 266.59999999999997 C 741.1 284.8 742.7 296 744.3 299.7 z" stroke-linecap="round" />
</g>
		<g transform="matrix(1 0 0 1 -308.25 -34.85)" id="rWx-3srlEtP_ZvKVPHLWq"  >
<path style="stroke: none; stroke-width: 1; stroke-dasharray: none; stroke-linecap: butt; stroke-dashoffset: 0; stroke-linejoin: miter; stroke-miterlimit: 4; fill: rgb(0,213,134); fill-rule: nonzero; opacity: 1;"  transform=" translate(-153.7, -187.25)" d="M 121.8 256.5 L 121.8 110.3 L 146.3 110.3 C 157 110.3 165.5 113.8 172.10000000000002 120.89999999999999 C 178.60000000000002 127.99999999999999 181.90000000000003 137.5 181.90000000000003 149.39999999999998 C 181.90000000000003 178.79999999999998 156.90000000000003 182.2 154.30000000000004 185.39999999999998 C 153.30000000000004 186.59999999999997 153.40000000000003 187.99999999999997 154.40000000000003 189.2 C 156.60000000000002 191.89999999999998 181.00000000000003 193 181.00000000000003 215.2 L 181.00000000000003 251.89999999999998 C 181.00000000000003 254.49999999999997 181.40000000000003 256.7 182.30000000000004 258.4 C 183.10000000000005 260 183.90000000000003 261 184.40000000000003 261.5 L 185.60000000000002 262.1 L 185.60000000000002 264.20000000000005 L 166.70000000000002 264.20000000000005 C 163.3 264.20000000000005 160.8 263.1 159.00000000000003 261.20000000000005 C 157.40000000000003 259.30000000000007 156.60000000000002 255.80000000000004 156.60000000000002 250.70000000000005 L 156.60000000000002 212.90000000000003 C 156.60000000000002 205.40000000000003 153.3 201.80000000000004 146.60000000000002 201.80000000000004 L 146.60000000000002 256.80000000000007 L 121.8 256.5 L 121.8 256.5 z M 146.4 172.6 L 147.6 172.6 C 154.29999999999998 172.6 157.6 165.5 157.6 151.6 C 157.6 137.7 154.29999999999998 130.6 147.6 130.6 L 146.4 130.6 L 146.4 172.6 L 146.4 172.6 z" stroke-linecap="round" />
</g>
		<g transform="matrix(1 0 0 1 -163.2 -35.65)" id="aKXsvpmy1x-4Py-SBRcTu"  >
<path style="stroke: none; stroke-width: 1; stroke-dasharray: none; stroke-linecap: butt; stroke-dashoffset: 0; stroke-linejoin: miter; stroke-miterlimit: 4; fill: rgb(0,213,134); fill-rule: nonzero; opacity: 1;"  transform=" translate(-298.75, -186.45)" d="M 258.9 220.8 L 289.4 220.8 L 289.7 238.3 C 289.7 256.90000000000003 292.59999999999997 266.2 298.4 266.1 C 300.9 266.1 303 264.70000000000005 304 262.1 C 305.3 259.5 305.7 254.3 305.7 247.00000000000003 C 305.7 239.40000000000003 304.09999999999997 232.20000000000002 300.9 224.80000000000004 C 297.59999999999997 217.40000000000003 293.59999999999997 210.50000000000003 289.2 204.30000000000004 C 284.5 198.00000000000003 280 191.50000000000003 275.3 184.80000000000004 C 270.6 178.10000000000005 266.90000000000003 170.50000000000003 263.6 161.40000000000003 C 260.3 152.70000000000005 258.8 143.40000000000003 258.8 133.60000000000002 C 258.8 116.50000000000003 262.6 103.40000000000002 269.90000000000003 94.20000000000002 C 277.50000000000006 85.10000000000002 286.90000000000003 80.40000000000002 298.3 80.40000000000002 C 309.7 80.40000000000002 319 84.90000000000002 326.7 93.50000000000001 C 334.4 102.10000000000001 337.9 114.10000000000002 337.9 129 L 337.9 152.7 L 307.2 152.7 L 307.2 135.2 C 307.2 116.6 304.3 107.29999999999998 298.4 107.29999999999998 C 295.9 107.29999999999998 293.79999999999995 108.79999999999998 292.9 111.39999999999998 C 291.59999999999997 113.99999999999997 291.29999999999995 119.29999999999998 291.29999999999995 126.69999999999997 C 291.29999999999995 135.59999999999997 293.69999999999993 144.79999999999998 298.79999999999995 154.09999999999997 C 303.59999999999997 163.39999999999998 309.19999999999993 171.59999999999997 315.09999999999997 178.49999999999997 C 320.9 185.59999999999997 326.2 194.49999999999997 331.29999999999995 205.49999999999997 C 336.09999999999997 216.59999999999997 338.69999999999993 227.79999999999998 338.69999999999993 239.49999999999997 C 338.69999999999993 256.59999999999997 334.8999999999999 269.7 327.5999999999999 278.79999999999995 C 319.9999999999999 287.9 310.4999999999999 292.49999999999994 298.9999999999999 292.49999999999994 C 287.4999999999999 292.49999999999994 278.2999999999999 287.99999999999994 270.6999999999999 279.3999999999999 C 263.09999999999985 270.7999999999999 259.59999999999985 258.7999999999999 259.59999999999985 243.99999999999991 L 258.9 220.8 L 258.9 220.8 z" stroke-linecap="round" />
</g>
		<g transform="matrix(1 0 0 1 164.6 -35)" id="T9d7fgyA-ud9Y7br3FhFi"  >
<path style="stroke: none; stroke-width: 1; stroke-dasharray: none; stroke-linecap: butt; stroke-dashoffset: 0; stroke-linejoin: miter; stroke-miterlimit: 4; fill: rgb(0,213,134); fill-rule: nonzero; opacity: 1;"  transform=" translate(-626.55, -187.1)" d="M 579.5 304.7 L 579.5 69.5 L 616.5 69.5 C 624.9 69.5 632.5 71.2 639 75 C 645.5 78.8 651.4 84.9 656.7 93.5 C 662 102.1 666.3000000000001 114.2 669.1 130 C 672 145.6 673.6 164.6 673.6 187.1 C 673.6 209.6 672 228.6 669.1 244.3 C 666.2 260 662 272.1 656.7 280.8 C 651.4000000000001 289.3 645.5 295.40000000000003 639 299.2 C 632.5 303 624.9 304.7 616.5 304.7 L 579.5 304.7 L 579.5 304.7 z M 616.6 272.6 L 618.2 272.6 C 620.1 272.6 621.8000000000001 272.1 623 271.20000000000005 C 624.4 270.20000000000005 625.6 268.30000000000007 627.2 265.1 C 628.8000000000001 261.90000000000003 629.7 257.20000000000005 630.6 251.20000000000002 C 631.4 245.3 632.2 236.9 632.5 226.00000000000003 C 633.1 215.00000000000003 633.4 202.10000000000002 633.4 186.8 C 633.4 171.5 633.1 158.60000000000002 632.5 147.60000000000002 C 631.9 136.60000000000002 631.2 128.3 630.6 122.40000000000002 C 629.8000000000001 116.50000000000001 628.8000000000001 111.80000000000003 627.2 108.50000000000001 C 625.6 105.20000000000002 624.4000000000001 103.20000000000002 623 102.30000000000001 C 621.6 101.30000000000001 620.2 100.9 618.2 100.9 L 616.6 100.9 L 616.6 272.6 L 616.6 272.6 z" stroke-linecap="round" />
</g>
		<g transform="matrix(1 0 0 1 -238.05 -35.1)" id="WZ33wUoqBHP5PcI02x0wO"  >
<path style="stroke: none; stroke-width: 1; stroke-dasharray: none; stroke-linecap: butt; stroke-dashoffset: 0; stroke-linejoin: miter; stroke-miterlimit: 4; fill: rgb(0,213,134); fill-rule: nonzero; opacity: 1;"  transform=" translate(-223.9, -187)" d="M 230.1 118.9 L 252.5 118.9 L 252.5 98 L 209.6 98 L 195.29999999999998 112.4 L 195.29999999999998 261.70000000000005 L 209.6 276.00000000000006 L 252.5 276.00000000000006 L 252.5 256.40000000000003 L 230 256.40000000000003 C 224.7 256.40000000000003 220.3 251.90000000000003 220.3 246.70000000000005 L 220.3 198.30000000000004 L 244.8 198.30000000000004 L 244.8 173.00000000000003 L 220.3 173.00000000000003 L 220.3 128.50000000000003 C 220.3 123.4 224.7 118.9 230.1 118.9 L 230.1 118.9 z" stroke-linecap="round" />
</g>
		<g transform="matrix(1 0 0 1 -19.9 -35.1)" id="3QTaOAwmxsXo7PqHnfyNN"  >
<path style="stroke: none; stroke-width: 1; stroke-dasharray: none; stroke-linecap: butt; stroke-dashoffset: 0; stroke-linejoin: miter; stroke-miterlimit: 4; fill: rgb(0,213,134); fill-rule: nonzero; opacity: 1;"  transform=" translate(-442.05, -187)" d="M 449.7 123.3 L 470.7 123.3 L 470.7 98 L 427.8 98 L 413.40000000000003 112.4 L 413.40000000000003 261.70000000000005 L 427.70000000000005 276.00000000000006 L 470.6 276.00000000000006 L 470.6 251.00000000000006 L 449.6 251.00000000000006 C 444.3 251.00000000000006 439.90000000000003 246.50000000000006 439.90000000000003 241.30000000000007 L 439.90000000000003 198.40000000000006 L 463.20000000000005 198.40000000000006 L 463.20000000000005 173.10000000000005 L 439.90000000000003 173.10000000000005 L 439.90000000000003 133.10000000000005 C 440 127.8 444.4 123.3 449.7 123.3 L 449.7 123.3 z" stroke-linecap="round" />
</g>
		<g transform="matrix(1 0 0 1 60.1 -35.05)" id="BafjVnCGvbTtFpB5F9yaK"  >
<path style="stroke: none; stroke-width: 1; stroke-dasharray: none; stroke-linecap: butt; stroke-dashoffset: 0; stroke-linejoin: miter; stroke-miterlimit: 4; fill: rgb(0,213,134); fill-rule: nonzero; opacity: 1;"  transform=" translate(-522.05, -187.05)" d="M 530.4 81.1 L 537.5 200.7 L 533.5 201.2 L 513.9 86.79999999999998 L 492.4 86.79999999999998 L 479.59999999999997 97.99999999999999 L 479.59999999999997 276.09999999999997 L 490.59999999999997 285.49999999999994 L 513.9 285.49999999999994 L 507.4 169.79999999999995 L 509.5 169.69999999999996 L 530.4 292.99999999999994 L 564.5 292.99999999999994 L 564.5 81.09999999999994 z" stroke-linecap="round" />
</g>
		<g transform="matrix(1 0 0 1 -86.9 -34.95)" id="c4Zlmf7my6A0ju73h-Ty1"  >
<path style="stroke: none; stroke-width: 1; stroke-dasharray: none; stroke-linecap: butt; stroke-dashoffset: 0; stroke-linejoin: miter; stroke-miterlimit: 4; fill: rgb(0,213,134); fill-rule: nonzero; opacity: 1;"  transform=" translate(-375.05, -187.15)" d="M 381.9 218.9 C 381.9 226.5 381.59999999999997 232.20000000000002 381.09999999999997 236 C 380.59999999999997 239.9 379.99999999999994 242.2 379.49999999999994 243.2 C 378.79999999999995 244.2 377.8999999999999 244.7 376.69999999999993 244.7 C 375.29999999999995 244.7 374.49999999999994 243.7 373.5999999999999 242.1 C 372.69999999999993 240.5 371.9999999999999 234.9 371.4999999999999 226.1 C 370.9999999999999 220.2 370.6999999999999 212.4 370.4999999999999 203 C 370.39999999999986 198.2 370.39999999999986 193 370.39999999999986 187.4 C 370.39999999999986 181.8 370.39999999999986 176.3 370.4999999999999 171.3 C 370.6999999999999 162.10000000000002 370.9999999999999 154.5 371.4999999999999 148.70000000000002 C 372.2999999999999 139.8 373.0999999999999 134.4 373.5999999999999 132.70000000000002 C 374.4999999999999 131.10000000000002 375.2999999999999 130.10000000000002 376.69999999999993 130.10000000000002 C 378.09999999999997 130.10000000000002 378.79999999999995 130.60000000000002 379.49999999999994 131.60000000000002 C 380.19999999999993 132.60000000000002 380.79999999999995 134.90000000000003 381.09999999999997 138.8 C 381.59999999999997 142.70000000000002 381.9 148.3 381.9 155.9 L 382 173.4 L 405.4 173.4 L 405.4 153.3 C 405.4 139.20000000000002 402.9 128.8 397.5 121.60000000000001 C 392.4 114.4 385.8 110.80000000000001 377.5 110.80000000000001 C 372.7 110.80000000000001 368.5 112.00000000000001 364.7 114.20000000000002 C 360.9 116.40000000000002 357.4 120.30000000000001 354.3 125.60000000000002 C 351.2 131.00000000000003 348.90000000000003 139.00000000000003 347 149.40000000000003 C 345.7 156.90000000000003 345.1 165.30000000000004 344.8 175.00000000000003 C 344.6 179.00000000000003 344.6 182.90000000000003 344.6 187.20000000000002 C 344.6 191.60000000000002 344.70000000000005 195.10000000000002 344.8 198.8 C 345.2 208.70000000000002 346 217.3 347.1 224.9 C 348.70000000000005 235.3 351.3 243 354.40000000000003 248.70000000000002 C 357.50000000000006 254.10000000000002 360.90000000000003 258 364.70000000000005 260.1 C 368.50000000000006 262.3 372.6 263.5 377.6 263.5 C 385.5 263.5 392.20000000000005 259.9 397.6 252.7 C 403 245.5 405.5 235.2 405.5 221 L 405.5 198.1 L 381.9 198.1 L 381.9 218.9 L 381.9 218.9 z" stroke-linecap="round" />
</g>
		<g transform="matrix(1 0 0 1 -374.4 -34.7)" id="W9osjNPMULvGRDArzul1r"  >
<path style="stroke: none; stroke-width: 1; stroke-dasharray: none; stroke-linecap: butt; stroke-dashoffset: 0; stroke-linejoin: miter; stroke-miterlimit: 4; fill: rgb(0,213,134); fill-rule: nonzero; opacity: 1;"  transform=" translate(-87.55, -187.4)" d="M 93.2 213.8 C 93.2 220.10000000000002 93 224.9 92.5 228.10000000000002 C 92.1 231.3 91.6 233.20000000000002 91 234.00000000000003 C 90.4 234.80000000000004 89.6 235.20000000000002 88.7 235.20000000000002 C 87.5 235.20000000000002 86.9 234.4 86.10000000000001 233.10000000000002 C 85.4 231.50000000000003 84.7 227.20000000000002 84.4 219.60000000000002 C 84 214.8 83.7 208.3 83.60000000000001 200.3 C 83.50000000000001 196.20000000000002 83.50000000000001 192.10000000000002 83.50000000000001 187.10000000000002 C 83.50000000000001 182.10000000000002 83.50000000000001 177.70000000000002 83.60000000000001 173.50000000000003 C 83.7 165.70000000000002 84.00000000000001 159.30000000000004 84.4 154.60000000000002 C 85 147.00000000000003 85.7 142.70000000000002 86.10000000000001 141.10000000000002 C 86.7 139.50000000000003 87.7 139.00000000000003 88.7 139.00000000000003 C 89.9 139.00000000000003 90.4 139.40000000000003 91 140.30000000000004 C 91.6 141.20000000000005 92.1 143.00000000000003 92.5 146.20000000000005 C 92.9 149.40000000000003 93.2 154.10000000000005 93.2 160.50000000000006 L 93.3 173.20000000000005 L 112.9 173.20000000000005 L 112.9 158.90000000000003 C 112.9 147.20000000000005 110.80000000000001 138.30000000000004 106.4 132.20000000000005 C 101.9 126.20000000000005 96.5 123.30000000000004 89.60000000000001 123.30000000000004 C 85.50000000000001 123.30000000000004 81.9 124.30000000000004 78.80000000000001 126.10000000000004 C 75.60000000000001 127.90000000000003 72.80000000000001 131.10000000000002 70.20000000000002 135.80000000000004 C 67.60000000000002 140.50000000000003 65.40000000000002 146.90000000000003 64.20000000000002 155.70000000000005 C 63.100000000000016 161.90000000000003 62.600000000000016 169.10000000000005 62.40000000000002 177.10000000000005 C 62.30000000000002 180.40000000000006 62.20000000000002 183.80000000000004 62.20000000000002 187.40000000000006 C 62.20000000000002 191.00000000000009 62.30000000000002 194.10000000000005 62.40000000000002 197.30000000000007 C 62.70000000000002 205.40000000000006 63.40000000000002 212.80000000000007 64.20000000000002 219.10000000000008 C 65.80000000000001 227.70000000000007 67.70000000000002 234.30000000000007 70.20000000000002 239.00000000000009 C 72.80000000000001 243.70000000000007 75.60000000000002 246.9000000000001 78.70000000000002 248.70000000000007 C 81.80000000000001 250.50000000000009 85.40000000000002 251.50000000000009 89.60000000000002 251.50000000000009 C 96.40000000000002 251.50000000000009 101.90000000000002 248.50000000000009 106.40000000000002 242.60000000000008 C 110.90000000000002 236.70000000000007 112.90000000000002 227.9000000000001 112.90000000000002 215.9000000000001 L 112.90000000000002 198.50000000000009 L 93.1 198.50000000000009 L 93.2 213.8 L 93.2 213.8 z" stroke-linecap="round" />
</g>
		<g transform="matrix(1 0 0 1 -191.4351698381 160.55)" id="5GLYkkuhoxQGjAGo7JsWi"  >
<path style="stroke: none; stroke-width: 1; stroke-dasharray: none; stroke-linecap: butt; stroke-dashoffset: 0; stroke-linejoin: miter; stroke-miterlimit: 4; fill: rgb(0,0,0); fill-rule: nonzero; opacity: 1;"  transform=" translate(-270.5148301619, -382.65)" d="M 271 384.6 L 268.1 384.6 L 268.1 390.3 L 265.1 390.3 L 265.1 375 L 271 375 C 274.2 375 275.9 377.1 275.9 379.8 C 276.2 382.4 274.2 384.6 271 384.6 L 271 384.6 z M 270.8 377.6 L 268 377.6 L 268 381.90000000000003 L 270.8 381.90000000000003 C 272.3 381.90000000000003 272.90000000000003 381.00000000000006 272.90000000000003 379.90000000000003 C 273.2 378.6 272.2 377.6 270.8 377.6 L 270.8 377.6 z" stroke-linecap="round" />
</g>
		<g transform="matrix(1 0 0 1 -176.5 160.65)" id="bpoT8kbIIj4o4jQ4UoqSp"  >
<path style="stroke: none; stroke-width: 1; stroke-dasharray: none; stroke-linecap: butt; stroke-dashoffset: 0; stroke-linejoin: miter; stroke-miterlimit: 4; fill: rgb(0,0,0); fill-rule: nonzero; opacity: 1;"  transform=" translate(-285.45, -382.75)" d="M 287.8 390.3 L 284.8 384.2 L 282.7 384.2 L 282.7 390.3 L 279.7 390.3 L 279.7 375 L 285.7 375 C 288.8 375 290.5 377 290.5 379.8 C 290.5 381.90000000000003 289.1 383.3 287.7 383.90000000000003 L 291.2 390.50000000000006 L 287.8 390.3 L 287.8 390.3 z M 285.6 377.6 L 282.8 377.6 L 282.8 381.70000000000005 L 285.6 381.70000000000005 C 287 381.70000000000005 287.70000000000005 380.80000000000007 287.70000000000005 379.80000000000007 C 287.7 378.6 286.8 377.6 285.6 377.6 z" stroke-linecap="round" />
</g>
		<g transform="matrix(1 0 0 1 -162 160.55)" id="Xwh3ZNY4qLvWyP6VwgKes"  >
<path style="stroke: none; stroke-width: 1; stroke-dasharray: none; stroke-linecap: butt; stroke-dashoffset: 0; stroke-linejoin: miter; stroke-miterlimit: 4; fill: rgb(0,0,0); fill-rule: nonzero; opacity: 1;"  transform=" translate(-299.95, -382.65)" d="M 294.9 390.3 L 294.9 375 L 305 375 L 305 377.6 L 297.8 377.6 L 297.8 381.20000000000005 L 303.8 381.20000000000005 L 303.8 383.80000000000007 L 297.8 383.80000000000007 L 297.8 387.6000000000001 L 305 387.6000000000001 L 305 390.2000000000001 L 294.9 390.3 L 294.9 390.3 z" stroke-linecap="round" />
</g>
		<g transform="matrix(1 0 0 1 -148.5 160.5)" id="IGsczwQgByhAfAlTkLe30"  >
<path style="stroke: none; stroke-width: 1; stroke-dasharray: none; stroke-linecap: butt; stroke-dashoffset: 0; stroke-linejoin: miter; stroke-miterlimit: 4; fill: rgb(0,0,0); fill-rule: nonzero; opacity: 1;"  transform=" translate(-313.45, -382.6)" d="M 313.3 390.4 C 311.1 390.4 309.1 389.9 307.8 388.5 L 309.6 386.7 C 310.70000000000005 387.8 311.8 388.09999999999997 313.40000000000003 388.09999999999997 C 315.00000000000006 388.09999999999997 316.1 387.4 316.1 386.29999999999995 C 316.1 385.69999999999993 315.90000000000003 385.19999999999993 315.6 384.9 C 315.3 384.6 314.90000000000003 384.4 314.1 384.29999999999995 L 312.40000000000003 383.99999999999994 C 311.00000000000006 383.79999999999995 310.20000000000005 383.29999999999995 309.40000000000003 382.59999999999997 C 308.6 381.79999999999995 308.20000000000005 380.99999999999994 308.20000000000005 379.59999999999997 C 308.20000000000005 376.9 310.1 374.79999999999995 313.50000000000006 374.79999999999995 C 315.50000000000006 374.79999999999995 317.20000000000005 375.4 318.30000000000007 376.49999999999994 L 316.50000000000006 378.29999999999995 C 315.40000000000003 377.29999999999995 314.50000000000006 377.09999999999997 313.40000000000003 377.09999999999997 C 311.8 377.09999999999997 311.1 378.09999999999997 311.1 378.9 C 311.1 379.29999999999995 311.20000000000005 379.79999999999995 311.6 380.09999999999997 C 311.90000000000003 380.4 312.5 380.7 313.20000000000005 380.79999999999995 L 314.90000000000003 381.09999999999997 C 316.40000000000003 381.29999999999995 317.1 381.7 317.8 382.4 C 318.7 383.29999999999995 319.1 384.2 319.1 385.7 C 318.9 388.8 316.5 390.4 313.3 390.4 L 313.3 390.4 z" stroke-linecap="round" />
</g>
		<g transform="matrix(1 0 0 1 -133.95 160.55)" id="BK8c8qE65zIMVzL7fD3Y-"  >
<path style="stroke: none; stroke-width: 1; stroke-dasharray: none; stroke-linecap: butt; stroke-dashoffset: 0; stroke-linejoin: miter; stroke-miterlimit: 4; fill: rgb(0,0,0); fill-rule: nonzero; opacity: 1;"  transform=" translate(-328, -382.65)" d="M 322.9 390.3 L 322.9 375 L 333.09999999999997 375 L 333.09999999999997 377.6 L 325.9 377.6 L 325.9 381.20000000000005 L 331.9 381.20000000000005 L 331.9 383.80000000000007 L 325.9 383.80000000000007 L 325.9 387.6000000000001 L 333.09999999999997 387.6000000000001 L 333.09999999999997 390.2000000000001 L 322.9 390.3 L 322.9 390.3 z" stroke-linecap="round" />
</g>
		<g transform="matrix(1 0 0 1 -119.1 160.55)" id="QwdHWOJa8ski0cvFEpM04"  >
<path style="stroke: none; stroke-width: 1; stroke-dasharray: none; stroke-linecap: butt; stroke-dashoffset: 0; stroke-linejoin: miter; stroke-miterlimit: 4; fill: rgb(0,0,0); fill-rule: nonzero; opacity: 1;"  transform=" translate(-342.85, -382.65)" d="M 346.1 390.3 L 340 380.90000000000003 L 340 390.3 L 337 390.3 L 337 375 L 339.6 375 L 345.70000000000005 384.4 L 345.70000000000005 375 L 348.70000000000005 375 L 348.70000000000005 390.3 L 346.1 390.3 z" stroke-linecap="round" />
</g>
		<g transform="matrix(1 0 0 1 -104.3 160.55)" id="ATyRpFsTRgxSVXWUS70Qg"  >
<path style="stroke: none; stroke-width: 1; stroke-dasharray: none; stroke-linecap: butt; stroke-dashoffset: 0; stroke-linejoin: miter; stroke-miterlimit: 4; fill: rgb(0,0,0); fill-rule: nonzero; opacity: 1;"  transform=" translate(-357.65, -382.65)" d="M 359.2 377.6 L 359.2 390.3 L 356.2 390.3 L 356.2 377.6 L 352.09999999999997 377.6 L 352.09999999999997 375 L 363.2 375 L 363.2 377.6 L 359.2 377.6 L 359.2 377.6 z" stroke-linecap="round" />
</g>
		<g transform="matrix(1 0 0 1 -90.05 160.55)" id="cXMJmHoqAKUlgTwBsniyc"  >
<path style="stroke: none; stroke-width: 1; stroke-dasharray: none; stroke-linecap: butt; stroke-dashoffset: 0; stroke-linejoin: miter; stroke-miterlimit: 4; fill: rgb(0,0,0); fill-rule: nonzero; opacity: 1;"  transform=" translate(-371.9, -382.65)" d="M 366.8 390.3 L 366.8 375 L 377 375 L 377 377.6 L 369.8 377.6 L 369.8 381.20000000000005 L 375.8 381.20000000000005 L 375.8 383.80000000000007 L 369.8 383.80000000000007 L 369.8 387.6000000000001 L 377 387.6000000000001 L 377 390.2000000000001 L 366.8 390.3 L 366.8 390.3 z" stroke-linecap="round" />
</g>
		<g transform="matrix(1 0 0 1 -75.35 160.65)" id="KXeoJ-EcdHY4d1nQKeh9l"  >
<path style="stroke: none; stroke-width: 1; stroke-dasharray: none; stroke-linecap: butt; stroke-dashoffset: 0; stroke-linejoin: miter; stroke-miterlimit: 4; fill: rgb(0,0,0); fill-rule: nonzero; opacity: 1;"  transform=" translate(-386.6, -382.75)" d="M 390.6 388.8 C 389.5 389.90000000000003 388.20000000000005 390.40000000000003 386.5 390.40000000000003 L 381 390.40000000000003 L 381 375.1 L 386.5 375.1 C 388.1 375.1 389.5 375.6 390.6 376.70000000000005 C 392.20000000000005 378.30000000000007 392.20000000000005 380.6 392.20000000000005 382.80000000000007 C 392.1 384.9 392.3 387.1 390.6 388.8 L 390.6 388.8 z M 388.4 378.7 C 387.79999999999995 378 387.09999999999997 377.7 386.2 377.7 L 384 377.7 L 384 387.7 L 386.2 387.7 C 387.3 387.7 387.8 387.3 388.4 386.7 C 389 385.9 389.09999999999997 385 389.09999999999997 382.5 C 389.1 380.4 389 379.2 388.4 378.7 L 388.4 378.7 z" stroke-linecap="round" />
</g>
		<g transform="matrix(1 0 0 1 -53.95 160.55)" id="lBvvoRDQlE-fH3Wd_rWzr"  >
<path style="stroke: none; stroke-width: 1; stroke-dasharray: none; stroke-linecap: butt; stroke-dashoffset: 0; stroke-linejoin: miter; stroke-miterlimit: 4; fill: rgb(0,0,0); fill-rule: nonzero; opacity: 1;"  transform=" translate(-408, -382.65)" d="M 408.8 390.3 L 402.40000000000003 390.3 L 402.40000000000003 375 L 408.6 375 C 411.6 375 413.40000000000003 376.6 413.40000000000003 379.4 C 413.40000000000003 381 412.20000000000005 382.2 411.6 382.59999999999997 C 412.6 383.09999999999997 413.6 384.09999999999997 413.6 386.09999999999997 C 413.4 388.8 411.5 390.3 408.8 390.3 L 408.8 390.3 z M 408.3 377.6 L 405.40000000000003 377.6 L 405.40000000000003 381.20000000000005 L 408.3 381.20000000000005 C 409.7 381.20000000000005 410.2 380.40000000000003 410.2 379.6 C 410.2 378.7 409.6 377.6 408.3 377.6 L 408.3 377.6 z M 408.5 383.8 L 405.4 383.8 L 405.4 387.6 L 408.5 387.6 C 410 387.6 410.4 386.70000000000005 410.4 385.8 C 410.4 384.8 409.8 383.8 408.5 383.8 L 408.5 383.8 z" stroke-linecap="round" />
</g>
		<g transform="matrix(1 0 0 1 -40.15 160.55)" id="o3BMlGO8Ak-1naP0JJrkL"  >
<path style="stroke: none; stroke-width: 1; stroke-dasharray: none; stroke-linecap: butt; stroke-dashoffset: 0; stroke-linejoin: miter; stroke-miterlimit: 4; fill: rgb(0,0,0); fill-rule: nonzero; opacity: 1;"  transform=" translate(-421.8, -382.65)" d="M 423.4 384 L 423.4 390.3 L 420.4 390.3 L 420.4 384 L 415.7 375 L 419 375 L 421.8 381.2 L 424.6 375 L 427.90000000000003 375 L 423.4 384 L 423.4 384 z" stroke-linecap="round" />
</g>
		<g transform="matrix(1 0 0 1 -0.85 187.05)" id="silwA7rRjglL1bRyyHBMV"  >
<path style="stroke: none; stroke-width: 1; stroke-dasharray: none; stroke-linecap: butt; stroke-dashoffset: 0; stroke-linejoin: miter; stroke-miterlimit: 4; fill: rgb(0,0,0); fill-rule: nonzero; opacity: 1;"  transform=" translate(-461.1, -409.15)" d="M 458.9 408.9 C 458.9 411.2 459.5 413.2 461.29999999999995 413.2 C 462.19999999999993 413.2 462.9 412.7 462.99999999999994 412.09999999999997 L 462.99999999999994 410.49999999999994 L 461.59999999999997 410.3999999999999 L 461.59999999999997 409.0999999999999 L 466.29999999999995 409.0999999999999 L 466.29999999999995 410.3999999999999 L 465.29999999999995 410.49999999999994 L 465.29999999999995 414.29999999999995 L 463.99999999999994 414.29999999999995 C 463.8999999999999 413.99999999999994 463.79999999999995 413.69999999999993 463.3999999999999 413.69999999999993 C 462.8999999999999 413.69999999999993 462.0999999999999 414.49999999999994 460.69999999999993 414.49999999999994 C 457.79999999999995 414.49999999999994 455.8999999999999 412.8999999999999 455.8999999999999 409.19999999999993 C 455.8999999999999 405.3999999999999 457.99999999999994 403.79999999999995 460.8999999999999 403.79999999999995 C 462.3999999999999 403.79999999999995 462.69999999999993 404.4 463.19999999999993 404.4 C 463.3999999999999 404.4 463.49999999999994 404.2 463.69999999999993 403.9 L 464.79999999999995 403.9 L 464.9 407.4 L 463.7 407.4 C 463.2 405.79999999999995 462.4 405 461.09999999999997 405 C 459.7 404.6 458.8 406.2 458.9 408.9 L 458.9 408.9 z" stroke-linecap="round" />
</g>
		<g transform="matrix(1 0 0 1 8.4 188.2)" id="q-WamOxcZ95RtDKU3PmMW"  >
<path style="stroke: none; stroke-width: 1; stroke-dasharray: none; stroke-linecap: butt; stroke-dashoffset: 0; stroke-linejoin: miter; stroke-miterlimit: 4; fill: rgb(0,0,0); fill-rule: nonzero; opacity: 1;"  transform=" translate(-470.35, -410.3)" d="M 470.7 406.5 C 472.5 406.5 473.9 407.6 473.9 409.8 C 473.9 410 473.9 410.5 473.9 410.7 L 469.4 410.7 C 469.4 412.2 469.79999999999995 413.09999999999997 471 413.09999999999997 C 472 413.09999999999997 472.5 412.49999999999994 472.6 411.59999999999997 L 473.8 411.99999999999994 C 473.3 413.49999999999994 472.2 414.09999999999997 470.6 414.09999999999997 C 468.20000000000005 414.09999999999997 466.8 412.49999999999994 466.8 410.29999999999995 C 467 407.9 468.7 406.5 470.7 406.5 L 470.7 406.5 z M 471.7 409.6 L 471.7 409.3 C 471.7 407.8 471.5 407.5 470.59999999999997 407.5 C 469.59999999999997 407.5 469.29999999999995 408.6 469.29999999999995 409.6 L 471.7 409.6 L 471.7 409.6 z" stroke-linecap="round" />
</g>
		<g transform="matrix(1 0 0 1 17.3 188.4)" id="tK0C1ASZq5O2vgHbX_446"  >
<path style="stroke: none; stroke-width: 1; stroke-dasharray: none; stroke-linecap: butt; stroke-dashoffset: 0; stroke-linejoin: miter; stroke-miterlimit: 4; fill: rgb(0,0,0); fill-rule: nonzero; opacity: 1;"  transform=" translate(-479.25, -410.5)" d="M 477.9 406.6 L 478 408.20000000000005 L 478.1 408.20000000000005 C 478.5 407.40000000000003 479.20000000000005 406.6 480.6 406.6 C 482 406.6 482.8 407.40000000000003 482.8 409 L 482.8 413.2 L 483.8 413.3 L 483.8 414.40000000000003 L 479.8 414.40000000000003 L 479.8 413.3 L 480.6 413.2 L 480.6 409.4 C 480.6 408.5 480.5 407.9 479.6 407.9 C 478.70000000000005 407.9 478 408.4 478 409.5 L 478 413 L 478.8 413.1 L 478.8 414.20000000000005 L 474.7 414.20000000000005 L 474.7 413.1 L 475.7 413 L 475.7 407.9 L 474.7 407.79999999999995 L 474.7 406.69999999999993 L 477.9 406.6 L 477.9 406.6 z" stroke-linecap="round" />
</g>
		<g transform="matrix(1 0 0 1 26.05 188.2)" id="XjyVymKjvb0hPgYOM5dbL"  >
<path style="stroke: none; stroke-width: 1; stroke-dasharray: none; stroke-linecap: butt; stroke-dashoffset: 0; stroke-linejoin: miter; stroke-miterlimit: 4; fill: rgb(0,0,0); fill-rule: nonzero; opacity: 1;"  transform=" translate(-488, -410.3)" d="M 488.4 406.5 C 490.2 406.5 491.59999999999997 407.6 491.59999999999997 409.8 C 491.59999999999997 410 491.59999999999997 410.5 491.59999999999997 410.7 L 487 410.7 C 487 412.2 487.4 413.09999999999997 488.6 413.09999999999997 C 489.6 413.09999999999997 490.1 412.49999999999994 490.20000000000005 411.59999999999997 L 491.40000000000003 411.99999999999994 C 490.90000000000003 413.49999999999994 489.8 414.09999999999997 488.20000000000005 414.09999999999997 C 485.80000000000007 414.09999999999997 484.40000000000003 412.49999999999994 484.40000000000003 410.29999999999995 C 484.6 407.9 486.1 406.5 488.4 406.5 L 488.4 406.5 z M 489.2 409.6 L 489.2 409.3 C 489.2 407.8 489 407.5 488.09999999999997 407.5 C 487.09999999999997 407.5 486.79999999999995 408.6 486.79999999999995 409.6 L 489.2 409.6 L 489.2 409.6 z" stroke-linecap="round" />
</g>
		<g transform="matrix(1 0 0 1 38.55 186.8)" id="6XaGAUYaQumcBdwVDiV_v"  >
<path style="stroke: none; stroke-width: 1; stroke-dasharray: none; stroke-linecap: butt; stroke-dashoffset: 0; stroke-linejoin: miter; stroke-miterlimit: 4; fill: rgb(0,0,0); fill-rule: nonzero; opacity: 1;"  transform=" translate(-500.5, -408.9)" d="M 498.7 408.2 L 502.4 408.2 L 502.4 404.9 L 501.29999999999995 404.79999999999995 L 501.29999999999995 403.49999999999994 L 505.79999999999995 403.49999999999994 L 505.79999999999995 404.79999999999995 L 504.69999999999993 404.9 L 504.69999999999993 412.79999999999995 L 505.79999999999995 412.9 L 505.79999999999995 414.2 L 501.29999999999995 414.2 L 501.29999999999995 413 L 502.4 412.9 L 502.4 409.5 L 498.7 409.5 L 498.7 412.9 L 499.8 413 L 499.8 414.3 L 495.2 414.3 L 495.2 413 L 496.3 412.9 L 496.3 405 L 495.2 404.9 L 495.2 403.59999999999997 L 499.8 403.59999999999997 L 499.8 404.9 L 498.7 405 L 498.7 408.2 L 498.7 408.2 z" stroke-linecap="round" />
</g>
		<g transform="matrix(1 0 0 1 48.4 188.6)" id="XOjfEKhM8-0YbFejzi_tr"  >
<path style="stroke: none; stroke-width: 1; stroke-dasharray: none; stroke-linecap: butt; stroke-dashoffset: 0; stroke-linejoin: miter; stroke-miterlimit: 4; fill: rgb(0,0,0); fill-rule: nonzero; opacity: 1;"  transform=" translate(-510.35, -410.7)" d="M 511.1 410.3 L 511.1 409.2 C 511.1 407.9 510.8 407.5 509.6 407.5 C 509.1 407.5 508.70000000000005 407.6 508.70000000000005 408 C 508.70000000000005 408.1 508.70000000000005 408.2 508.70000000000005 408.2 L 509.30000000000007 408.2 C 509.30000000000007 408.4 509.4000000000001 408.59999999999997 509.4000000000001 408.8 C 509.4000000000001 409.5 509.0000000000001 409.90000000000003 508.1000000000001 409.90000000000003 C 507.2000000000001 409.90000000000003 506.80000000000007 409.3 506.80000000000007 408.6 C 506.80000000000007 407.3 508.00000000000006 406.70000000000005 509.80000000000007 406.70000000000005 C 511.6000000000001 406.70000000000005 512.9000000000001 407.40000000000003 512.9000000000001 409.50000000000006 L 512.9000000000001 412.6000000000001 C 512.9000000000001 413.2000000000001 512.9000000000001 413.50000000000006 513.3000000000001 413.50000000000006 C 513.4000000000001 413.50000000000006 513.6 413.50000000000006 513.8000000000001 413.40000000000003 L 514.0000000000001 414.20000000000005 C 513.7000000000002 414.40000000000003 513.0000000000001 414.70000000000005 512.4000000000001 414.70000000000005 C 511.30000000000007 414.70000000000005 510.9000000000001 414.30000000000007 510.80000000000007 413.50000000000006 C 510.50000000000006 414.00000000000006 509.9000000000001 414.70000000000005 508.80000000000007 414.70000000000005 C 507.50000000000006 414.70000000000005 506.70000000000005 414.1 506.70000000000005 412.90000000000003 C 506.70000000000005 411.3 508.00000000000006 410.90000000000003 509.80000000000007 410.90000000000003 L 511.1 410.3 L 511.1 410.3 z M 511.1 412 L 511.1 411 L 510.5 411 C 509.5 411 509.2 411.4 509.2 412.3 C 509.2 413.1 509.5 413.40000000000003 510.09999999999997 413.40000000000003 C 510.6 413.2 511.1 412.9 511.1 412 L 511.1 412 z" stroke-linecap="round" />
</g>
		<g transform="matrix(1 0 0 1 56.4 188.6)" id="peOUW2ZYgBYFb2cu9jFyl"  >
<path style="stroke: none; stroke-width: 1; stroke-dasharray: none; stroke-linecap: butt; stroke-dashoffset: 0; stroke-linejoin: miter; stroke-miterlimit: 4; fill: rgb(0,0,0); fill-rule: nonzero; opacity: 1;"  transform=" translate(-518.35, -410.7)" d="M 519.1 410.3 L 519.1 409.2 C 519.1 407.9 518.8000000000001 407.5 517.6 407.5 C 517.1 407.5 516.7 407.6 516.7 408 C 516.7 408.1 516.7 408.2 516.7 408.2 L 517.3000000000001 408.2 C 517.3000000000001 408.4 517.4000000000001 408.59999999999997 517.4000000000001 408.8 C 517.4000000000001 409.5 517.0000000000001 409.90000000000003 516.1000000000001 409.90000000000003 C 515.2000000000002 409.90000000000003 514.8000000000002 409.3 514.8000000000002 408.6 C 514.8000000000002 407.3 516.0000000000002 406.70000000000005 517.8000000000002 406.70000000000005 C 519.6000000000001 406.70000000000005 520.9000000000002 407.40000000000003 520.9000000000002 409.50000000000006 L 520.9000000000002 412.6000000000001 C 520.9000000000002 413.2000000000001 520.9000000000002 413.50000000000006 521.3000000000002 413.50000000000006 C 521.4000000000002 413.50000000000006 521.6000000000001 413.50000000000006 521.8000000000002 413.40000000000003 L 522.0000000000002 414.20000000000005 C 521.7000000000003 414.40000000000003 521.0000000000002 414.70000000000005 520.4000000000002 414.70000000000005 C 519.3000000000002 414.70000000000005 518.9000000000002 414.30000000000007 518.8000000000002 413.50000000000006 C 518.5000000000002 414.00000000000006 517.9000000000002 414.70000000000005 516.8000000000002 414.70000000000005 C 515.5000000000002 414.70000000000005 514.7000000000002 414.1 514.7000000000002 412.90000000000003 C 514.7000000000002 411.3 516.0000000000001 410.90000000000003 517.8000000000002 410.90000000000003 L 519.1 410.3 L 519.1 410.3 z M 519.1 412 L 519.1 411 L 518.5 411 C 517.5 411 517.2 411.4 517.2 412.3 C 517.2 413.1 517.5 413.40000000000003 518.1 413.40000000000003 C 518.6 413.2 519.1 412.9 519.1 412 L 519.1 412 z" stroke-linecap="round" />
</g>
		<g transform="matrix(1 0 0 1 64.35 188.25)" id="CdF3TE8OytntFntDgGczy"  >
<path style="stroke: none; stroke-width: 1; stroke-dasharray: none; stroke-linecap: butt; stroke-dashoffset: 0; stroke-linejoin: miter; stroke-miterlimit: 4; fill: rgb(0,0,0); fill-rule: nonzero; opacity: 1;"  transform=" translate(-526.3, -410.35)" d="M 523.2 411.7 L 524.2 411.7 C 524.5 412.7 525.3000000000001 413.3 526.3000000000001 413.3 C 527.2 413.3 527.7 413 527.7 412.40000000000003 C 527.7 411.70000000000005 527 411.50000000000006 526.1 411.40000000000003 C 524.7 411.20000000000005 523.3000000000001 410.90000000000003 523.3000000000001 409.00000000000006 C 523.3000000000001 407.40000000000003 524.6 406.50000000000006 526.0000000000001 406.50000000000006 C 526.7000000000002 406.50000000000006 527.2000000000002 406.70000000000005 527.5000000000001 406.90000000000003 C 527.6000000000001 407.00000000000006 527.7000000000002 407.00000000000006 527.8000000000001 407.00000000000006 C 528.0000000000001 407.00000000000006 528.0000000000001 406.90000000000003 528.1 406.6000000000001 L 529 406.6000000000001 L 529 408.80000000000007 L 528 408.80000000000007 C 527.6 407.70000000000005 527 407.20000000000005 526.3 407.20000000000005 C 525.6999999999999 407.20000000000005 525 407.40000000000003 525 408.1 C 525 408.8 525.7 408.90000000000003 526.6 409.1 C 528 409.40000000000003 529.4 409.70000000000005 529.4 411.6 C 529.4 413.20000000000005 528.1999999999999 414.20000000000005 526.6999999999999 414.20000000000005 C 525.6999999999999 414.20000000000005 525.0999999999999 413.90000000000003 524.9999999999999 413.70000000000005 C 524.8999999999999 413.70000000000005 524.7999999999998 413.6 524.6999999999999 413.6 C 524.4999999999999 413.6 524.4999999999999 413.70000000000005 524.4 414.1 L 523.5 414.1 L 523.2 411.7 L 523.2 411.7 z" stroke-linecap="round" />
</g>
		<g transform="matrix(1 0 0 1 75.05 187.15)" id="zUOAgLZyt9ESTCyO26yJ6"  >
<path style="stroke: none; stroke-width: 1; stroke-dasharray: none; stroke-linecap: butt; stroke-dashoffset: 0; stroke-linejoin: miter; stroke-miterlimit: 4; fill: rgb(0,0,0); fill-rule: nonzero; opacity: 1;"  transform=" translate(-537, -409.25)" d="M 540.4 403.7 L 540.6 406.4 L 540.1 406.4 C 539.7 404.7 539.1 404.29999999999995 537.7 404.29999999999995 L 536 404.29999999999995 L 536 408.79999999999995 L 537 408.79999999999995 C 538.4 408.79999999999995 538.6 408.29999999999995 538.7 407.09999999999997 L 539.1 407.09999999999997 L 539.1 411.59999999999997 L 538.7 411.59999999999997 C 538.4000000000001 409.99999999999994 538.2 409.7 536.8000000000001 409.7 L 536 409.7 L 536 414.2 L 538 414.3 L 538 414.8 L 533.4 414.8 L 533.4 414.3 L 534.8 414.2 L 534.8 404.9 L 533.4 404.79999999999995 L 533.4 404.29999999999995 L 540.4 403.7 L 540.4 403.7 z" stroke-linecap="round" />
</g>
		<g transform="matrix(1 0 0 1 82.65 188.45)" id="Q2gHQ_lzahoygQK7GSMMv"  >
<path style="stroke: none; stroke-width: 1; stroke-dasharray: none; stroke-linecap: butt; stroke-dashoffset: 0; stroke-linejoin: miter; stroke-miterlimit: 4; fill: rgb(0,0,0); fill-rule: nonzero; opacity: 1;"  transform=" translate(-544.6, -410.55)" d="M 544.7 406.6 C 546.7 406.6 547.9000000000001 408.20000000000005 547.9000000000001 410.5 C 547.9000000000001 412.8 546.5000000000001 414.5 544.6000000000001 414.5 C 542.7000000000002 414.5 541.3000000000002 412.9 541.3000000000002 410.6 C 541.3 408.2 542.9 406.6 544.7 406.6 L 544.7 406.6 z M 544.7 407.3 C 543.1 407.3 542.8000000000001 408.90000000000003 542.8000000000001 410.40000000000003 C 542.8000000000001 411.90000000000003 543.2 413.70000000000005 544.8000000000001 413.70000000000005 C 546.4000000000001 413.70000000000005 546.7 412.1 546.7 410.6 C 546.7 409.1 546.3 407.3 544.7 407.3 z" stroke-linecap="round" />
</g>
		<g transform="matrix(1 0 0 1 91.05 188.3)" id="aAjBK703HRcga_pugDSK6"  >
<path style="stroke: none; stroke-width: 1; stroke-dasharray: none; stroke-linecap: butt; stroke-dashoffset: 0; stroke-linejoin: miter; stroke-miterlimit: 4; fill: rgb(0,0,0); fill-rule: nonzero; opacity: 1;"  transform=" translate(-553, -410.4)" d="M 551.1 411.9 C 551.1 413.09999999999997 551.4 413.5 552.7 413.5 C 554 413.5 554.8000000000001 412.7 554.8000000000001 411.5 L 554.8000000000001 407.4 L 553.6 407.29999999999995 L 553.6 406.69999999999993 L 555.7 406.5999999999999 L 555.7 413.4999999999999 L 556.8000000000001 413.5999999999999 L 556.8000000000001 414.19999999999993 L 555.1 414.19999999999993 L 555 412.79999999999995 C 554.5 413.59999999999997 553.5 414.29999999999995 552.5 414.29999999999995 C 550.9 414.29999999999995 550.3 413.4 550.3 411.9 L 550.3 407.29999999999995 L 549.1999999999999 407.19999999999993 L 549.1999999999999 406.5999999999999 L 551.1999999999999 406.4999999999999 L 551.1 411.9 L 551.1 411.9 z" stroke-linecap="round" />
</g>
		<g transform="matrix(1 0 0 1 100 188.4)" id="yZln2mGyAArlD3T7Ci4Fp"  >
<path style="stroke: none; stroke-width: 1; stroke-dasharray: none; stroke-linecap: butt; stroke-dashoffset: 0; stroke-linejoin: miter; stroke-miterlimit: 4; fill: rgb(0,0,0); fill-rule: nonzero; opacity: 1;"  transform=" translate(-561.95, -410.5)" d="M 559.9 406.7 L 560 408.2 C 560.5 407.4 561.4 406.59999999999997 562.6 406.59999999999997 C 564.2 406.59999999999997 564.8000000000001 407.49999999999994 564.8000000000001 409.09999999999997 L 564.8000000000001 413.59999999999997 L 565.9000000000001 413.7 L 565.9000000000001 414.2 L 562.7 414.2 L 562.7 413.7 L 563.9000000000001 413.59999999999997 L 563.9000000000001 409.2 C 563.9000000000001 407.9 563.6000000000001 407.59999999999997 562.3000000000001 407.59999999999997 C 561.0000000000001 407.59999999999997 560.2 408.49999999999994 560.2 409.49999999999994 L 560.2 413.79999999999995 L 561.4000000000001 413.9 L 561.4000000000001 414.4 L 558 414.4 L 558 413.9 L 559.1 413.79999999999995 L 559.1 407.59999999999997 L 558 407.4 L 558 406.9 L 559.9 406.7 L 559.9 406.7 z" stroke-linecap="round" />
</g>
		<g transform="matrix(1 0 0 1 108.8 186.55)" id="5L0S-irxyQFopte8pTjpS"  >
<path style="stroke: none; stroke-width: 1; stroke-dasharray: none; stroke-linecap: butt; stroke-dashoffset: 0; stroke-linejoin: miter; stroke-miterlimit: 4; fill: rgb(0,0,0); fill-rule: nonzero; opacity: 1;"  transform=" translate(-570.75, -408.65)" d="M 572.3 407.6 L 572.3 403.6 L 570.9 403.5 L 570.9 403 L 573.1999999999999 402.9 L 573.1999999999999 413.59999999999997 L 574.4 413.7 L 574.4 414.2 L 572.4 414.2 L 572.3 412.9 C 571.9 413.59999999999997 571.0999999999999 414.4 569.9 414.4 C 568.1 414.4 567.1 412.79999999999995 567.1 410.59999999999997 C 567.1 408.09999999999997 568.5 406.49999999999994 570.3000000000001 406.49999999999994 C 571 406.6 571.7 406.8 572.3 407.6 L 572.3 407.6 z M 572.3 411.5 L 572.3 409.2 C 572.3 407.7 571.1999999999999 407.4 570.5 407.4 C 568.9 407.4 568.5 408.79999999999995 568.5 410.5 C 568.5 412.1 568.8 413.6 570.3 413.6 C 571.3 413.5 572.3 412.6 572.3 411.5 L 572.3 411.5 z" stroke-linecap="round" />
</g>
		<g transform="matrix(1 0 0 1 116.45 188.7)" id="aKn79TFcsM7Ulz1paagw9"  >
<path style="stroke: none; stroke-width: 1; stroke-dasharray: none; stroke-linecap: butt; stroke-dashoffset: 0; stroke-linejoin: miter; stroke-miterlimit: 4; fill: rgb(0,0,0); fill-rule: nonzero; opacity: 1;"  transform=" translate(-578.4, -410.8)" d="M 579.7 410.3 L 579.7 409.2 C 579.7 407.7 579.3000000000001 407.2 578.1 407.2 C 577.6 407.2 576.6 407.3 576.6 407.9 C 576.6 408 576.6 408 576.6 408.09999999999997 L 577.1 408.09999999999997 C 577.1 408.29999999999995 577.2 408.49999999999994 577.2 408.7 C 577.2 409.2 576.8000000000001 409.5 576.4000000000001 409.5 C 575.9000000000001 409.5 575.5000000000001 409.2 575.5000000000001 408.6 C 575.5000000000001 407.5 576.6000000000001 406.90000000000003 578.0000000000001 406.90000000000003 C 579.7000000000002 406.90000000000003 580.4000000000001 407.8 580.4000000000001 409.70000000000005 L 580.4000000000001 413.20000000000005 C 580.4000000000001 414.00000000000006 580.5000000000001 414.1 581.0000000000001 414.1 C 581.2000000000002 414.1 581.4000000000001 414.1 581.5000000000001 414 L 581.6000000000001 414.5 C 581.3000000000002 414.6 581.0000000000001 414.7 580.7000000000002 414.7 C 579.9000000000002 414.7 579.4000000000002 414.4 579.3000000000002 413.5 C 578.7000000000002 414.3 577.8000000000002 414.7 577.2000000000002 414.7 C 575.9000000000002 414.7 575.2000000000002 414.09999999999997 575.2000000000002 412.9 C 575.2000000000002 411.29999999999995 576.7000000000002 410.79999999999995 578.4000000000002 410.79999999999995 L 579.7 410.3 L 579.7 410.3 z M 579.7 412 L 579.7 410.7 L 578.6 410.7 C 577 410.7 576.7 411.4 576.7 412.3 C 576.7 413.20000000000005 577.1 413.7 578.1 413.7 C 578.8 413.7 579.7 413.1 579.7 412 z" stroke-linecap="round" />
</g>
		<g transform="matrix(1 0 0 1 122.7 187.35)" id="62Jb2qCnTwfn5oeWIZ-dh"  >
<path style="stroke: none; stroke-width: 1; stroke-dasharray: none; stroke-linecap: butt; stroke-dashoffset: 0; stroke-linejoin: miter; stroke-miterlimit: 4; fill: rgb(0,0,0); fill-rule: nonzero; opacity: 1;"  transform=" translate(-584.65, -409.45)" d="M 583.3 407.4 L 582.0999999999999 407.4 L 582.0999999999999 406.7 L 583.3 406.7 L 583.3 404.9 L 584.3 404.59999999999997 L 584.5 404.59999999999997 L 584.5 406.79999999999995 L 586.1 406.79999999999995 L 586.1 407.49999999999994 L 584.5 407.49999999999994 L 584.5 412.3999999999999 C 584.5 413.2999999999999 584.8 413.69999999999993 585.4 413.69999999999993 C 586 413.69999999999993 586.3 413.49999999999994 586.6 412.49999999999994 L 587.2 412.69999999999993 C 586.9000000000001 413.99999999999994 586.2 414.29999999999995 585.5 414.29999999999995 C 584.2 414.29999999999995 583.9 413.69999999999993 583.9 412.69999999999993 L 583.9 407.3999999999999 L 583.3 407.3999999999999 z" stroke-linecap="round" />
</g>
		<g transform="matrix(1 0 0 1 127.6 186.65)" id="4083STbCzKIWNmO2ARrTi"  >
<path style="stroke: none; stroke-width: 1; stroke-dasharray: none; stroke-linecap: butt; stroke-dashoffset: 0; stroke-linejoin: miter; stroke-miterlimit: 4; fill: rgb(0,0,0); fill-rule: nonzero; opacity: 1;"  transform=" translate(-589.55, -408.75)" d="M 590 406.7 L 590 413.59999999999997 L 591.3 413.7 L 591.3 414.2 L 587.9 414.2 L 587.9 413.7 L 589.1 413.59999999999997 L 589.1 407.4 L 587.8000000000001 407.29999999999995 L 587.8000000000001 406.79999999999995 L 590 406.7 z M 589.2 403.3 C 589.7 403.3 590 403.5 590 404.2 C 590 404.7 589.7 405 589.2 405 C 588.6 405 588.4000000000001 404.7 588.4000000000001 404.2 C 588.4 403.7 588.7 403.3 589.2 403.3 L 589.2 403.3 z" stroke-linecap="round" />
</g>
		<g transform="matrix(1 0 0 1 133.45 188.45)" id="-RjZjGtWkPANYrYe7P4kt"  >
<path style="stroke: none; stroke-width: 1; stroke-dasharray: none; stroke-linecap: butt; stroke-dashoffset: 0; stroke-linejoin: miter; stroke-miterlimit: 4; fill: rgb(0,0,0); fill-rule: nonzero; opacity: 1;"  transform=" translate(-595.4, -410.55)" d="M 595.5 406.6 C 597.5 406.6 598.7 408.20000000000005 598.7 410.5 C 598.7 412.8 597.3000000000001 414.5 595.4000000000001 414.5 C 593.5000000000001 414.5 592.1000000000001 412.9 592.1000000000001 410.6 C 592.1 408.2 593.6 406.6 595.5 406.6 L 595.5 406.6 z M 595.4 407.3 C 593.8 407.3 593.5 408.90000000000003 593.5 410.40000000000003 C 593.5 411.90000000000003 593.9 413.70000000000005 595.5 413.70000000000005 C 597.1 413.70000000000005 597.4 412.1 597.4 410.6 C 597.4 409.1 597.1 407.3 595.4 407.3 z" stroke-linecap="round" />
</g>
		<g transform="matrix(1 0 0 1 142.2 188.4)" id="10jYizkfZCDBms_kT5uU1"  >
<path style="stroke: none; stroke-width: 1; stroke-dasharray: none; stroke-linecap: butt; stroke-dashoffset: 0; stroke-linejoin: miter; stroke-miterlimit: 4; fill: rgb(0,0,0); fill-rule: nonzero; opacity: 1;"  transform=" translate(-604.15, -410.5)" d="M 602 406.7 L 602.1 408.2 C 602.6 407.4 603.5 406.59999999999997 604.7 406.59999999999997 C 606.3000000000001 406.59999999999997 606.9000000000001 407.49999999999994 606.9000000000001 409.09999999999997 L 606.9000000000001 413.59999999999997 L 608.0000000000001 413.7 L 608.0000000000001 414.2 L 604.8000000000001 414.2 L 604.8000000000001 413.7 L 606.0000000000001 413.59999999999997 L 606.0000000000001 409.2 C 606.0000000000001 407.9 605.7000000000002 407.59999999999997 604.4000000000001 407.59999999999997 C 603.1000000000001 407.59999999999997 602.3000000000001 408.49999999999994 602.3000000000001 409.49999999999994 L 602.3000000000001 413.79999999999995 L 603.5000000000001 413.9 L 603.5000000000001 414.4 L 600.3000000000001 414.4 L 600.3000000000001 413.9 L 601.4000000000001 413.79999999999995 L 601.4000000000001 407.59999999999997 L 600.3000000000001 407.49999999999994 L 600.3000000000001 407 L 602 406.7 L 602 406.7 z" stroke-linecap="round" />
</g>
		<g transform="matrix(1 0 0 1 15.1 152.6)" id="FGcM2L1vGNR4-I_KejdFm"  >
<path style="stroke: none; stroke-width: 1; stroke-dasharray: none; stroke-linecap: butt; stroke-dashoffset: 0; stroke-linejoin: miter; stroke-miterlimit: 4; fill: rgb(0,0,0); fill-rule: nonzero; opacity: 1;"  transform=" translate(-477.05, -374.7)" d="M 493.5 355.5 L 481.2 376.9 L 456.2 376.9 L 451.5 384.79999999999995 L 476.5 384.9 L 471.4 393.9 L 480.4 393.9 L 502.59999999999997 355.5 z" stroke-linecap="round" />
</g>
		<g transform="matrix(1 0 0 1 42.75 152.6)" id="S-_dzD9EXAPbXHxl70Ovd"  >
<path style="stroke: none; stroke-width: 1; stroke-dasharray: none; stroke-linecap: butt; stroke-dashoffset: 0; stroke-linejoin: miter; stroke-miterlimit: 4; fill: rgb(0,0,0); fill-rule: nonzero; opacity: 1;"  transform=" translate(-504.7, -374.7)" d="M 511.8 355.5 L 499.5 376.9 L 492.8 376.9 L 488.40000000000003 384.79999999999995 L 495.1 384.9 L 489.70000000000005 393.9 L 498.80000000000007 393.9 L 521.0000000000001 355.5 z" stroke-linecap="round" />
</g>
		<g transform="matrix(1 0 0 1 56.85 152.6)" id="uXK4maCm4tPwaQNQGnpei"  >
<path style="stroke: none; stroke-width: 1; stroke-dasharray: none; stroke-linecap: butt; stroke-dashoffset: 0; stroke-linejoin: miter; stroke-miterlimit: 4; fill: rgb(0,0,0); fill-rule: nonzero; opacity: 1;"  transform=" translate(-518.8, -374.7)" d="M 525.4 355.5 L 503.2 393.9 L 512.3 393.9 L 534.4 355.5 z" stroke-linecap="round" />
</g>
		<g transform="matrix(1 0 0 1 78.5 152.6)" id="2YXlZ_ABktLKREzwLiiK2"  >
<path style="stroke: none; stroke-width: 1; stroke-dasharray: none; stroke-linecap: butt; stroke-dashoffset: 0; stroke-linejoin: miter; stroke-miterlimit: 4; fill: rgb(0,0,0); fill-rule: nonzero; opacity: 1;"  transform=" translate(-540.45, -374.7)" d="M 551.8 355.5 L 535.8 383.2 L 535.8 357.7 L 528 370.8 L 528 376.90000000000003 L 524.4 376.90000000000003 L 520 384.8 L 528 384.90000000000003 L 528 393.90000000000003 L 538.8 393.90000000000003 L 560.9 355.50000000000006 z" stroke-linecap="round" />
</g>
		<g transform="matrix(1 0 0 1 117.85 152.6)" id="C89RroHz-wJ4om67elcln"  >
<path style="stroke: none; stroke-width: 1; stroke-dasharray: none; stroke-linecap: butt; stroke-dashoffset: 0; stroke-linejoin: miter; stroke-miterlimit: 4; fill: rgb(0,0,0); fill-rule: nonzero; opacity: 1;"  transform=" translate(-579.8, -374.7)" d="M 583.5 363.6 L 608.4 363.6 L 613.1999999999999 355.6 L 579.9 355.6 C 578.3 355.6 576.9 356.5 576 357.70000000000005 L 567.1 373.1 C 565.7 375.3 567.4 378.1 570 378.1 L 581.9 378.1 L 577.8 384.8 C 577.4 385.5 576.5999999999999 385.90000000000003 576.0999999999999 385.90000000000003 L 562.3 385.90000000000003 L 562.3 357.70000000000005 L 554.5 370.90000000000003 L 554.5 376.8 L 554.5 376.90000000000003 L 551.1 376.90000000000003 L 546.4 384.8 L 554.4 384.8 L 554.4 393.8 L 560.1999999999999 393.8 L 579.3 393.8 C 580.9 393.8 582.3 392.90000000000003 583.1999999999999 391.7 L 592.6999999999999 375.4 C 594.0999999999999 373.2 592.4 370.4 589.8 370.4 L 578.4 370.4 L 581.8 364.7 C 582.2 364 582.8 363.6 583.5 363.6 L 583.5 363.6 z" stroke-linecap="round" />
</g>
</g>
</g>
</svg>