<?xml version="1.0" encoding="UTF-8" standalone="no" ?>
<!DOCTYPE svg PUBLIC "-//W3C//DTD SVG 1.1//EN" "http://www.w3.org/Graphics/SVG/1.1/DTD/svg11.dtd">
<svg xmlns="http://www.w3.org/2000/svg" xmlns:xlink="http://www.w3.org/1999/xlink" version="1.1" width="1000" height="1000" viewBox="0 0 500 500" xml:space="preserve">
<desc>Created with Fabric.js 5.3.0</desc>
<defs>
</defs>
<g transform="matrix(0.73679396 0 0 0.736793972 249.9819871256 249.5284269929)" id="YZmMrdRKjm0LpkJA4BcDQ"  >
<path style="stroke: none; stroke-width: 1; stroke-dasharray: none; stroke-linecap: butt; stroke-dashoffset: 0; stroke-linejoin: miter; stroke-miterlimit: 4; fill: rgb(0,0,0); fill-rule: nonzero; opacity: 1;"  transform=" translate(-206.2494017977, -338.8080489212)" d="M 174.55 676.11 C 168.54791993707786 676.2487915772568 162.73351411711224 674.013587362165 158.37 669.89 C 145.12 657.19 146.07 648 147 639 C 147.07 638.25 147.15 637.5 147.22 636.74 C 147.62 632.37 147.98 628.32 146.99 623.9 C 144.93 614.6 135.37 599.63 118.59 579.39 C 114.67 574.67 110.28 569.55 105.17 563.73 C 96.76 554.14 92.67 545.9 92.27 537.8000000000001 C 91.86999999999999 529.7000000000002 95.33999999999999 523.8900000000001 97.86 519.73 C 98.5103175968205 518.7201190857995 99.10454992478164 517.6752049360701 99.64000000000001 516.6 C 99.90931425348236 515.368860199439 100.03017531590321 514.109890799222 100 512.85 C 100.28 503.57000000000005 101.77 493.36 116.34 479.64000000000004 C 121.8 474.49000000000007 122.17 472.44000000000005 122.83 468.73 C 124.33 460.29 126.83 452.34000000000003 141.82999999999998 440.21000000000004 L 141.88 440.21000000000004 C 138.48282117240734 439.7949967804177 135.11821298062492 439.14680016750236 131.80999999999997 438.27000000000004 L 126.4 436.68000000000006 L 124.34 431.43000000000006 C 104.43 380.87 94.55 314 89.73 266.32 C 59.78 265.46999999999997 43.540000000000006 256.96999999999997 19.150000000000006 244.18 L 16 242.51 C 5.54 237.05 2.46 228.83 1.72 222.9 C 0.29000000000000004 211.66 5.85 198.52 18.72 182.72 L 18.98 182.41 C 27.581002494859902 171.90559592265612 37.99578875841986 163.02847241150465 49.72999999999995 156.2 L 53.52 154 L 55 175.63 L 55 175.69 C 55.088882587984436 176.72204291324726 55.50992746270838 177.69746353969109 56.2 178.47 C 57.2 179.60999999999999 58.830000000000005 180.16 61.14 180.16 C 63.99 180.16 69 179.27 76.77 175.16 C 78.77 166.82999999999998 84.13 139.86 94.66999999999999 61.25 C 94.99999999999999 57.53 97.49999999999999 38.34 113.82 31.97 C 116.82989489792851 30.714022435802093 120.04922562019205 30.035554422680164 123.30999999999997 29.969999999999995 L 124.10999999999999 29.97 C 124.66999999999999 29.27 125.24999999999999 28.54 125.84999999999998 27.74 C 133.30999999999997 17.93 145.84999999999997 1.5 169.01999999999998 1.5 C 176.72977888034157 1.641646198527973 184.34726655879814 3.2044685482246726 191.48999999999998 6.109999999999999 C 219.89 17.11 253.76999999999998 33.63 272.34999999999997 45.53 C 280.09397331254416 44.72200819678024 287.87400974025445 44.30814096510455 295.65999999999997 44.29000000000002 C 334.04999999999995 44.29 363.86999999999995 55.18 384.28999999999996 76.65 C 403.98999999999995 97.37 412.86999999999995 117.99000000000001 410.66999999999996 137.91 C 408.53999999999996 157.22 395.74999999999994 175.24 373.66999999999996 190.03 C 365.053303839181 195.73046607424985 355.9237765210091 200.61494732001916 346.4 204.62 L 345 273.42 C 345.5071203601982 278.69426775146337 344.9146385641757 284.0163887122865 343.26 289.05 C 340.94 296.43 335.31 307.37 321.65999999999997 317.81 C 320.41999999999996 325.33 317.85999999999996 352.14 329.01 413.45 C 334.2314066251897 416.41035127442956 338.53572931430006 420.75273469471364 341.45 426 C 341.84999999999997 426.71 342.28999999999996 427.53 342.8 428.42 C 349.89 441.14000000000004 366.48 470.88 356.53000000000003 503.29 C 349.53000000000003 526.13 330.78000000000003 545.29 300.88000000000005 560.34 C 289.2595484995031 566.1070257760096 278.0793440908759 572.7215622557325 267.43000000000006 580.13 C 243.43000000000006 597.02 231.43000000000006 612.67 221.75000000000006 625.25 C 212.07000000000005 637.83 203.94 648.51 189 651.59 C 183.27 652.76 180.48 654.65 179.78 656.0300000000001 L 179.65 656.2900000000001 C 178.95313263908562 657.5921388626828 178.60842478758585 659.0537001530419 178.65 660.5300000000001 C 178.57 663.9700000000001 181.46 670.84 182.58 673.2 L 183.39000000000001 674.8900000000001 L 181.55 675.3000000000001 C 179.25439240459062 675.8314603763695 176.9063144246073 676.1031665426246 174.55 676.11 Z" stroke-linecap="round" />
</g>
<g transform="matrix(0.73679396 0 0 0.736793972 250 249.5283018868)" id="Rkvh5e98gBaH70wnzmA6j"  >
<path style="stroke: none; stroke-width: 1; stroke-dasharray: none; stroke-linecap: butt; stroke-dashoffset: 0; stroke-linejoin: miter; stroke-miterlimit: 4; fill: rgb(255,255,255); fill-rule: nonzero; opacity: 1;"  transform=" translate(-206.273849439, -338.8078791233)" d="M 169 3 C 176.51493783870555 3.1464098219952716 183.93869275532538 4.675228756879093 190.90000000000003 7.510000000000019 C 219.76 18.68 253.59 35.24 271.9 47.08 C 279.76214772511156 46.2380443678411 287.66291764449755 45.80745741405964 295.5699999999999 45.790000000000035 C 333.57 45.79 362.99 56.519999999999996 383.12 77.68 C 402.5 98.07000000000001 411.24 118.28 409.12 137.75 C 407.04 156.6 394.47 174.25 372.79 188.75 C 363.9789156505395 194.57467675503074 354.6294334961862 199.54075198243257 344.87 203.57999999999998 L 343.5 273.46000000000004 C 344.0070004164396 278.5580364862393 343.43806315369653 283.7057263305793 341.83 288.57000000000005 C 339.52 295.93000000000006 333.90999999999997 306.68000000000006 320.28999999999996 316.94000000000005 C 318.91999999999996 324.56000000000006 316.15999999999997 351.40000000000003 327.66999999999996 414.38000000000005 L 327.92999999999995 414.52000000000004 C 333.05293168189843 417.35383999639424 337.2793512528209 421.5664024539695 340.12999999999994 426.68000000000006 C 340.5299999999999 427.4100000000001 340.97999999999996 428.2300000000001 341.48999999999995 429.13000000000005 C 348.48999999999995 441.66 364.85999999999996 471.01000000000005 355.09 502.82000000000005 C 348.19 525.25 329.72999999999996 544.1400000000001 300.2 558.97 C 288.5133544572545 564.7685250059875 277.26961228811933 571.4198469193581 266.55999999999995 578.87 C 242.33 595.87 230.25 611.67 220.56 624.33 C 211.19 636.57 203.09 647.13 188.68 650.09 C 183.3 651.19 179.56 653.09 178.43 655.32 C 177.5351184379984 656.8831858253284 177.07905884147254 658.6590542542245 177.11 660.46 C 177 665.02 181.18 673.8100000000001 181.18 673.8100000000001 C 179.00847104301377 674.3099517754791 176.78830659370573 674.5681884259274 174.56 674.58 C 168.94683265755629 674.7136904572474 163.50713157405931 672.6297891174665 159.42000000000002 668.7800000000001 C 145.59 655.5200000000001 147.86 646.3900000000001 148.73000000000002 636.8800000000001 C 149.13000000000002 632.4500000000002 149.52 628.2600000000001 148.47000000000003 623.5700000000002 C 146.35000000000002 614.0300000000002 136.69000000000003 598.8500000000001 119.76000000000002 578.4300000000002 C 114.85000000000002 572.5200000000002 110.00000000000001 566.9400000000002 106.31000000000002 562.7400000000001 C 98.14000000000001 553.4200000000001 94.16000000000001 545.4700000000001 93.78000000000002 537.7400000000001 C 93.40000000000002 530.0100000000001 96.78000000000002 524.5200000000001 99.16000000000001 520.5200000000001 C 99.8395106546741 519.4580596953231 100.4604377868106 518.3597531013827 101.02000000000001 517.2300000000001 C 101.414280661223 515.8256606747177 101.57973393242867 514.3669706102106 101.51 512.9100000000001 C 101.78 503.9100000000001 103.23 494.0700000000001 117.38000000000001 480.74000000000007 C 123.22000000000001 475.24000000000007 123.63000000000001 472.89000000000004 124.33000000000001 468.9800000000001 C 125.77000000000001 460.87000000000006 128.15 453.19000000000005 142.74 441.3900000000001 Q 144.17000000000002 440.2300000000001 145.65 439.1400000000001 C 141.10688686780261 438.73484925358673 136.60494787857243 437.9555388639206 132.18999999999997 436.8100000000001 L 127.49 435.4300000000001 L 125.69999999999999 430.8600000000001 C 106 380.77 96.06 314.59 91.1 264.85 C 60.629999999999995 264.23 44.209999999999994 255.62000000000003 19.819999999999993 242.85000000000002 L 16.659999999999993 241.19000000000003 C 6.82 236 3.91 228.3 3.21 222.71 C 1.8399999999999999 211.9 7.29 199.13 19.86 183.71 L 20.11 183.4 C 28.618242641211218 173.03922517251976 38.90595295877773 164.2787555900495 50.48999999999993 157.53000000000003 L 52.19 156.53 L 53.449999999999996 175.71 C 53.53567099022211 177.11799920716126 54.09213631936094 178.45633354306477 55.029999999999994 179.51000000000002 C 56.349999999999994 180.98000000000002 58.32999999999999 181.70000000000002 61.089999999999996 181.70000000000002 C 64.31 181.70000000000002 69.75 180.70000000000002 78.03 176.15 C 79.93 168.29 85.32000000000001 141.94 96.11 61.44000000000001 C 96.42 57.960000000000015 98.79 39.44000000000001 114.32 33.360000000000014 C 117.15700353684923 32.18362156443677 120.18934306279827 31.549340254199105 123.25999999999998 31.490000000000013 C 123.77999999999999 31.490000000000013 124.25999999999999 31.490000000000013 124.74 31.55000000000001 C 125.3 30.87000000000001 126.03999999999999 29.95000000000001 127 28.690000000000012 C 134.3 19.05 146.51 3 169 3 M 169 0 C 145 0 132.27 16.8 124.64 26.83 C 124.2 27.4 123.79 27.939999999999998 123.38 28.45 L 123.28999999999999 28.45 C 119.85692496931749 28.51195778907454 116.46555247535323 29.21397189532514 113.28999999999999 30.52 C 96.18 37.18 93.5 57 93.12 61.07 C 82.86 137.62 77.49000000000001 165.07 75.42 174.07 C 68.26 177.82 63.7 178.63 61.09 178.63 C 58.330000000000005 178.63 57.52 177.73 57.260000000000005 177.44 C 56.823507529049486 176.928622037659 56.53938903905993 176.30494730353558 56.440000000000005 175.64 L 56.440000000000005 175.44 L 55.18000000000001 156.26 L 54.86000000000001 151.41 L 50.660000000000004 153.87 L 48.96 154.87 C 37.067959619299124 161.79594233600636 26.50877344252868 170.7905537810039 17.77999999999998 181.43000000000004 L 17.51 181.77 C 4.41 197.91 -1.25 211.42 0.23 223.09 C 1.02 229.37 4.23 238.09 15.23 243.84 L 18.39 245.5 C 42.64 258.2 58.88 266.71 88.39 267.77 C 93.26 315.46 103.17 381.77 122.9 431.98 L 124.69000000000001 436.54 L 125.23000000000002 437.91 L 126.64000000000001 438.33000000000004 L 131.34 439.71000000000004 C 133.6432916435869 440.3360421520518 135.98042176052235 440.8301782339181 138.34 441.19000000000005 C 125.21000000000001 452.50000000000006 122.81 460.56000000000006 121.4 468.4800000000001 C 120.75 472.12000000000006 120.4 473.7700000000001 115.4 478.5800000000001 C 100.4 492.6900000000001 98.86000000000001 503.6600000000001 98.59 512.8400000000001 C 98.59443660911701 513.9150306112647 98.51082380983277 514.9886189540744 98.34 516.0500000000002 C 97.96000000000001 516.8700000000002 97.25 518.0500000000002 96.68 518.9700000000001 C 94.19000000000001 523.0600000000002 90.44000000000001 529.2300000000001 90.86000000000001 537.9000000000001 C 91.27000000000001 546.3600000000001 95.49000000000001 554.9000000000001 104.13000000000001 564.7500000000001 C 109.25000000000001 570.5700000000002 113.63000000000001 575.6800000000001 117.53000000000002 580.3800000000001 C 134.15 600.3800000000001 143.60000000000002 615.19 145.62 624.2500000000001 C 146.56 628.4500000000002 146.22 632.2500000000001 145.83 636.5400000000001 L 145.83 636.6400000000001 C 145.76000000000002 637.3900000000001 145.68 638.1300000000001 145.60000000000002 638.8800000000001 C 144.69000000000003 647.7300000000001 143.65000000000003 657.7600000000001 157.43000000000004 670.9800000000001 C 162.07559932781365 675.3672162193545 168.26173402215358 677.7489858490568 174.65000000000003 677.6100000000001 C 177.0968837196569 677.5987626517613 179.535026039368 677.3170515721798 181.92000000000004 676.7700000000001 L 185.59000000000003 675.94 L 183.98000000000002 672.5500000000001 C 182.48000000000002 669.4000000000001 180.13000000000002 663.35 180.19000000000003 660.5500000000001 C 180.15558422489568 659.3060735543158 180.4487091930535 658.074948688053 181.04000000000002 656.98 C 181.10000000000002 656.88 181.15000000000003 656.78 181.19000000000003 656.7 C 181.58 655.94 183.79000000000002 654.19 189.37000000000003 653.0500000000001 C 204.90000000000003 649.86 213.70000000000005 638.35 223.03000000000003 626.1700000000001 C 232.63000000000002 613.6600000000001 244.55000000000004 598.1100000000001 268.39000000000004 581.34 C 278.98216562343634 573.9810369732122 290.0985000504006 567.4068247609938 301.6499999999997 561.6700000000003 C 331.93000000000006 546.46 350.91 526.97 358.06000000000006 503.7200000000001 C 368.21000000000004 470.7200000000001 351.40000000000003 440.56000000000006 344.2200000000001 427.7200000000001 C 343.7000000000001 426.80000000000007 343.2200000000001 426.00000000000006 342.87000000000006 425.2800000000001 C 339.94534014347227 420.0026575549792 335.66902354712545 415.598638203132 330.4800000000001 412.5200000000001 C 319.7800000000001 353.3800000000001 321.9100000000001 326.7900000000001 323.1600000000001 318.6400000000001 C 336.7800000000001 308.0800000000001 342.44000000000005 297.0100000000001 344.80000000000007 289.5100000000001 C 346.5020621740749 284.3072309422394 347.1181075707531 278.81047229232047 346.61000000000007 273.3600000000001 L 347.94000000000005 205.6300000000001 C 357.22882373622434 201.66108968926835 366.1386352729399 196.8580921103101 374.56000000000006 191.28000000000011 C 397.01000000000005 176.28000000000011 410.0300000000001 157.8500000000001 412.21000000000004 138.09000000000012 C 414.46000000000004 117.70000000000012 405.45000000000005 96.69000000000011 385.43000000000006 75.62000000000012 C 364.71000000000004 53.84000000000012 334.5200000000001 42.80000000000012 295.71000000000004 42.80000000000012 C 288.0146629772377 42.810652880876766 280.32480676786577 43.21116622511487 272.6699999999998 44.00000000000005 C 253.92 32.06 220.24 15.65 192 4.71 C 184.6868858376369 1.7433431175479845 176.89057307014633 0.14679385081405538 169 6.217248937900877e-15 Z" stroke-linecap="round" />
</g>
<g transform="matrix(0.73679396 0 0 0.736793972 248.5493644852 211.735372151)" id="n0-8uVgkjh33tYIIOm16S"  >
<path style="stroke: none; stroke-width: 1; stroke-dasharray: none; stroke-linecap: butt; stroke-dashoffset: 0; stroke-linejoin: miter; stroke-miterlimit: 4; fill: rgb(255,255,255); fill-rule: nonzero; opacity: 1;"  transform=" translate(-204.3050011673, -287.5141237853)" d="M 306.73 236.51 C 307.7913921478853 236.4515361578091 308.62160893980763 235.57299987006064 308.62 234.51 L 308.05 209.39999999999998 C 308.0273181229416 208.40567040023 307.2774324958882 207.57909192495526 306.29 207.45999999999998 L 285 204.81 C 285.23 189.61 285.16 162.76 285.1 147.46 C 283.77000000000004 147.46 282.44 147.54000000000002 281.1 147.6 C 281.16 163.51999999999998 281.23 191.82 280.97 206.54 C 280.9626522470507 207.55725134504266 281.72006987131397 208.41795319079642 282.73 208.54 L 304.07 211.16 L 304.55 232.6 L 281.92 233.85 C 280.85860785211474 233.90846384219088 280.0283910601924 234.78700012993934 280.03000000000003 235.85 L 280.03000000000003 250.7 C 280.03194962660024 251.2493437492255 280.25977364699304 251.77370062155813 280.66 252.14999999999998 C 280.9744540032497 252.45020548231693 281.3781644006023 252.63977384281296 281.81 252.68999999999997 L 303.92 255.12999999999997 L 302.8 274.27 L 281.54 276.10999999999996 C 280.564777141608 276.19525859540994 279.7945956487584 276.973903621148 279.72 277.94999999999993 L 278.72 290.0899999999999 C 278.72 290.2099999999999 278.72 290.30999999999995 278.72 290.4199999999999 L 269.65000000000003 290.1599999999999 L 266.78000000000003 148.8599999999999 C 251.6931934353856 150.90714463555923 236.81127686492292 154.25289926021364 222.29999999999984 158.85999999999999 L 224.17000000000004 162.0599999999999 C 224.26876277290822 162.24291458844274 224.24909972366174 162.46707334985265 224.12000000000003 162.62999999999988 C 219.85000000000002 167.81999999999988 208.17000000000004 176.8399999999999 197.12000000000003 184.8699999999999 C 200.18707166969747 183.8495469768732 203.397630329149 183.32626980314558 206.63000000000002 183.31999999999988 C 228.63000000000002 183.31999999999988 246.63000000000002 207.69999999999987 246.63000000000002 237.6799999999999 C 246.63000000000002 267.6599999999999 228.70000000000002 292.0399999999999 206.63000000000002 292.0399999999999 C 194.88000000000002 292.0399999999999 183.87000000000003 285.1199999999999 176.26000000000002 273.0399999999999 L 171.12 277 C 170.90404730236727 277.1634515286646 170.63103151504177 277.2323191175112 170.36338891564196 277.1908533626746 C 170.09574631624216 277.14938760783804 169.8563688462958 277.0011351481465 169.70000000000002 276.78 C 166.27259866576304 271.95963663103475 163.57677951333406 266.65898222257124 161.70000000000002 261.04999999999995 L 159.65 261.9 C 158.81876023035807 262.2333862910888 157.88319124676505 262.18587692864065 157.09 261.77 C 156.31135157181257 261.35999892801726 155.75198393813628 260.6287994068718 155.56 259.77 L 154.14000000000001 252.76999999999998 C 153.97944064676287 251.97718375401612 154.14584913138856 251.1531254797409 154.60148002723773 250.4847413143423 C 155.0571109230869 249.81635714894372 155.7633480764635 249.36029475590152 156.56 249.21999999999997 L 158.92000000000002 248.79999999999998 Q 158.56 245.92999999999998 158.43 243.13 L 156.8 243.13 C 155.14314575050764 243.13 153.8 241.78685424949236 153.8 240.13 L 153.8 232.31 C 153.8 230.65314575050763 155.14314575050764 229.31 156.8 229.31 C 156.99156738037618 229.31016438112098 157.18259712942606 229.3302727757578 157.37 229.37 L 158.99 229.68 C 159.14000000000001 228.46 159.31 227.28 159.5 226.12 L 157.5 225.37 C 156.06061511672334 224.83892421982014 155.25387605378364 223.3074142340255 155.63 221.82 L 157.54999999999998 214.26 C 157.88385214550416 212.92921209578216 159.0779819677168 211.9944966832226 160.45 211.98999999999998 C 160.91882213787704 211.98971637115767 161.3811855659813 212.0993136281898 161.79999999999998 212.30999999999997 L 162.79999999999998 212.79999999999998 C 163.66814813606538 210.00160822593705 164.7170196539222 207.26251700096066 165.93999999999997 204.6 C 166.06853537191685 204.33662098545892 166.30613768882253 204.1428837116743 166.58999999999997 204.07 C 166.87358566395656 204.00112856355565 167.17310695913446 204.05957174310254 167.40999999999997 204.23 L 173.12999999999997 208.23 C 175.07136153171777 204.0621471126621 177.54900129456695 200.16583166470795 180.49999999999997 196.64 C 176.64999999999998 199.27999999999997 174.02999999999997 201.02999999999997 173.61999999999998 201.30999999999997 C 173.5357535696999 201.36180416061632 173.43889822378793 201.38947711659117 173.33999999999997 201.39 C 173.18042623606442 201.38930875045224 173.03118436631135 201.3109567688319 172.93999999999997 201.17999999999998 L 165.83999999999997 191.39999999999998 C 165.7449976258261 191.2396841442128 165.7449976258261 191.04031585578716 165.83999999999997 190.87999999999997 C 165.92691978651376 190.71218878542118 166.10102785230632 190.60772394594565 166.28999999999996 190.60999999999996 L 170.80999999999997 190.60999999999996 C 175.07999999999998 190.35999999999996 183.87999999999997 180.42999999999995 192.23999999999998 169.60999999999996 C 160.23999999999998 182.36999999999995 132.54999999999998 197.42999999999995 117.56999999999998 205.60999999999996 C 113.89999999999998 207.60999999999996 110.99999999999997 209.17999999999995 108.88999999999999 210.25999999999996 C 106.98655197230391 211.2080472321637 105.17253046215015 212.32591288602228 103.46999999999997 213.6 C 102.14685973168802 214.57285020366803 100.97426928660259 215.73533211043375 99.98999999999998 217.04999999999995 Q 100.14999999999998 219.85999999999996 100.35999999999999 222.98999999999995 C 113.39925719832083 224.9073032152998 126.11214520094157 228.61214431929278 138.14 233.99999999999997 C 138.38904637736488 234.1098894289632 138.5078914492545 234.39599793536414 138.41 234.65 C 138.41 234.65 135.02 242.88 134.9 242.93 C 134.8374589510304 242.94416728763076 134.7725410489696 242.94416728763076 134.71 242.93 C 134.64000000000001 242.93 119.51 236.81 102.54 238.85 L 103.21000000000001 259.73 L 103.21000000000001 259.73 C 107.9 308.24 117.51 375.17 136.84 425.09000000000003 C 140.33 425.88000000000005 151.77 428.00000000000006 171.55 427.49 L 172.05 427.49 L 172.55 427.49 C 175.64000000000001 427.40000000000003 178.95000000000002 427.24 182.43 427 C 181.43 421.92 186.65 408.81 188.25 414.65 C 189.49353147495276 419.40329858694383 192.70061743178604 423.40306565328916 197.07 425.65 C 200.82999999999998 425.21999999999997 204.75 424.71 208.85999999999999 424.09 L 208.85999999999999 424.09 Q 215.61999999999998 422.78 222.73999999999998 421.09 C 230.84999999999997 419.21 240.60999999999999 417.16999999999996 250.93999999999997 415.48999999999995 L 250.93999999999997 415.48999999999995 Q 261.93999999999994 412.71999999999997 273.98999999999995 409.11999999999995 C 274.65999999999997 399.85999999999996 277.92999999999995 355.11999999999995 280.50999999999993 320.03999999999996 C 280.50999999999993 319.84999999999997 280.50999999999993 319.65999999999997 280.50999999999993 319.46999999999997 C 280.50999999999993 319.28 280.50999999999993 319.13 280.50999999999993 318.96 C 281.31999999999994 307.96 282.04999999999995 298.03999999999996 282.60999999999996 290.51 L 282.60999999999996 290.51 C 282.60999999999996 290.51 282.60999999999996 290.43 282.60999999999996 290.38 L 283.44999999999993 279.92 L 304.74999999999994 278.08000000000004 C 305.7393166740026 277.99217452497936 306.5142982139053 277.1916441431019 306.56999999999994 276.20000000000005 L 308 253.46 C 308.0598483053101 252.40151280749063 307.283338379115 251.48022984420828 306.23 251.36 L 284.01 248.91000000000003 L 284.01 237.76 Z M 142 277.88 C 139 285.7 133.12 290.56 126.64 290.56 C 117.06 290.56 109.26 279.9 109.26 266.79 C 109.26 253.68000000000006 117.09 243 126.67 243 C 134.36 243 141.03 249.74 143.28 259.77 C 143.28 259.77 143.28 259.77 143.28 259.84 C 143.78278350802722 262.1156042081476 144.03428930602783 264.4395177816732 144.03 266.77 C 144.04298333751987 270.566718450557 143.3547789392754 274.3331967089294 142 277.88 Z M 222.6 375.8 L 186.89 381.27000000000004 L 186.07999999999998 381.40000000000003 L 185.42 381.50000000000006 L 153.42 386.4100000000001 L 153.35 386.4100000000001 C 153.14976902099082 386.4133949313742 152.967622964152 386.2946040247402 152.89 386.11000000000007 C 151.60572758037614 383.0809175750207 150.9263070294858 379.8298902390104 150.89 376.5400000000001 C 150.90293882743208 376.2916977608925 151.0930478770868 376.0889147745941 151.33999999999997 376.06000000000006 L 192.64 371.84000000000003 L 193.36999999999998 371.76000000000005 L 194.24999999999997 371.6700000000001 L 222.44999999999996 368.7900000000001 C 222.5881948376093 368.7716649819183 222.727398140805 368.81562391976956 222.82999999999996 368.9100000000001 C 222.9365942196416 369.00362877962857 222.99839369869736 369.13813352816175 222.99999999999994 369.2800000000001 L 222.99999999999994 375.2800000000001 C 223.0312899348126 375.52333606589883 222.87014958127995 375.7498035897826 222.63 375.8 Z" stroke-linecap="round" />
</g>
<g transform="matrix(0.73679396 0 0 0.736793972 251.3491806733 175.13946115)" id="vUhT-Iiniiir7WyAw9fAp"  >
<path style="stroke: none; stroke-width: 1; stroke-dasharray: none; stroke-linecap: butt; stroke-dashoffset: 0; stroke-linejoin: miter; stroke-miterlimit: 4; fill: rgb(255,255,255); fill-rule: nonzero; opacity: 1;"  transform=" translate(-208.105, -237.845)" d="M 208.1 193.26 C 190.68 193.26 176.56 213.26 176.56 237.85 C 176.56 262.44 190.68 282.43 208.1 282.43 C 225.51999999999998 282.43 239.65 262.43 239.65 237.85000000000002 C 239.65 213.27000000000004 225.52 193.26 208.1 193.26 Z M 208.1 279.43 C 192.37 279.43 179.56 260.78000000000003 179.56 237.85000000000002 C 179.56 214.92000000000002 192.37 196.26000000000002 208.1 196.26000000000002 C 223.82999999999998 196.26000000000002 236.65 214.92000000000002 236.65 237.85000000000002 C 236.65 260.78000000000003 223.84 279.43 208.1 279.43 Z" stroke-linecap="round" />
</g>
<g transform="matrix(0.73679396 0 0 0.736793972 316.024954485 256.6104546072)" id="d3mcrR1-rmWPiPCQjoFX1"  >
<path style="stroke: none; stroke-width: 1; stroke-dasharray: none; stroke-linecap: butt; stroke-dashoffset: 0; stroke-linejoin: miter; stroke-miterlimit: 4; fill: rgb(255,255,255); fill-rule: nonzero; opacity: 1;"  transform=" translate(-295.885, -348.42)" d="M 305.09 369.09 L 304.97999999999996 369.09 L 304.90999999999997 369.09 L 293.53 371.60999999999996 L 286.75 339.39 L 286.68 339.06 L 295.73 325.23 L 295.88 325.94 Z" stroke-linecap="round" />
</g>
<g transform="matrix(0.73679396 0 0 0.736793972 321.9856176217 290.4256139534)" id="jn8F3A6XGC4jadz3mWB1C"  >
<path style="stroke: none; stroke-width: 1; stroke-dasharray: none; stroke-linecap: butt; stroke-dashoffset: 0; stroke-linejoin: miter; stroke-miterlimit: 4; fill: rgb(255,255,255); fill-rule: nonzero; opacity: 1;"  transform=" translate(-303.975, -394.315)" d="M 315.56 414.85 C 311.122883264476 413.6311704253791 306.5842427686186 412.8178299825373 301.99999999999994 412.42 L 301.77 412.42 L 301.77 412.42 L 300.38 412.3 L 293.23 380.73 L 293.23 380.73 L 292.48 377.45000000000005 L 292.48 377.45000000000005 L 292.39000000000004 377.07000000000005 L 294.39000000000004 376.61000000000007 L 306 374 L 307 373.78 L 307.33 375.38 L 307.85999999999996 377.90999999999997 L 307.85999999999996 377.90999999999997 Z" stroke-linecap="round" />
</g>
<g transform="matrix(0.73679396 0 0 0.736793972 313.5088031115 277.9443240673)" id="6sD03N-mqZd4D0iO7xSYa"  >
<path style="stroke: none; stroke-width: 1; stroke-dasharray: none; stroke-linecap: butt; stroke-dashoffset: 0; stroke-linejoin: miter; stroke-miterlimit: 4; fill: rgb(0,0,0); fill-rule: nonzero; opacity: 1;"  transform=" translate(-292.47, -377.375)" d="M 292.47 377.4 L 292.47 377.4 L 292.47 377.34999999999997 Z" stroke-linecap="round" />
</g>
<g transform="matrix(0.73679396 0 0 0.736793972 310.9388139805 366.5032755353)" id="1ZrmPhtMg6wrM2_0eKCWI"  >
<path style="stroke: none; stroke-width: 1; stroke-dasharray: none; stroke-linecap: butt; stroke-dashoffset: 0; stroke-linejoin: miter; stroke-miterlimit: 4; fill: rgb(255,255,255); fill-rule: nonzero; opacity: 1;"  transform=" translate(-288.9819296976, -497.57)" d="M 295.72 550.06 C 285.59296437376764 555.104266101139 275.7755596917363 560.7476041666605 266.32000000000005 566.9599999999999 L 262 565.87 C 249.56 562.72 246.4 548.73 242.75 532.54 C 241.75 528.13 240.75 523.54 239.46 519.0899999999999 C 236.83 509.7099999999999 233.29000000000002 504.3999999999999 229.84 501.4599999999999 C 236.44 495.3999999999999 240.49 486.4599999999999 244.77 477.0199999999999 C 255.17000000000002 454.12999999999994 266.95 428.17999999999995 319.18 428.17999999999995 C 320.37 428.17999999999995 321.58 428.17999999999995 322.78000000000003 428.17999999999995 L 327.89000000000004 428.28999999999996 C 329.2429124430799 429.0823111886337 330.40934972394155 430.15666131574307 331.31000000000006 431.43999999999994 C 340.17 447.74 379.12 508.18 295.72 550.06 Z" stroke-linecap="round" />
</g>
<g transform="matrix(0.73679396 0 0 0.736793972 332.1486298425 307.9981501863)" id="eOtyWIzhJGTGC8lWTWCn2"  >
<path style="stroke: none; stroke-width: 1; stroke-dasharray: none; stroke-linecap: butt; stroke-dashoffset: 0; stroke-linejoin: miter; stroke-miterlimit: 4; fill: rgb(0,0,0); fill-rule: nonzero; opacity: 1;"  transform=" translate(-317.7685607132, -418.165)" d="M 317.84 418.19 L 317.7 418.19 C 317.6961619019042 418.1735542982882 317.6961619019042 418.1564457017118 317.7 418.14 Z" stroke-linecap="round" />
</g>
<g transform="matrix(0.73679396 0 0 0.736793972 224.8098622329 351.8337075522)" id="h7tKFIUvq9KWZMQdZDYmX"  >
<path style="stroke: none; stroke-width: 1; stroke-dasharray: none; stroke-linecap: butt; stroke-dashoffset: 0; stroke-linejoin: miter; stroke-miterlimit: 4; fill: rgb(255,255,255); fill-rule: nonzero; opacity: 1;"  transform=" translate(-172.085, -477.66)" d="M 207.12 491.16 L 170.37 485.5 L 143.94 511.57 L 150.4 478.88 L 137.05 471 L 156.43 460.18 L 163.62 444.8 L 175 451.96000000000004 L 199.47 443.75000000000006 L 187.47 464.00000000000006 z" stroke-linecap="round" />
</g>
<g transform="matrix(0.73679396 0 0 0.736793972 196.5063656981 197.2101245822)" id="S0QahQXOo_l6s9BkeqirH"  >
<path style="stroke: none; stroke-width: 1; stroke-dasharray: none; stroke-linecap: butt; stroke-dashoffset: 0; stroke-linejoin: miter; stroke-miterlimit: 4; fill: rgb(215,40,47); fill-rule: nonzero; opacity: 1;"  transform=" translate(-133.6706018506, -267.8)" d="M 141.82 260.17 C 141.55791628944195 259.64820619775963 141.25707278524362 259.1468003574291 140.92 258.67 C 139.17 256.1 136.75 254.60000000000002 134.19 254.60000000000002 C 129.04 254.60000000000002 124.84 260.51000000000005 124.84 267.78000000000003 C 124.84 275.05 129 281 134.19 281 C 136.26142489668658 280.94392561102046 138.22122113311127 280.0488437203514 139.62 278.52 C 139.97846188764186 278.1416272775399 140.31247077731894 277.7408166099274 140.62 277.32 C 141.87744590184437 273.9662259207693 142.51447734522642 270.4117260053024 142.5 266.83 C 142.51994852176873 264.5917014921524 142.2918911379441 262.3580806446937 141.82 260.17 Z" stroke-linecap="round" />
</g>
<g transform="matrix(0.73679396 0 0 0.736793972 256.9782865279 176.5430536668)" id="peY67jfKddreLkgN9LJDj"  >
<path style="stroke: none; stroke-width: 1; stroke-dasharray: none; stroke-linecap: butt; stroke-dashoffset: 0; stroke-linejoin: miter; stroke-miterlimit: 4; fill: rgb(215,40,47); fill-rule: nonzero; opacity: 1;"  transform=" translate(-215.745, -239.75)" d="M 215.75 211.5 C 205.57 211.5 197.3 224.17 197.3 239.73 C 197.3 255.29 205.57 268 215.75 268 C 225.93 268 234.19 255.33 234.19 239.76 C 234.19 224.18999999999997 225.92 211.5 215.75 211.5 Z" stroke-linecap="round" />
</g>
<g transform="matrix(0.73679396 0 0 0.736793972 220.4590938989 163.0007804609)" id="XLp3bv54nUrAntFlNfaxJ"  >
<path style="stroke: none; stroke-width: 1; stroke-dasharray: none; stroke-linecap: butt; stroke-dashoffset: 0; stroke-linejoin: miter; stroke-miterlimit: 4; fill: rgb(255,255,255); fill-rule: nonzero; opacity: 1;"  transform=" translate(-166.18, -221.37)" d="M 173.87 221.75 L 172.52 227.74 L 161.93 223.83 L 160.91 223.46 L 160.04 223.14000000000001 L 158.48999999999998 222.57000000000002 L 160.39999999999998 215.00000000000003 L 161.83999999999997 215.72000000000003 L 162.70999999999998 216.16000000000003 L 163.65999999999997 216.63000000000002 z" stroke-linecap="round" />
</g>
<g transform="matrix(0.73679396 0 0 0.736793972 241.6345523102 431.7758535173)" id="4g2QASN3uJHBYVwbVrz7L"  >
<path style="stroke: none; stroke-width: 1; stroke-dasharray: none; stroke-linecap: butt; stroke-dashoffset: 0; stroke-linejoin: miter; stroke-miterlimit: 4; fill: rgb(215,40,47); fill-rule: nonzero; opacity: 1;"  transform=" translate(-194.92, -586.16)" d="M 258.24 572.56 C 257.42 573.15 256.61 573.75 255.81 574.3499999999999 C 211.74 607.2099999999999 208.34 635.8699999999999 186.66 640.3499999999999 C 160.1 645.8 169.47 665.5099999999999 169.72 666.0299999999999 C 150.46 649.6299999999999 162.25 639.5599999999998 158.22 621.4599999999998 C 155.48 609.1599999999999 144.14 592.7599999999998 131.6 577.1999999999998 L 132.35999999999999 572.9999999999998 C 132.44 572.5799999999998 140.35999999999999 530.6399999999998 168.90999999999997 515.6999999999998 C 178.90999999999997 510.4499999999998 185.63999999999996 509.8399999999998 189.79999999999995 509.8399999999998 C 192.81553414053352 509.89398171243334 195.82328635826474 510.16467941202916 198.79999999999993 510.6499999999998 C 201.61848200790163 511.1072121453324 204.4653511538601 511.36784101080747 207.31999999999996 511.4299999999998 C 212.04476246472333 511.4528776979311 216.69756327129107 510.2724703927147 220.84 508 L 220.97 507.93 L 221.02 507.93 L 221.43 507.71 C 222.20000000000002 507.28 222.97 506.81 223.75 506.28999999999996 L 223.75 506.28999999999996 C 226.23 507.71 229.55 511.46999999999997 232.27 521.17 C 233.48000000000002 525.4599999999999 234.49 529.92 235.46 534.24 C 239.33 551.31 243 567.52 258.24 572.56 Z" stroke-linecap="round" />
</g>
<g transform="matrix(0.73679396 0 0 0.736793972 219.073921254 173.9495388852)" id="EI_UqnMVuri_oX7TN0sNo"  >
<path style="stroke: none; stroke-width: 1; stroke-dasharray: none; stroke-linecap: butt; stroke-dashoffset: 0; stroke-linejoin: miter; stroke-miterlimit: 4; fill: rgb(255,255,255); fill-rule: nonzero; opacity: 1;"  transform=" translate(-164.3, -236.23)" d="M 171.81 235.25 L 171.46 240.14 L 156.79000000000002 240.14 L 156.79000000000002 232.32 L 158.66000000000003 232.68 L 159.56000000000003 232.86 L 160.62000000000003 233.07000000000002 z" stroke-linecap="round" />
</g>
<g transform="matrix(0.73679396 0 0 0.736793972 219.7591396368 187.2670899296)" id="VvFrGSarehm_obNKYalOt"  >
<path style="stroke: none; stroke-width: 1; stroke-dasharray: none; stroke-linecap: butt; stroke-dashoffset: 0; stroke-linejoin: miter; stroke-miterlimit: 4; fill: rgb(255,255,255); fill-rule: nonzero; opacity: 1;"  transform=" translate(-165.23, -254.305)" d="M 173.4 252.97 L 162.68 257.4 L 161.69 257.81 L 160.8 258.18 L 158.49 259.13 L 157.06 252.18 L 159.35 251.78 L 160.29 251.62 L 161.32 251.44 L 172.5 249.48 z" stroke-linecap="round" />
</g>
<g transform="matrix(0.73679396 0 0 0.736793972 252.7896128651 171.5254867172)" id="sNderhjbAUH-GliMdp0Ls"  >
<path style="stroke: none; stroke-width: 1; stroke-dasharray: none; stroke-linecap: butt; stroke-dashoffset: 0; stroke-linejoin: miter; stroke-miterlimit: 4; fill: rgb(255,255,255); fill-rule: nonzero; opacity: 1;"  transform=" translate(-210.06, -232.94)" d="M 216.19 232.94 C 216.19 238 213.44 242.10999999999999 210.06 242.10999999999999 C 206.68 242.10999999999999 203.93 237.99999999999997 203.93 232.94 C 203.93 227.88000000000002 206.68 223.77 210.06 223.77 C 213.44 223.77 216.19 227.88 216.19 232.94 Z" stroke-linecap="round" />
</g>
<g transform="matrix(0.73679396 0 0 0.736793972 193.7834685758 193.8208723108)" id="UGtNVTVNflI03IR7MnUzK"  >
<path style="stroke: none; stroke-width: 1; stroke-dasharray: none; stroke-linecap: butt; stroke-dashoffset: 0; stroke-linejoin: miter; stroke-miterlimit: 4; fill: rgb(255,255,255); fill-rule: nonzero; opacity: 1;"  transform=" translate(-129.975, -263.2)" d="M 133.55 263.2 C 133.55 266.05 131.98000000000002 268.28 129.98000000000002 268.28 C 127.98000000000002 268.28 126.40000000000002 266.04999999999995 126.40000000000002 263.2 C 126.40000000000002 260.35 127.97000000000001 258.12 129.98000000000002 258.12 C 131.99 258.12 133.55 260.35 133.55 263.2 Z" stroke-linecap="round" />
</g>
<g transform="matrix(0.73679396 0 0 0.736793972 249.9756064823 114.3244866988)" id="-VZUMwu0-oyjywEW4e7BD"  >
<path style="stroke: none; stroke-width: 1; stroke-dasharray: none; stroke-linecap: butt; stroke-dashoffset: 0; stroke-linejoin: miter; stroke-miterlimit: 4; fill: rgb(255,255,255); fill-rule: nonzero; opacity: 1;"  transform=" translate(-206.2407417875, -155.305)" d="M 335 196.69 C 335.91 150.51 322.3 147.26999999999998 322.3 147.26999999999998 C 311.2001282580082 143.9206497411242 299.6533284050649 142.28845022920115 288.0599999999999 142.42999999999998 C 287.06 142.42999999999998 286.06 142.42999999999998 285.06 142.42999999999998 C 283.74 142.42999999999998 282.4 142.48999999999998 281.06 142.54999999999998 Q 274.44 142.85 267.72 143.67 L 266.72 143.79999999999998 C 250.76745977739128 145.94337866030997 235.03828112033017 149.50754361132488 219.7199999999999 154.45000000000002 L 219.23000000000002 154.6 L 218.74 154.76 C 212.25 156.82 205.82000000000002 159.04999999999998 199.53 161.41 L 198.66 161.74 L 197.79999999999998 162.06 C 154.52999999999997 178.45 117.79999999999998 200.06 106.45999999999998 205.82 C 103.97010155574445 207.05725467305064 101.62284029216913 208.5628551121154 99.45999999999997 210.31 C 98.60102230142412 211.00893872034163 97.79544820459617 211.7710586127764 97.04999999999998 212.59 C 96.1561793487869 213.5665676716974 95.3838924512122 214.647769328302 94.74999999999999 215.81 C 93.65992276827815 217.79284199849027 93.189659760351 220.05707129591732 93.39999999999999 222.31 L 93.46 222.79 L 93.55 223.32 C 93.90794684779104 225.02561077879085 94.58664454028631 226.64769826385458 95.55 228.1 C 95.9371694746443 228.7146439882106 96.3825530250308 229.29062873006384 96.88 229.82 L 98.58999999999999 254.82 L 97.69999999999999 254.82 L 94.69999999999999 254.82 C 63.06999999999999 254.82 47.82999999999999 246.14 21.299999999999983 232.26 C -6.3000000000000185 217.82 43.899999999999984 172.64 43.899999999999984 172.64 C 41.969999999999985 178.23 46.109999999999985 191.64 61.09999999999998 191.64 C 66.55999999999997 191.64 73.45999999999998 189.85999999999999 82.02999999999997 185.29 C 82.79999999999997 184.88 83.58999999999997 184.44 84.38999999999997 183.98 C 85.18999999999997 183.51999999999998 85.81999999999998 183.14999999999998 86.54999999999997 182.70999999999998 L 86.54999999999997 182.70999999999998 C 88.64999999999996 181.42999999999998 90.81999999999996 180.01999999999998 93.09999999999997 178.42999999999998 Q 95.16999999999996 176.96999999999997 97.01999999999997 175.52999999999997 C 133.48999999999995 147.28999999999996 108.27999999999997 124.27999999999997 108.27999999999997 124.27999999999997 C 108.27999999999997 124.27999999999997 129.48 90 195 85.16 C 235.34 82.16 236.31 71.77 260.90999999999997 63.269999999999996 C 263.32 62.44 265.96 61.629999999999995 268.90999999999997 60.849999999999994 C 270.51 60.419999999999995 272.2 59.989999999999995 273.97999999999996 59.57999999999999 C 279.97999999999996 58.18999999999999 287.09 56.89999999999999 295.65 55.78999999999999 L 295.65 55.78999999999999 C 327.19 55.78999999999999 356.08 63.669999999999995 375.96 84.57999999999998 C 446.78 159.11 335 196.69 335 196.69 Z" stroke-linecap="round" />
</g>
<g transform="matrix(0.73679396 0 0 0.736793972 332.1459793292 307.9981501863)" id="LQKM6PrpHCr2C7XcVyDol"  >
<path style="stroke: none; stroke-width: 1; stroke-dasharray: none; stroke-linecap: butt; stroke-dashoffset: 0; stroke-linejoin: miter; stroke-miterlimit: 4; fill: rgb(0,0,0); fill-rule: nonzero; opacity: 1;"  transform=" translate(-317.764963353, -418.165)" d="M 317.69 418.14 L 317.84 418.19 L 317.7 418.19 C 317.6927964635472 418.17434662689226 317.6893711098543 418.1572198584274 317.69 418.14 Z" stroke-linecap="round" />
</g>
<g transform="matrix(0.73679396 0 0 0.736793972 316.3159880992 163.3176018688)" id="tz8TSlNrnSt48SHCVlfkf"  >
<path style="stroke: none; stroke-width: 1; stroke-dasharray: none; stroke-linecap: butt; stroke-dashoffset: 0; stroke-linejoin: miter; stroke-miterlimit: 4; fill: rgb(255,255,255); fill-rule: nonzero; opacity: 1;"  transform=" translate(-296.28, -221.8)" d="M 296.28 230.52 C 299.86999999999995 230.52 302.78 226.61 302.78 221.8 C 302.78 216.99 299.86999999999995 213.08 296.28 213.08 C 292.69 213.08 289.78 216.98000000000002 289.78 221.8 C 289.78 226.62 292.69 230.52 296.28 230.52 Z M 297.84 218 L 300.26 218 L 301.49 221.82 L 300.3 225.66 L 297.89 225.66 L 296.65999999999997 221.84 Z" stroke-linecap="round" />
</g>
<g transform="matrix(0.73679396 0 0 0.736793972 314.8166123905 194.845015932)" id="mti6vR9pfxfaEomq6XVMW"  >
<path style="stroke: none; stroke-width: 1; stroke-dasharray: none; stroke-linecap: butt; stroke-dashoffset: 0; stroke-linejoin: miter; stroke-miterlimit: 4; fill: rgb(255,255,255); fill-rule: nonzero; opacity: 1;"  transform=" translate(-294.245, -264.59)" d="M 294.25 255.87 C 290.66 255.87 287.74 259.78000000000003 287.74 264.59000000000003 C 287.74 269.40000000000003 290.66 273.31000000000006 294.25 273.31000000000006 C 297.84 273.31000000000006 300.75 269.4100000000001 300.75 264.59000000000003 C 300.75 259.77 297.84 255.87 294.25 255.87 Z M 297.89 268.48 L 295.47999999999996 268.48 L 294.23999999999995 264.66 L 295.41999999999996 260.82000000000005 L 297.84 260.82000000000005 L 299.07 264.64000000000004 Z" stroke-linecap="round" />
</g>
<g transform="matrix(0.73679396 0 0 0.736793972 229.0980030802 69.3726864653)" id="l21jD_2CMa3_NeurlWWX9"  >
<path style="stroke: none; stroke-width: 1; stroke-dasharray: none; stroke-linecap: butt; stroke-dashoffset: 0; stroke-linejoin: miter; stroke-miterlimit: 4; fill: rgb(255,255,255); fill-rule: nonzero; opacity: 1;"  transform=" translate(-177.905, -94.295)" d="M 187.29 16.84 C 181.4838891761662 14.437913604231674 175.28191841505574 13.13580492611992 169 13.00000000000001 C 152 13 142.56 24.75 135 34.69 C 130.38 40.769999999999996 128.71 41.989999999999995 127.16 41.989999999999995 C 126.11 41.989999999999995 125.11 41.42999999999999 123.28999999999999 41.42999999999999 C 121.46426079595413 41.498304266140984 119.6671005774851 41.90520846654907 117.99 42.629999999999995 C 107.22 46.83 106.08999999999999 62.47 106.08999999999999 62.47 C 96.34 134.93 91 164.11 88.41 175.59 C 89.02 175.18 89.63 174.77 90.27 174.32 C 103.86 164.79 111.09 155.09 111.75999999999999 145.49 C 112.48 135.14 105 128 105 128 L 101.94 125.21 L 104.11 121.67999999999999 C 105.03 120.19 127.39 85.14999999999999 194.67000000000002 80.19999999999999 C 220.23000000000002 78.32 229.02 73.46999999999998 239.20000000000002 67.85999999999999 C 248.02595882347381 62.67758049832878 257.5118005732778 58.711691341229894 267.4 56.07000000000002 C 249.78 44.5 215.48 27.75 187.29 16.84 Z M 226 45.78 C 221.4870429046479 46.32867726126993 216.94612406157165 46.61582359987622 212.4 46.64 C 199.64000000000001 46.64 190.18 43.97 184.21 38.64 C 178.24 33.31 178.11 27.28 178.11 27 C 178.11 25.619288125423015 179.22928812542304 24.5 180.61 24.5 C 181.990711874577 24.5 183.11 25.619288125423015 183.11 27 C 183.11 27.22 183.29000000000002 31.27 187.64000000000001 35 C 192.35000000000002 39.1 202.73000000000002 43.43 225.38000000000002 40.769999999999996 C 226.760711874577 40.60983742254906 228.00983742254908 41.599288125423 228.17000000000002 42.97999999999999 C 228.33016257745098 44.36071187457697 227.340711874577 45.60983742254906 225.96000000000004 45.769999999999996 Z" stroke-linecap="round" />
</g>
</svg>