<svg xmlns="http://www.w3.org/2000/svg" viewBox="0 0 1093.26 671.61"><defs><style>.cls-1{fill:#010101;}.cls-2{fill:#fff;}.cls-3{fill:#d7282f;}</style></defs><g id="Layer_2" data-name="Layer 2"><g id="Layer_5" data-name="Layer 5"><path d="M1093.26,263.48a26.7,26.7,0,0,1-6.34,17.84,22.39,22.39,0,0,1-17.23,8.12h-.27a23.39,23.39,0,0,1-5.9-.75H883V282a26.77,26.77,0,0,1-7.21,4.8,32.15,32.15,0,0,1-13.35,2.84h0a39.36,39.36,0,0,1-18-4.13,28.19,28.19,0,0,1-8.18-6.08v9.29H807l-1-1.81-.56-1v2.82H655.94V267.1l-5.49,18.51-.92,3.08H595l-.89-3.09-5.2-17.73a40.07,40.07,0,0,1-5.61,9.52,31.62,31.62,0,0,1-25.56,12.22h-.41a32.35,32.35,0,0,1-25.1-11.36l-.08-.09-.37.51a22.55,22.55,0,0,1-13,8.49c-4.21,1-9.65,1.52-17.12,1.53H466.87v-6.63a32,32,0,0,1-21.12,7.55h-.42a32.88,32.88,0,0,1-19.59-6.23v5.31H354.57V257.86h3.77V244.59h-3.77V213.76h33.69c2.42,0,4.69.05,6.73.16s4,.26,5.65.48a37.81,37.81,0,0,1,4.84.93,22.11,22.11,0,0,1,12.71,9c.3.44.6.89.87,1.35a37.53,37.53,0,0,1,6.68-6.71,28.72,28.72,0,0,1,6.13-3.66,32.1,32.1,0,0,1,6.53-2,36,36,0,0,1,7.09-.69h.28a31.9,31.9,0,0,1,21.1,7.42v-6.25H503.7a60.38,60.38,0,0,1,15.14,1.51,21,21,0,0,1,11.84,8.37c.3.45.59.9.86,1.36A37.17,37.17,0,0,1,537.7,219a28.54,28.54,0,0,1,6.14-3.66,32.06,32.06,0,0,1,6.51-2,36.14,36.14,0,0,1,7.1-.69h.28a32.38,32.38,0,0,1,19,5.78v-4.61H689.62c2.42,0,4.69.05,6.73.16,2.2.11,4,.26,5.65.47a39,39,0,0,1,4.85.94,22.12,22.12,0,0,1,12.7,9,25,25,0,0,1,3.72,8.14V213.76h117v5.37A30,30,0,0,1,859,212.59h.33a29.65,29.65,0,0,1,8.45,1.17h147c2.41,0,4.67.05,6.73.16s4,.26,5.65.47a40.13,40.13,0,0,1,4.85.94,22.3,22.3,0,0,1,11.58,7.49,22.39,22.39,0,0,1,18.35-9.81h.3a22.76,22.76,0,0,1,5.84.75h23.34v33.45h-2.86a27.94,27.94,0,0,1,2.16,4A29.74,29.74,0,0,1,1093.26,263.48Z"/><path d="M648,361.59a36.62,36.62,0,0,0-3.47-3.57,34.8,34.8,0,0,0,2.22-2.79,33.63,33.63,0,0,0,6-19.83c.13-11.82-5.62-22.77-15.8-30-9.57-6.95-22.38-10.34-39.13-10.35a81.29,81.29,0,0,0-21.67,2.62,50,50,0,0,0-16.72,8,37.35,37.35,0,0,0-15.53,30.64,31.54,31.54,0,0,0,7.27,20.58c.42.52.87,1,1.33,1.52a35,35,0,0,0-4.6,4.94,32.72,32.72,0,0,0-5,9.22V351.45H531.64V295.09H483.88l-1,1.07-55.56,57.36L425.89,355l.52,1.94,6.7,25h-8.62V295.09h-31.3l-1.05,1.53-1.83,2.66c-.88,1.28-3.18,3.78-8.91,6.38a35.71,35.71,0,0,1-15.16,3.16h-.09c-.38,0-.74,0-1.07,0l-6.67-.56-3.84-.34v43.24l3,.45,5.24.78a36.51,36.51,0,0,0,5.38.34h2v29.16H354.57V426.5h85.08V390.36h26.48v36.16h76.79V397.91a39.29,39.29,0,0,0,13.17,18.2c9.48,7.65,23.17,11.4,41.79,11.42,19.22,0,32.74-3.53,42.54-11A38.32,38.32,0,0,0,656,384.72C656,375.77,653.26,367.76,648,361.59Z"/><path d="M406.13,134.75c-2.08,18.85-14.65,36.5-36.33,51a165.17,165.17,0,0,1-27.92,14.83l-1.37,69.88a36.6,36.6,0,0,1-1.67,15.11c-2.31,7.36-7.92,18.11-21.54,28.37-1.37,7.62-4.13,34.46,7.38,97.44l.26.14a31.33,31.33,0,0,1,12.2,12.16c.4.73.85,1.55,1.36,2.45,7,12.53,23.37,41.88,13.6,73.69-6.9,22.43-25.36,41.32-54.89,56.15a265.72,265.72,0,0,0-33.64,19.9c-24.23,17-36.31,32.8-46,45.46-9.37,12.24-17.47,22.8-31.88,25.76-5.38,1.1-9.12,3-10.25,5.23a10,10,0,0,0-1.32,5.14c-.11,4.56,4.07,13.35,4.07,13.35-12.33,2.77-19.27-2.65-21.76-5-13.83-13.26-11.56-22.39-10.69-31.9.4-4.43.79-8.62-.26-13.31-2.12-9.54-11.78-24.72-28.71-45.14-4.91-5.91-9.76-11.49-13.45-15.69-8.17-9.32-12.15-17.27-12.53-25s3-13.22,5.38-17.22A34.58,34.58,0,0,0,98,514.25a13.58,13.58,0,0,0,.49-4.32c.27-9,1.72-18.84,15.87-32.17,5.84-5.5,6.25-7.85,6.95-11.76,1.44-8.11,3.82-15.79,18.41-27.59q1.43-1.16,2.91-2.25a82.92,82.92,0,0,1-13.46-2.33l-4.7-1.38-1.79-4.57C103,377.77,93.06,311.59,88.1,261.85c-30.47-.62-46.89-9.23-71.28-22l-3.16-1.66C3.82,233,.91,225.3.21,219.71c-1.37-10.81,4.08-23.58,16.65-39l.25-.31a112.76,112.76,0,0,1,30.38-25.87l1.7-1,1.26,19.18a6.29,6.29,0,0,0,1.58,3.8c1.32,1.47,3.3,2.19,6.06,2.19,3.22,0,8.66-1,16.94-5.55,1.9-7.86,7.29-34.21,18.08-114.71.31-3.48,2.68-22,18.21-28.08a24.58,24.58,0,0,1,8.94-1.87c.52,0,1,0,1.48.06.56-.68,1.3-1.6,2.26-2.86C131.3,16.05,143.51,0,166,0A61.23,61.23,0,0,1,187.9,4.51c28.86,11.17,62.69,27.73,81,39.57a227,227,0,0,1,23.67-1.29c38,0,67.42,10.73,87.55,31.89C399.54,95.07,408.28,115.28,406.13,134.75Z"/><polygon class="cls-1" points="741.61 253 749.91 253 745.98 236.95 741.61 253"/><path d="M1022.16,240.49a5.56,5.56,0,0,1-1,3.55,4.09,4.09,0,0,1-2.53,1.66,31.05,31.05,0,0,1-5.34.29h-2V235h1.63a36.13,36.13,0,0,1,5.61.29,4.12,4.12,0,0,1,2.63,1.67A5.69,5.69,0,0,1,1022.16,240.49Z"/><path d="M563.53,251.08q0,9.84-1.5,13.17c-1,2.2-2.52,3.3-4.54,3.3s-3.55-1.14-4.5-3.42-1.5-6.6-1.5-13S552,240.14,553,238s2.5-3.29,4.5-3.29,3.61,1.14,4.57,3.41S563.53,244.72,563.53,251.08Z"/><path d="M697,240.49a5.56,5.56,0,0,1-1,3.55,4.09,4.09,0,0,1-2.53,1.66,31.05,31.05,0,0,1-5.34.29h-2V235h1.63a36.13,36.13,0,0,1,5.61.29,4.12,4.12,0,0,1,2.63,1.67A5.69,5.69,0,0,1,697,240.49Z"/><path class="cls-2" d="M413.94,266.34l-6.41-13.26a12.38,12.38,0,0,0,4.9-5.33,19,19,0,0,0-1.2-18.6,13.68,13.68,0,0,0-7.9-5.62,29.49,29.49,0,0,0-3.8-.73c-1.38-.18-3-.32-5-.42s-4-.15-6.3-.15H363v13.88h3.77v30.23H363v13.88h25.22V266.34h-3.51v-9.8h5.71l10.1,23.68h16.71V266.34ZM394.63,244a4.11,4.11,0,0,1-2.54,1.66,30.83,30.83,0,0,1-5.33.29h-2V235h1.64a36,36,0,0,1,5.6.29,4.12,4.12,0,0,1,2.64,1.67,5.68,5.68,0,0,1,1,3.58A5.55,5.55,0,0,1,394.63,244Z"/><path class="cls-2" d="M470,240a33.28,33.28,0,0,0-5.13-9.75q-6.84-9.13-19.31-9.13a27.59,27.59,0,0,0-5.47.52,23.58,23.58,0,0,0-4.82,1.48,20.22,20.22,0,0,0-4.32,2.58,27.82,27.82,0,0,0-8.7,11.38,36.18,36.18,0,0,0-2.84,14.05q0,13.26,7.27,21.64t18.88,8.42q12,0,19.11-9a33,33,0,0,0,7.07-21.09A35.15,35.15,0,0,0,470,240Zm-19.91,24.3q-1.5,3.3-4.53,3.3t-4.5-3.42q-1.5-3.37-1.5-13,0-9.84,1.5-13.13c1-2.2,2.5-3.29,4.5-3.29s3.61,1.14,4.57,3.41,1.47,6.65,1.47,13Q451.57,260.92,450.06,264.25Z"/><path class="cls-2" d="M525.27,254.92a15.35,15.35,0,0,0-7.54-5.67,13.06,13.06,0,0,0,6.07-4.17,11.83,11.83,0,0,0,2.44-7.84,15.42,15.42,0,0,0-2.57-8.84,12.37,12.37,0,0,0-7.07-5,53.5,53.5,0,0,0-12.91-1.21H475.35v13.88h4v30.23h-4v13.88h26.24q9.95,0,15.11-1.29a13.94,13.94,0,0,0,8.24-5.3,16.29,16.29,0,0,0,3-9.92A15.24,15.24,0,0,0,525.27,254.92Zm-27.95-20h3.34q4.93,0,6,1.62a6.44,6.44,0,0,1,1.1,3.67,5.86,5.86,0,0,1-1.2,3.84q-1.28,1.46-5.31,1.46h-4Zm9.61,31.31q-1.69,1.25-5.57,1.25h-4V256.08h4q4.31,0,5.81,1.38a5.75,5.75,0,0,1,1.5,4.38Q508.6,265,506.93,266.26Z"/><path class="cls-2" d="M581.94,240a33.55,33.55,0,0,0-5.14-9.75q-6.84-9.13-19.31-9.13a27.59,27.59,0,0,0-5.47.52,23.58,23.58,0,0,0-4.82,1.48,20.22,20.22,0,0,0-4.32,2.58,27.9,27.9,0,0,0-8.7,11.38,36.18,36.18,0,0,0-2.84,14.05q0,13.26,7.27,21.64t18.88,8.42q12,0,19.11-9a33,33,0,0,0,7.07-21.09A35.43,35.43,0,0,0,581.94,240ZM562,264.25c-1,2.2-2.52,3.3-4.54,3.3s-3.55-1.14-4.5-3.42-1.5-6.6-1.5-13S552,240.14,553,238s2.5-3.29,4.5-3.29,3.61,1.14,4.57,3.41,1.47,6.65,1.47,13Q563.53,260.92,562,264.25Z"/><polygon class="cls-2" points="659.47 222.23 659.47 236.11 656.27 236.11 643.07 280.72 628.66 280.72 622.39 258.38 616.09 280.72 601.48 280.72 588.41 236.11 585.2 236.11 585.2 222.23 609.25 222.23 609.25 236.11 605.78 236.11 611.25 261.09 618.19 236.11 614.75 236.11 614.75 222.23 634.96 222.23 634.96 236.11 631.53 236.11 638.56 261.09 644.1 236.11 640.77 236.11 640.77 222.23 659.47 222.23"/><path class="cls-2" d="M715.3,266.34l-6.4-13.26a12.44,12.44,0,0,0,4.9-5.33,19,19,0,0,0-1.2-18.6,13.71,13.71,0,0,0-7.9-5.62,29.66,29.66,0,0,0-3.81-.73c-1.37-.18-3-.32-5-.42s-4-.15-6.3-.15H664.41v13.88h3.77v30.23h-3.77v13.88h25.21V266.34h-3.5v-9.8h5.7l10.11,23.68h16.71V266.34ZM696,244a4.09,4.09,0,0,1-2.53,1.66,31.05,31.05,0,0,1-5.34.29h-2V235h1.63a36.13,36.13,0,0,1,5.61.29,4.12,4.12,0,0,1,2.63,1.67,5.69,5.69,0,0,1,1,3.58A5.56,5.56,0,0,1,696,244Z"/><path class="cls-2" d="M770.23,266.34l-8.87-30.23h3.73V222.23H731.74v13.88h3.74l-8.71,30.23h-3.53v13.88h18.37V267.51h-3.8l2-7.3h11.88l1.76,7.3h-4.07v12.71h24.22V266.34ZM741.61,253,746,237,749.91,253Z"/><polygon class="cls-2" points="831.76 222.23 831.76 236.11 827.72 236.11 827.72 280.97 812.45 280.97 792.9 245.91 792.9 266.34 797 266.34 797 280.22 777.96 280.22 777.96 266.34 782.03 266.34 782.03 236.11 777.96 236.11 777.96 222.23 799.94 222.23 816.81 252.54 816.81 236.11 813.05 236.11 813.05 222.23 831.76 222.23"/><path class="cls-2" d="M885.49,249.25a68.46,68.46,0,0,1-1.07,14.13,25.44,25.44,0,0,1-4.34,9,19.41,19.41,0,0,1-7.83,6.63,23.66,23.66,0,0,1-9.88,2.09,31.11,31.11,0,0,1-14.24-3.25,21.55,21.55,0,0,1-9.93-10.51,36.22,36.22,0,0,1-3.54-16.17q0-13.56,7.14-21.85t17.34-8.29q8.57,0,13.44,5.21v-4.05h11.17v20.26H872.58a13.45,13.45,0,0,0-3.82-5.67,8.47,8.47,0,0,0-5.48-1.91,6.92,6.92,0,0,0-6.47,3.58q-2,3.58-2,13.17t2.14,13a7,7,0,0,0,6.3,3.46q6.27,0,6.27-7.84h-4.74v-11Z"/><polygon class="cls-2" points="935.58 257.04 935.58 280.22 891.42 280.22 891.42 266.34 895.59 266.34 895.59 236.11 891.42 236.11 891.42 222.23 917.94 222.23 917.94 236.11 913.53 236.11 913.53 266.34 924.51 266.34 924.51 257.04 935.58 257.04"/><polygon class="cls-2" points="971.86 240.78 971.86 236.11 961.32 236.11 961.32 245.04 970.5 245.04 970.5 256.83 961.32 256.83 961.32 266.34 971.86 266.34 971.86 261.67 984.04 261.67 984.04 280.22 939.78 280.22 939.78 266.34 943.38 266.34 943.38 236.11 939.71 236.11 939.71 222.23 984.04 222.23 984.04 240.78 971.86 240.78"/><path class="cls-2" d="M1040.43,266.34l-6.4-13.26a12.44,12.44,0,0,0,4.9-5.33,19,19,0,0,0-1.2-18.6,13.71,13.71,0,0,0-7.9-5.62,29.66,29.66,0,0,0-3.81-.73c-1.37-.18-3-.32-5-.42s-4-.15-6.3-.15H989.54v13.88h3.77v30.23h-3.77v13.88h25.21V266.34h-3.5v-9.8h5.7l10.11,23.68h16.71V266.34ZM1021.12,244a4.09,4.09,0,0,1-2.53,1.66,31.05,31.05,0,0,1-5.34.29h-2V235h1.63a36.13,36.13,0,0,1,5.61.29,4.12,4.12,0,0,1,2.63,1.67,5.69,5.69,0,0,1,1,3.58A5.56,5.56,0,0,1,1021.12,244Z"/><path class="cls-2" d="M1084.79,263.5a18.27,18.27,0,0,1-4.34,12.34,13.72,13.72,0,0,1-10.94,5.13,16,16,0,0,1-11.1-4.54v3.79H1048V261.63h10.44q1.86,7.59,7,7.58,3.74,0,3.74-3.75a4.39,4.39,0,0,0-1.3-3.25,30,30,0,0,0-5.9-3.92,52.53,52.53,0,0,1-8.34-5.54,17.2,17.2,0,0,1-4.27-5.88,18.81,18.81,0,0,1-1.77-8.21q0-8.08,4.2-12.63a13.41,13.41,0,0,1,10.28-4.55,13.9,13.9,0,0,1,10.33,4.34v-3.59h10.51v16.51h-10.37q-1.9-6.84-6.74-6.84-3.4,0-3.4,3.63a3.36,3.36,0,0,0,1,2.63,48.3,48.3,0,0,0,6,4,90,90,0,0,1,9.14,6.21,13.59,13.59,0,0,1,2.38,2.69,19.27,19.27,0,0,1,2,3.57A21.35,21.35,0,0,1,1084.79,263.5Z"/><path class="cls-2" d="M303.73,233.51a2,2,0,0,0,1.89-2l-.57-25.11a2,2,0,0,0-1.76-1.94L282,201.81c.23-15.2.16-42.05.1-57.35-1.33,0-2.66.08-4,.14.06,15.92.13,44.22-.13,58.94a2,2,0,0,0,1.76,2l21.34,2.62.48,21.44-22.63,1.25a2,2,0,0,0-1.89,2V247.7a2,2,0,0,0,.63,1.45,2,2,0,0,0,1.15.54l22.11,2.44-1.12,19.14-21.26,1.84a2,2,0,0,0-1.82,1.84l-1,12.14c0,.12,0,.22,0,.33l-9.07-.26-2.87-141.3a264.54,264.54,0,0,0-44.48,10l1.87,3.2a.52.52,0,0,1-.05.57c-4.27,5.19-15.95,14.21-27,22.24a30.31,30.31,0,0,1,9.51-1.55c22,0,40,24.38,40,54.36s-17.93,54.36-40,54.36c-11.75,0-22.76-6.92-30.37-19L168.12,274a1,1,0,0,1-1.42-.22,60,60,0,0,1-8-15.73l-2.05.85a3.06,3.06,0,0,1-2.56-.13,3,3,0,0,1-1.53-2l-1.42-7a3,3,0,0,1,2.42-3.55l2.36-.42q-.36-2.87-.49-5.67h-1.63a3,3,0,0,1-3-3v-7.82a3,3,0,0,1,3-3,2.76,2.76,0,0,1,.57.06l1.62.31c.15-1.22.32-2.4.51-3.56l-2-.75a3,3,0,0,1-1.87-3.55l1.92-7.56a3,3,0,0,1,2.9-2.27,3,3,0,0,1,1.35.32l1,.49a67.71,67.71,0,0,1,3.14-8.2,1,1,0,0,1,.65-.53,1,1,0,0,1,.82.16l5.72,4a52.78,52.78,0,0,1,7.37-11.59c-3.85,2.64-6.47,4.39-6.88,4.67a.54.54,0,0,1-.28.08.49.49,0,0,1-.4-.21l-7.1-9.78a.51.51,0,0,1,0-.52.5.5,0,0,1,.45-.27h4.52c4.27-.25,13.07-10.18,21.43-21-32,12.76-59.69,27.82-74.67,36-3.67,2-6.57,3.57-8.68,4.65a35.35,35.35,0,0,0-5.42,3.34,16.72,16.72,0,0,0-3.48,3.45q.16,2.81.37,5.94A143.47,143.47,0,0,1,135.14,231a.51.51,0,0,1,.27.65s-3.39,8.23-3.51,8.28a.43.43,0,0,1-.19,0c-.07,0-15.2-6.12-32.17-4.08l.67,20.88h0c4.69,48.51,14.3,115.44,33.63,165.36,3.49.79,14.93,2.91,34.71,2.4h.5l.5,0c3.09-.09,6.4-.25,9.88-.49-1-5.08,4.22-18.19,5.82-12.35a17.29,17.29,0,0,0,8.82,11c3.76-.43,7.68-.94,11.79-1.56h0q6.76-1.31,13.88-3c8.11-1.88,17.87-3.92,28.2-5.6h0q11-2.77,23.05-6.37c.67-9.26,3.94-54,6.52-89.08,0-.19,0-.38,0-.57s0-.34,0-.51c.81-11,1.54-20.92,2.1-28.45h0s0-.08,0-.13l.84-10.46,21.3-1.84a2,2,0,0,0,1.82-1.88L305,250.46a2,2,0,0,0-1.77-2.1l-22.22-2.45V234.76ZM139,274.88c-3,7.82-8.88,12.68-15.36,12.68-9.58,0-17.38-10.66-17.38-23.77S114.09,240,123.67,240c7.69,0,14.36,6.74,16.61,16.77,0,0,0,0,0,.07a31.85,31.85,0,0,1,.75,6.93A30.84,30.84,0,0,1,139,274.88Zm80.6,97.92-35.71,5.47-.81.13-.66.1-32,4.91h-.07a.49.49,0,0,1-.46-.3,25.23,25.23,0,0,1-2-9.57.51.51,0,0,1,.45-.48l41.3-4.22.73-.08.88-.09,28.2-2.88a.47.47,0,0,1,.38.12.5.5,0,0,1,.17.37l0,6A.47.47,0,0,1,219.63,372.8Z"/><path class="cls-2" d="M205.1,190.26c-17.42,0-31.54,20-31.54,44.59s14.12,44.58,31.54,44.58,31.55-20,31.55-44.58S222.52,190.26,205.1,190.26Zm0,86.17c-15.73,0-28.54-18.65-28.54-41.58s12.81-41.59,28.54-41.59,28.55,18.66,28.55,41.59S220.84,276.43,205.1,276.43Z"/><path class="cls-2" d="M302.09,366.09l-.11,0h-.07l-11.38,2.52-6.78-32.22-.07-.33,9.05-13.83.15.71Z"/><path class="cls-2" d="M312.56,411.85A76,76,0,0,0,299,409.42l-.23,0h0l-1.39-.12-7.15-31.57h0l-.75-3.28v0l-.09-.38,2-.46L303,371l1-.22.33,1.6.53,2.53h0Z"/><path d="M289.47,374.4v0l0-.05Z"/><path class="cls-2" d="M292.72,547.06a284.75,284.75,0,0,0-29.4,16.9L259,562.87c-12.44-3.15-15.6-17.14-19.25-33.33-1-4.41-2-9-3.29-13.45-2.63-9.38-6.17-14.69-9.62-17.63,6.6-6.06,10.65-15,14.93-24.44,10.4-22.89,22.18-48.84,74.41-48.84,1.19,0,2.4,0,3.6,0l5.11.11a10.92,10.92,0,0,1,3.42,3.15C337.17,444.74,376.12,505.18,292.72,547.06Z"/><path d="M314.84,415.19h-.14a.11.11,0,0,1,0-.05Z"/><polygon class="cls-2" points="204.12 488.16 167.37 482.5 140.95 508.57 147.4 475.88 134.05 468 153.43 457.18 160.62 441.8 172 448.96 196.47 440.75 184.48 461 204.12 488.16"/><path class="cls-3" d="M138.82,257.17a11.68,11.68,0,0,0-.9-1.5c-1.75-2.57-4.17-4.07-6.73-4.07-5.15,0-9.35,5.91-9.35,13.18S126,278,131.19,278a7.64,7.64,0,0,0,5.43-2.48,12.28,12.28,0,0,0,1-1.2,29.54,29.54,0,0,0,1.88-10.49A30.31,30.31,0,0,0,138.82,257.17Z"/><path class="cls-3" d="M212.75,208.5c-10.18,0-18.45,12.67-18.45,28.23S202.57,265,212.75,265s18.44-12.67,18.44-28.24S222.92,208.5,212.75,208.5Z"/><polygon class="cls-2" points="170.87 218.75 169.52 224.74 158.93 220.83 157.92 220.46 157.04 220.14 155.49 219.57 157.4 212 158.84 212.72 159.71 213.16 160.66 213.63 170.87 218.75"/><path class="cls-3" d="M255.24,569.56c-.82.59-1.63,1.19-2.43,1.79-44.07,32.86-47.47,61.52-69.15,66-26.56,5.45-17.19,25.16-16.94,25.68-19.26-16.4-7.47-26.47-11.5-44.57-2.74-12.3-14.08-28.7-26.62-44.26l.76-4.2c.08-.42,8-42.36,36.55-57.3,10-5.25,16.73-5.86,20.89-5.86a62.93,62.93,0,0,1,9,.81,61.58,61.58,0,0,0,8.52.78A27.83,27.83,0,0,0,217.84,505l.13-.07.05,0,.41-.22c.77-.43,1.54-.9,2.32-1.42h0c2.48,1.42,5.8,5.18,8.52,14.88,1.21,4.29,2.22,8.75,3.19,13.07C236.33,548.31,240,564.52,255.24,569.56Z"/><polygon class="cls-2" points="168.81 232.25 168.46 237.14 153.79 237.14 153.79 229.32 155.66 229.68 156.57 229.86 157.62 230.07 168.81 232.25"/><polygon class="cls-2" points="170.4 249.97 159.68 254.4 158.7 254.81 157.8 255.18 155.49 256.13 154.07 249.18 156.36 248.78 157.29 248.62 158.33 248.44 169.5 246.48 170.4 249.97"/><path class="cls-2" d="M213.19,229.94c0,5.06-2.75,9.17-6.13,9.17s-6.13-4.11-6.13-9.17,2.75-9.17,6.13-9.17S213.19,224.88,213.19,229.94Z"/><path class="cls-2" d="M130.55,260.2c0,2.85-1.57,5.08-3.57,5.08s-3.58-2.23-3.58-5.08,1.57-5.08,3.58-5.08S130.55,257.35,130.55,260.2Z"/><path class="cls-2" d="M332,193.69c.91-46.18-12.7-49.42-12.7-49.42a113.72,113.72,0,0,0-34.24-4.84c-1,0-2,0-3,0-1.32,0-2.66.06-4,.12q-6.62.3-13.34,1.12l-1,.13a270.27,270.27,0,0,0-47,10.65l-.49.15-.49.16c-6.49,2.06-12.92,4.29-19.21,6.65l-.87.33-.86.32c-43.27,16.39-80,38-91.34,43.76a38.17,38.17,0,0,0-7,4.49,22.24,22.24,0,0,0-2.41,2.28,16.4,16.4,0,0,0-2.3,3.22,11.31,11.31,0,0,0-1.35,6.5l.06.48.09.53a13.76,13.76,0,0,0,2,4.78,11.33,11.33,0,0,0,1.33,1.72l1.71,25h-.89l-3,0c-31.63,0-46.87-8.68-73.4-22.56-27.6-14.44,22.6-59.62,22.6-59.62-1.93,5.59,2.21,19,17.2,19,5.46,0,12.36-1.78,20.93-6.35.77-.41,1.56-.85,2.36-1.31s1.43-.83,2.16-1.27l0,0c2.1-1.28,4.27-2.69,6.55-4.28q2.07-1.46,3.92-2.9c36.47-28.24,11.26-51.25,11.26-51.25S126.48,87,192,82.16c40.34-3,41.31-13.39,65.91-21.89,2.41-.83,5.05-1.64,8-2.42,1.6-.43,3.29-.86,5.07-1.27,6-1.39,13.11-2.68,21.67-3.79h0c31.54,0,60.43,7.88,80.31,28.79C443.78,156.11,332,193.69,332,193.69Z"/><path d="M314.69,415.14l.15.05h-.14A.11.11,0,0,1,314.69,415.14Z"/><path class="cls-2" d="M430,391.55v25.27H364.27V391.55H379.9V341.89A49,49,0,0,1,368.21,343a26.83,26.83,0,0,1-3.94-.24V318.45c.62.05,1.28.07,2,.07a45.83,45.83,0,0,0,19.19-4q9-4.11,12.87-9.71h16.49v86.76Z"/><path class="cls-2" d="M533.23,380.66V361.15H521.94V304.79H488l-51.32,53,6.16,22.9H489.1v13.89H475.83v22.27h57.4V394.55H521.94V380.66ZM489.1,361.15H459.41l29.69-30Z"/><path class="cls-2" d="M640.59,367.86A27.11,27.11,0,0,0,626.23,359Q643,352,643,335.42q0-13.59-11.76-22.11t-33.47-8.52q-20.91,0-32.6,8.68t-11.62,22.82a21.66,21.66,0,0,0,5,14.37,27.39,27.39,0,0,0,12,8.36q-20,7.43-20,26.13,0,14.14,11.53,23.37t35.77,9.31q24.95,0,36.63-9t11.76-24.08C646.28,378,644.39,372.34,640.59,367.86ZM589.36,328.7a13.15,13.15,0,0,1,9.31-3.39,12.43,12.43,0,0,1,9.09,3.32,12,12,0,0,1,3.31,8.76c0,4.16-1.21,7.18-3.63,9.09a13.75,13.75,0,0,1-8.84,2.91q-6.55,0-9.71-3.4a11.43,11.43,0,0,1-3.32-8.44A11.32,11.32,0,0,1,589.36,328.7Zm20,64.51q-3.87,3.85-10.66,3.86a15.55,15.55,0,0,1-10.73-3.71q-4.19-3.71-4.18-10.42a14,14,0,0,1,4-9.95q3.94-4.26,11.06-4.25,6.63,0,10.49,3.78t3.79,10.27A14.42,14.42,0,0,1,609.33,393.21Z"/><path class="cls-2" d="M293.28,227.52c3.59,0,6.5-3.91,6.5-8.72s-2.91-8.72-6.5-8.72-6.5,3.9-6.5,8.72S289.69,227.52,293.28,227.52ZM294.84,215l2.42,0,1.23,3.82-1.19,3.84h-2.41l-1.23-3.82Z"/><path class="cls-2" d="M291.25,252.87c-3.59,0-6.51,3.91-6.51,8.72s2.92,8.72,6.51,8.72,6.5-3.9,6.5-8.72S294.84,252.87,291.25,252.87Zm3.64,12.61h-2.41l-1.24-3.82,1.19-3.84h2.41l1.23,3.82Z"/><path class="cls-2" d="M184.29,13.84A50.71,50.71,0,0,0,166,10c-17,0-26.44,11.75-34,21.69-4.62,6.08-6.29,7.3-7.84,7.3-1.05,0-2.05-.56-3.87-.56a14.75,14.75,0,0,0-5.3,1.2c-10.77,4.2-11.9,19.84-11.9,19.84C93.34,131.93,88,161.11,85.41,172.59c.61-.41,1.22-.82,1.86-1.27,13.59-9.53,20.82-19.23,21.49-28.83C109.48,132.14,102,125,102,125l-3.06-2.79,2.17-3.53c.92-1.49,23.28-36.53,90.56-41.48,25.56-1.88,34.35-6.73,44.53-12.34A113.6,113.6,0,0,1,264.4,53.07C246.78,41.5,212.48,24.75,184.29,13.84ZM223,42.78a117.88,117.88,0,0,1-13.6.86c-12.76,0-22.22-2.67-28.19-8S175.11,24.28,175.11,24a2.5,2.5,0,0,1,5,0c0,.22.18,4.27,4.53,8,4.71,4.1,15.09,8.43,37.74,5.77a2.5,2.5,0,0,1,.58,5Z"/></g></g></svg>