<svg xmlns="http://www.w3.org/2000/svg" viewBox="0 0 1087.79 677.61"><defs><style>.cls-1{fill:#fff;}.cls-2{fill:#d7282f;}</style></defs><g id="Layer_2" data-name="Layer 2"><g id="Layer_5" data-name="Layer 5"><path d="M174.55,676.11a22.79,22.79,0,0,1-16.18-6.22C145.12,657.19,146.07,648,147,639c.07-.75.15-1.5.22-2.26.4-4.37.76-8.42-.23-12.84-2.06-9.3-11.62-24.27-28.4-44.51-3.92-4.72-8.31-9.84-13.42-15.66-8.41-9.59-12.5-17.83-12.9-25.93s3.07-13.91,5.59-18.07a32.73,32.73,0,0,0,1.78-3.13,15.78,15.78,0,0,0,.36-3.75c.28-9.28,1.77-19.49,16.34-33.21,5.46-5.15,5.83-7.2,6.49-10.91,1.5-8.44,4-16.39,19-28.52l.05,0a74.63,74.63,0,0,1-10.07-1.94l-5.41-1.59-2.06-5.25C104.43,380.87,94.55,314,89.73,266.32c-29.95-.85-46.19-9.35-70.58-22.14L16,242.51C5.54,237.05,2.46,228.83,1.72,222.9c-1.43-11.24,4.13-24.38,17-40.18l.26-.31A113.57,113.57,0,0,1,49.73,156.2L53.52,154,55,175.63v.06a4.79,4.79,0,0,0,1.2,2.78c1,1.14,2.63,1.69,4.94,1.69,2.85,0,7.86-.89,15.63-5,2-8.33,7.36-35.3,17.9-113.91.33-3.72,2.83-22.91,19.15-29.28a26,26,0,0,1,9.49-2l.8,0c.56-.7,1.14-1.43,1.74-2.23,7.46-9.81,20-26.24,43.17-26.24a62.69,62.69,0,0,1,22.47,4.61c28.4,11,62.28,27.52,80.86,39.42a229.78,229.78,0,0,1,23.31-1.24c38.39,0,68.21,10.89,88.63,32.36,19.7,20.72,28.58,41.34,26.38,61.26-2.13,19.31-14.92,37.33-37,52.12a166.18,166.18,0,0,1-27.27,14.59L345,273.42a38.31,38.31,0,0,1-1.74,15.63c-2.32,7.38-7.95,18.32-21.6,28.76-1.24,7.52-3.8,34.33,7.35,95.64A32.65,32.65,0,0,1,341.45,426c.4.71.84,1.53,1.35,2.42,7.09,12.72,23.68,42.46,13.73,74.87-7,22.84-25.75,42-55.65,57.05a264.37,264.37,0,0,0-33.45,19.79c-24,16.89-36,32.54-45.68,45.12S203.94,648.51,189,651.59c-5.73,1.17-8.52,3.06-9.22,4.44l-.13.26a8.48,8.48,0,0,0-1,4.24c-.08,3.44,2.81,10.31,3.93,12.67l.81,1.69-1.84.41A31.44,31.44,0,0,1,174.55,676.11Z"/><path class="cls-1" d="M169,3A61.23,61.23,0,0,1,190.9,7.51c28.86,11.17,62.69,27.73,81,39.57a227,227,0,0,1,23.67-1.29c38,0,67.42,10.73,87.55,31.89,19.38,20.39,28.12,40.6,26,60.07-2.08,18.85-14.65,36.5-36.33,51a165.17,165.17,0,0,1-27.92,14.83l-1.37,69.88a36.6,36.6,0,0,1-1.67,15.11c-2.31,7.36-7.92,18.11-21.54,28.37-1.37,7.62-4.13,34.46,7.38,97.44l.26.14a31.33,31.33,0,0,1,12.2,12.16c.4.73.85,1.55,1.36,2.45,7,12.53,23.37,41.88,13.6,73.69-6.9,22.43-25.36,41.32-54.89,56.15a265.72,265.72,0,0,0-33.64,19.9c-24.23,17-36.31,32.8-46,45.46-9.37,12.24-17.47,22.8-31.88,25.76-5.38,1.1-9.12,3-10.25,5.23a10,10,0,0,0-1.32,5.14c-.11,4.56,4.07,13.35,4.07,13.35a30.22,30.22,0,0,1-6.62.77,21.34,21.34,0,0,1-15.14-5.8c-13.83-13.26-11.56-22.39-10.69-31.9.4-4.43.79-8.62-.26-13.31-2.12-9.54-11.78-24.72-28.71-45.14-4.91-5.91-9.76-11.49-13.45-15.69-8.17-9.32-12.15-17.27-12.53-25s3-13.22,5.38-17.22a34.58,34.58,0,0,0,1.86-3.29,13.58,13.58,0,0,0,.49-4.32c.27-9,1.72-18.84,15.87-32.17,5.84-5.5,6.25-7.85,6.95-11.76,1.44-8.11,3.82-15.79,18.41-27.59q1.43-1.16,2.91-2.25a82.92,82.92,0,0,1-13.46-2.33l-4.7-1.38-1.79-4.57C106,380.77,96.06,314.59,91.1,264.85c-30.47-.62-46.89-9.23-71.28-22l-3.16-1.66C6.82,236,3.91,228.3,3.21,222.71c-1.37-10.81,4.08-23.58,16.65-39l.25-.31a112.76,112.76,0,0,1,30.38-25.87l1.7-1,1.26,19.18a6.29,6.29,0,0,0,1.58,3.8c1.32,1.47,3.3,2.19,6.06,2.19,3.22,0,8.66-1,16.94-5.55,1.9-7.86,7.29-34.21,18.08-114.71.31-3.48,2.68-22,18.21-28.08a24.58,24.58,0,0,1,8.94-1.87c.52,0,1,0,1.48.06.56-.68,1.3-1.6,2.26-2.86C134.3,19.05,146.51,3,169,3m0-3c-24,0-36.73,16.8-44.36,26.83-.44.57-.85,1.11-1.26,1.62h-.09a27.6,27.6,0,0,0-10,2.07C96.18,37.18,93.5,57,93.12,61.07c-10.26,76.55-15.63,104-17.7,113-7.16,3.75-11.72,4.56-14.33,4.56-2.76,0-3.57-.9-3.83-1.19a3.59,3.59,0,0,1-.82-1.8v-.2l-1.26-19.18-.32-4.85-4.2,2.46-1.7,1a115.55,115.55,0,0,0-31.18,26.56l-.27.34C4.41,197.91-1.25,211.42.23,223.09c.79,6.28,4,15,15,20.75l3.16,1.66c24.25,12.7,40.49,21.21,70,22.27,4.87,47.69,14.78,114,34.51,164.21l1.79,4.56.54,1.37,1.41.42,4.7,1.38a62.76,62.76,0,0,0,7,1.48c-13.13,11.31-15.53,19.37-16.94,27.29-.65,3.64-1,5.29-6,10.1-15,14.11-16.54,25.08-16.81,34.26a19.69,19.69,0,0,1-.25,3.21c-.38.82-1.09,2-1.66,2.92-2.49,4.09-6.24,10.26-5.82,18.93.41,8.46,4.63,17,13.27,26.85,5.12,5.82,9.5,10.93,13.4,15.63,16.62,20,26.07,34.81,28.09,43.87.94,4.2.6,8,.21,12.29v.1c-.07.75-.15,1.49-.23,2.24-.91,8.85-1.95,18.88,11.83,32.1a24.31,24.31,0,0,0,17.22,6.63,33.2,33.2,0,0,0,7.27-.84l3.67-.83-1.61-3.39c-1.5-3.15-3.85-9.2-3.79-12a7.1,7.1,0,0,1,.85-3.57c.06-.1.11-.2.15-.28.39-.76,2.6-2.51,8.18-3.65,15.53-3.19,24.33-14.7,33.66-26.88,9.6-12.51,21.52-28.06,45.36-44.83a264.45,264.45,0,0,1,33.26-19.67c30.28-15.21,49.26-34.7,56.41-57.95,10.15-33-6.66-63.16-13.84-76-.52-.92-1-1.72-1.35-2.44a34,34,0,0,0-12.39-12.76c-10.7-59.14-8.57-85.73-7.32-93.88,13.62-10.56,19.28-21.63,21.64-29.13a40,40,0,0,0,1.81-16.15l1.33-67.73a167.1,167.1,0,0,0,26.62-14.35c22.45-15,35.47-33.43,37.65-53.19,2.25-20.39-6.76-41.4-26.78-62.47-20.72-21.78-50.91-32.82-89.72-32.82A227.84,227.84,0,0,0,272.67,44C253.92,32.06,220.24,15.65,192,4.71A64.37,64.37,0,0,0,169,0Z"/><path class="cls-1" d="M416.94,269.34l-6.41-13.26a12.38,12.38,0,0,0,4.9-5.33,19,19,0,0,0-1.2-18.6,13.68,13.68,0,0,0-7.9-5.62,29.49,29.49,0,0,0-3.8-.73c-1.38-.18-3-.32-5-.42s-4-.15-6.3-.15H366v13.88h3.77v30.23H366v13.88h25.22V269.34h-3.51v-9.8h5.71l10.1,23.68h16.71V269.34ZM397.63,247a4.11,4.11,0,0,1-2.54,1.66,30.83,30.83,0,0,1-5.33.29h-2V238h1.64a36,36,0,0,1,5.6.29,4.12,4.12,0,0,1,2.64,1.67,5.68,5.68,0,0,1,1,3.58A5.55,5.55,0,0,1,397.63,247Z"/><path class="cls-1" d="M473,243a33.28,33.28,0,0,0-5.13-9.75q-6.84-9.13-19.31-9.13a27.59,27.59,0,0,0-5.47.52,23.58,23.58,0,0,0-4.82,1.48,20.22,20.22,0,0,0-4.32,2.58,27.82,27.82,0,0,0-8.7,11.38,36.18,36.18,0,0,0-2.84,14.05q0,13.26,7.27,21.64t18.88,8.42q12,0,19.11-9a33,33,0,0,0,7.07-21.09A35.15,35.15,0,0,0,473,243Zm-19.91,24.3q-1.5,3.3-4.53,3.3t-4.5-3.42q-1.5-3.37-1.5-13,0-9.84,1.5-13.13c1-2.2,2.5-3.29,4.5-3.29s3.61,1.14,4.57,3.41,1.47,6.65,1.47,13Q454.57,263.92,453.06,267.25Z"/><path class="cls-1" d="M528.27,257.92a15.35,15.35,0,0,0-7.54-5.67,13.06,13.06,0,0,0,6.07-4.17,11.83,11.83,0,0,0,2.44-7.84,15.42,15.42,0,0,0-2.57-8.84,12.37,12.37,0,0,0-7.07-5,53.5,53.5,0,0,0-12.91-1.21H478.35v13.88h4v30.23h-4v13.88h26.24q9.95,0,15.11-1.29a13.94,13.94,0,0,0,8.24-5.3,16.29,16.29,0,0,0,3-9.92A15.24,15.24,0,0,0,528.27,257.92Zm-27.95-20h3.34q4.93,0,6,1.62a6.44,6.44,0,0,1,1.1,3.67,5.86,5.86,0,0,1-1.2,3.84q-1.28,1.46-5.31,1.46h-4Zm9.61,31.31q-1.69,1.25-5.57,1.25h-4V259.08h4q4.31,0,5.81,1.38a5.75,5.75,0,0,1,1.5,4.38Q511.6,268,509.93,269.26Z"/><path class="cls-1" d="M584.94,243a33.55,33.55,0,0,0-5.14-9.75q-6.84-9.13-19.31-9.13a27.59,27.59,0,0,0-5.47.52,23.58,23.58,0,0,0-4.82,1.48,20.22,20.22,0,0,0-4.32,2.58,27.9,27.9,0,0,0-8.7,11.38,36.18,36.18,0,0,0-2.84,14.05q0,13.26,7.27,21.64t18.88,8.42q12,0,19.11-9a33,33,0,0,0,7.07-21.09A35.43,35.43,0,0,0,584.94,243ZM565,267.25c-1,2.2-2.52,3.3-4.54,3.3s-3.55-1.14-4.5-3.42-1.5-6.6-1.5-13S555,243.14,556,241s2.5-3.29,4.5-3.29,3.61,1.14,4.57,3.41,1.47,6.65,1.47,13Q566.53,263.92,565,267.25Z"/><polygon class="cls-1" points="662.47 225.23 662.47 239.11 659.27 239.11 646.07 283.72 631.65 283.72 625.38 261.38 619.09 283.72 604.48 283.72 591.4 239.11 588.2 239.11 588.2 225.23 612.25 225.23 612.25 239.11 608.78 239.11 614.25 264.09 621.18 239.11 617.75 239.11 617.75 225.23 637.96 225.23 637.96 239.11 634.53 239.11 641.56 264.09 647.1 239.11 643.77 239.11 643.77 225.23 662.47 225.23"/><path class="cls-1" d="M718.3,269.34l-6.4-13.26a12.44,12.44,0,0,0,4.9-5.33,19,19,0,0,0-1.2-18.6,13.71,13.71,0,0,0-7.9-5.62,29.66,29.66,0,0,0-3.81-.73c-1.37-.18-3-.32-5-.42s-4-.15-6.3-.15H667.41v13.88h3.77v30.23h-3.77v13.88h25.21V269.34h-3.5v-9.8h5.7l10.11,23.68h16.71V269.34ZM699,247a4.09,4.09,0,0,1-2.53,1.66,31.05,31.05,0,0,1-5.34.29h-2V238h1.63a36.13,36.13,0,0,1,5.61.29,4.12,4.12,0,0,1,2.63,1.67,5.69,5.69,0,0,1,1,3.58A5.56,5.56,0,0,1,699,247Z"/><path class="cls-1" d="M773.23,269.34l-8.87-30.23h3.73V225.23H734.74v13.88h3.74l-8.71,30.23h-3.53v13.88h18.37V270.51h-3.8l2-7.3h11.88l1.76,7.3h-4.07v12.71h24.22V269.34ZM744.61,256,749,240,752.91,256Z"/><polygon class="cls-1" points="834.76 225.23 834.76 239.11 830.72 239.11 830.72 283.97 815.45 283.97 795.89 248.91 795.89 269.34 800 269.34 800 283.22 780.96 283.22 780.96 269.34 785.03 269.34 785.03 239.11 780.96 239.11 780.96 225.23 802.93 225.23 819.81 255.54 819.81 239.11 816.05 239.11 816.05 225.23 834.76 225.23"/><path class="cls-1" d="M888.49,252.25a68.46,68.46,0,0,1-1.07,14.13,25.44,25.44,0,0,1-4.34,9,19.41,19.41,0,0,1-7.83,6.63,23.66,23.66,0,0,1-9.88,2.09,31.11,31.11,0,0,1-14.24-3.25,21.55,21.55,0,0,1-9.93-10.51,36.22,36.22,0,0,1-3.54-16.17q0-13.56,7.14-21.85t17.34-8.29q8.57,0,13.44,5.21v-4.05h11.17v20.26H875.58a13.45,13.45,0,0,0-3.82-5.67,8.47,8.47,0,0,0-5.48-1.91,6.92,6.92,0,0,0-6.47,3.58q-2,3.58-2,13.17t2.14,13a7,7,0,0,0,6.3,3.46q6.27,0,6.27-7.84h-4.74v-11Z"/><polygon class="cls-1" points="938.58 260.04 938.58 283.22 894.41 283.22 894.41 269.34 898.59 269.34 898.59 239.11 894.41 239.11 894.41 225.23 920.93 225.23 920.93 239.11 916.53 239.11 916.53 269.34 927.51 269.34 927.51 260.04 938.58 260.04"/><polygon class="cls-1" points="974.86 243.78 974.86 239.11 964.32 239.11 964.32 248.04 973.5 248.04 973.5 259.83 964.32 259.83 964.32 269.34 974.86 269.34 974.86 264.67 987.04 264.67 987.04 283.22 942.78 283.22 942.78 269.34 946.38 269.34 946.38 239.11 942.71 239.11 942.71 225.23 987.04 225.23 987.04 243.78 974.86 243.78"/><path class="cls-1" d="M1043.43,269.34l-6.4-13.26a12.44,12.44,0,0,0,4.9-5.33,19,19,0,0,0-1.2-18.6,13.71,13.71,0,0,0-7.9-5.62,29.66,29.66,0,0,0-3.81-.73c-1.37-.18-3-.32-5-.42s-4-.15-6.3-.15H992.54v13.88h3.77v30.23h-3.77v13.88h25.21V269.34h-3.5v-9.8h5.7l10.11,23.68h16.71V269.34ZM1024.12,247a4.09,4.09,0,0,1-2.53,1.66,31.05,31.05,0,0,1-5.34.29h-2V238h1.63a36.13,36.13,0,0,1,5.61.29,4.12,4.12,0,0,1,2.63,1.67,5.69,5.69,0,0,1,1,3.58A5.56,5.56,0,0,1,1024.12,247Z"/><path class="cls-1" d="M1087.79,266.5a18.27,18.27,0,0,1-4.34,12.34,13.72,13.72,0,0,1-10.94,5.13,16,16,0,0,1-11.1-4.54v3.79H1051V264.63h10.44q1.86,7.59,7,7.58,3.74,0,3.74-3.75a4.39,4.39,0,0,0-1.3-3.25,30,30,0,0,0-5.9-3.92,52.53,52.53,0,0,1-8.34-5.54,17.2,17.2,0,0,1-4.27-5.88,18.81,18.81,0,0,1-1.77-8.21q0-8.08,4.2-12.63a13.41,13.41,0,0,1,10.28-4.55,13.9,13.9,0,0,1,10.33,4.34v-3.59h10.51v16.51h-10.37q-1.9-6.84-6.74-6.84-3.4,0-3.4,3.63a3.36,3.36,0,0,0,1,2.63,48.3,48.3,0,0,0,6,4,90,90,0,0,1,9.14,6.21,13.59,13.59,0,0,1,2.38,2.69,19.27,19.27,0,0,1,2,3.57A21.35,21.35,0,0,1,1087.79,266.5Z"/><path class="cls-1" d="M306.73,236.51a2,2,0,0,0,1.89-2l-.57-25.11a2,2,0,0,0-1.76-1.94L285,204.81c.23-15.2.16-42.05.1-57.35-1.33,0-2.66.08-4,.14.06,15.92.13,44.22-.13,58.94a2,2,0,0,0,1.76,2l21.34,2.62.48,21.44-22.63,1.25a2,2,0,0,0-1.89,2V250.7a2,2,0,0,0,.63,1.45,2,2,0,0,0,1.15.54l22.11,2.44-1.12,19.14-21.26,1.84a2,2,0,0,0-1.82,1.84l-1,12.14c0,.12,0,.22,0,.33l-9.07-.26-2.87-141.3a264.54,264.54,0,0,0-44.48,10l1.87,3.2a.52.52,0,0,1-.05.57c-4.27,5.19-15.95,14.21-27,22.24a30.31,30.31,0,0,1,9.51-1.55c22,0,40,24.38,40,54.36s-17.93,54.36-40,54.36c-11.75,0-22.76-6.92-30.37-19L171.12,277a1,1,0,0,1-1.42-.22,60,60,0,0,1-8-15.73l-2.05.85a3.06,3.06,0,0,1-2.56-.13,3,3,0,0,1-1.53-2l-1.42-7a3,3,0,0,1,2.42-3.55l2.36-.42q-.36-2.87-.49-5.67h-1.63a3,3,0,0,1-3-3v-7.82a3,3,0,0,1,3-3,2.76,2.76,0,0,1,.57.06l1.62.31c.15-1.22.32-2.4.51-3.56l-2-.75a3,3,0,0,1-1.87-3.55l1.92-7.56a3,3,0,0,1,2.9-2.27,3,3,0,0,1,1.35.32l1,.49a67.71,67.71,0,0,1,3.14-8.2,1,1,0,0,1,.65-.53,1,1,0,0,1,.82.16l5.72,4a52.78,52.78,0,0,1,7.37-11.59c-3.85,2.64-6.47,4.39-6.88,4.67a.54.54,0,0,1-.28.08.49.49,0,0,1-.4-.21l-7.1-9.78a.51.51,0,0,1,0-.52.5.5,0,0,1,.45-.27h4.52c4.27-.25,13.07-10.18,21.43-21-32,12.76-59.69,27.82-74.67,36-3.67,2-6.57,3.57-8.68,4.65a35.35,35.35,0,0,0-5.42,3.34,16.72,16.72,0,0,0-3.48,3.45q.16,2.81.37,5.94A143.47,143.47,0,0,1,138.14,234a.51.51,0,0,1,.27.65s-3.39,8.23-3.51,8.28a.43.43,0,0,1-.19,0c-.07,0-15.2-6.12-32.17-4.08l.67,20.88h0c4.69,48.51,14.3,115.44,33.63,165.36,3.49.79,14.93,2.91,34.71,2.4h.5l.5,0c3.09-.09,6.4-.25,9.88-.49-1-5.08,4.22-18.19,5.82-12.35a17.29,17.29,0,0,0,8.82,11c3.76-.43,7.68-.94,11.79-1.56h0q6.76-1.31,13.88-3c8.11-1.88,17.87-3.92,28.2-5.6h0q11-2.77,23.05-6.37c.67-9.26,3.94-54,6.52-89.08,0-.19,0-.38,0-.57s0-.34,0-.51c.81-11,1.54-20.92,2.1-28.45h0s0-.08,0-.13l.84-10.46,21.3-1.84a2,2,0,0,0,1.82-1.88L308,253.46a2,2,0,0,0-1.77-2.1l-22.22-2.45V237.76ZM142,277.88c-3,7.82-8.88,12.68-15.36,12.68-9.58,0-17.38-10.66-17.38-23.77S117.09,243,126.67,243c7.69,0,14.36,6.74,16.61,16.77,0,0,0,0,0,.07a31.85,31.85,0,0,1,.75,6.93A30.84,30.84,0,0,1,142,277.88Zm80.6,97.92-35.71,5.47-.81.13-.66.1-32,4.91h-.07a.49.49,0,0,1-.46-.3,25.23,25.23,0,0,1-2-9.57.51.51,0,0,1,.45-.48l41.3-4.22.73-.08.88-.09,28.2-2.88a.47.47,0,0,1,.38.12.5.5,0,0,1,.17.37l0,6A.47.47,0,0,1,222.63,375.8Z"/><path class="cls-1" d="M208.1,193.26c-17.42,0-31.54,20-31.54,44.59s14.12,44.58,31.54,44.58,31.55-20,31.55-44.58S225.52,193.26,208.1,193.26Zm0,86.17c-15.73,0-28.54-18.65-28.54-41.58s12.81-41.59,28.54-41.59,28.55,18.66,28.55,41.59S223.84,279.43,208.1,279.43Z"/><path class="cls-1" d="M305.09,369.09l-.11,0h-.07l-11.38,2.52-6.78-32.22-.07-.33,9.05-13.83.15.71Z"/><path class="cls-1" d="M315.56,414.85A76,76,0,0,0,302,412.42l-.23,0h0l-1.39-.12-7.15-31.57h0l-.75-3.28v0l-.09-.38,2-.46L306,374l1-.22.33,1.6.53,2.53h0Z"/><path d="M292.47,377.4v0l0-.05Z"/><path class="cls-1" d="M295.72,550.06a284.75,284.75,0,0,0-29.4,16.9L262,565.87c-12.44-3.15-15.6-17.14-19.25-33.33-1-4.41-2-9-3.29-13.45-2.63-9.38-6.17-14.69-9.62-17.63,6.6-6.06,10.65-15,14.93-24.44,10.4-22.89,22.18-48.84,74.41-48.84,1.19,0,2.4,0,3.6,0l5.11.11a10.92,10.92,0,0,1,3.42,3.15C340.17,447.74,379.12,508.18,295.72,550.06Z"/><path d="M317.84,418.19h-.14a.11.11,0,0,1,0-.05Z"/><polygon class="cls-1" points="207.12 491.16 170.37 485.5 143.94 511.57 150.4 478.88 137.05 471 156.43 460.18 163.62 444.8 175 451.96 199.47 443.75 187.47 464 207.12 491.16"/><path class="cls-2" d="M141.82,260.17a11.68,11.68,0,0,0-.9-1.5c-1.75-2.57-4.17-4.07-6.73-4.07-5.15,0-9.35,5.91-9.35,13.18S129,281,134.19,281a7.64,7.64,0,0,0,5.43-2.48,12.28,12.28,0,0,0,1-1.2,29.54,29.54,0,0,0,1.88-10.49A30.31,30.31,0,0,0,141.82,260.17Z"/><path class="cls-2" d="M215.75,211.5c-10.18,0-18.45,12.67-18.45,28.23S205.57,268,215.75,268s18.44-12.67,18.44-28.24S225.92,211.5,215.75,211.5Z"/><polygon class="cls-1" points="173.87 221.75 172.52 227.74 161.93 223.83 160.91 223.46 160.04 223.14 158.49 222.57 160.4 215 161.84 215.72 162.71 216.16 163.66 216.63 173.87 221.75"/><path class="cls-2" d="M258.24,572.56c-.82.59-1.63,1.19-2.43,1.79-44.07,32.86-47.47,61.52-69.15,66-26.56,5.45-17.19,25.16-16.94,25.68-19.26-16.4-7.47-26.47-11.5-44.57-2.74-12.3-14.08-28.7-26.62-44.26l.76-4.2c.08-.42,8-42.36,36.55-57.3,10-5.25,16.73-5.86,20.89-5.86a62.93,62.93,0,0,1,9,.81,61.58,61.58,0,0,0,8.52.78A27.83,27.83,0,0,0,220.84,508l.13-.07.05,0,.41-.22c.77-.43,1.54-.9,2.32-1.42h0c2.48,1.42,5.8,5.18,8.52,14.88,1.21,4.29,2.22,8.75,3.19,13.07C239.33,551.31,243,567.52,258.24,572.56Z"/><polygon class="cls-1" points="171.81 235.25 171.46 240.14 156.79 240.14 156.79 232.32 158.66 232.68 159.56 232.86 160.62 233.07 171.81 235.25"/><polygon class="cls-1" points="173.4 252.97 162.68 257.4 161.69 257.81 160.8 258.18 158.49 259.13 157.06 252.18 159.35 251.78 160.29 251.62 161.32 251.44 172.5 249.48 173.4 252.97"/><path class="cls-1" d="M216.19,232.94c0,5.06-2.75,9.17-6.13,9.17s-6.13-4.11-6.13-9.17,2.75-9.17,6.13-9.17S216.19,227.88,216.19,232.94Z"/><path class="cls-1" d="M133.55,263.2c0,2.85-1.57,5.08-3.57,5.08s-3.58-2.23-3.58-5.08,1.57-5.08,3.58-5.08S133.55,260.35,133.55,263.2Z"/><path class="cls-1" d="M335,196.69c.91-46.18-12.7-49.42-12.7-49.42a113.72,113.72,0,0,0-34.24-4.84c-1,0-2,0-3,0-1.32,0-2.66.06-4,.12q-6.62.3-13.34,1.12l-1,.13a270.27,270.27,0,0,0-47,10.65l-.49.15-.49.16c-6.49,2.06-12.92,4.29-19.21,6.65l-.87.33-.86.32c-43.27,16.39-80,38-91.34,43.76a38.17,38.17,0,0,0-7,4.49,22.24,22.24,0,0,0-2.41,2.28,16.4,16.4,0,0,0-2.3,3.22,11.31,11.31,0,0,0-1.35,6.5l.06.48.09.53a13.76,13.76,0,0,0,2,4.78,11.33,11.33,0,0,0,1.33,1.72l1.71,25h-.89l-3,0c-31.63,0-46.87-8.68-73.4-22.56-27.6-14.44,22.6-59.62,22.6-59.62-1.93,5.59,2.21,19,17.2,19,5.46,0,12.36-1.78,20.93-6.35.77-.41,1.56-.85,2.36-1.31s1.43-.83,2.16-1.27l0,0c2.1-1.28,4.27-2.69,6.55-4.28q2.07-1.46,3.92-2.9c36.47-28.24,11.26-51.25,11.26-51.25S129.48,90,195,85.16c40.34-3,41.31-13.39,65.91-21.89,2.41-.83,5.05-1.64,8-2.42,1.6-.43,3.29-.86,5.07-1.27,6-1.39,13.11-2.68,21.67-3.79h0c31.54,0,60.43,7.88,80.31,28.79C446.78,159.11,335,196.69,335,196.69Z"/><path d="M317.69,418.14l.15.05h-.14A.11.11,0,0,1,317.69,418.14Z"/><path class="cls-1" d="M433,394.55v25.27H367.27V394.55H382.9V344.89A49,49,0,0,1,371.21,346a26.83,26.83,0,0,1-3.94-.24V321.45c.62.05,1.28.07,2,.07a45.83,45.83,0,0,0,19.19-4q9-4.11,12.87-9.71h16.49v86.76Z"/><path class="cls-1" d="M536.23,383.66V364.15H524.94V307.79H491l-51.32,53,6.16,22.9H492.1v13.89H478.83v22.27h57.4V397.55H524.94V383.66ZM492.1,364.15H462.41l29.69-30Z"/><path class="cls-1" d="M643.59,370.86A27.1,27.1,0,0,0,629.22,362q16.83-7,16.82-23.6,0-13.59-11.76-22.11t-33.47-8.52q-20.92,0-32.6,8.68t-11.62,22.82a21.66,21.66,0,0,0,5,14.37,27.39,27.39,0,0,0,12,8.36q-20,7.43-20,26.13,0,14.14,11.53,23.37t35.77,9.31q24.95,0,36.63-9t11.76-24.08C649.28,381,647.39,375.34,643.59,370.86ZM592.36,331.7a13.15,13.15,0,0,1,9.31-3.39,12.43,12.43,0,0,1,9.09,3.32,12,12,0,0,1,3.3,8.76c0,4.16-1.2,7.18-3.62,9.09a13.75,13.75,0,0,1-8.84,2.91q-6.55,0-9.71-3.4a11.43,11.43,0,0,1-3.32-8.44A11.32,11.32,0,0,1,592.36,331.7Zm20,64.51q-3.87,3.85-10.66,3.86a15.55,15.55,0,0,1-10.73-3.71q-4.19-3.71-4.18-10.42a14,14,0,0,1,4-9.95q3.94-4.26,11.06-4.25,6.61,0,10.49,3.78t3.79,10.27A14.42,14.42,0,0,1,612.33,396.21Z"/><path class="cls-1" d="M296.28,230.52c3.59,0,6.5-3.91,6.5-8.72s-2.91-8.72-6.5-8.72-6.5,3.9-6.5,8.72S292.69,230.52,296.28,230.52ZM297.84,218l2.42,0,1.23,3.82-1.19,3.84h-2.41l-1.23-3.82Z"/><path class="cls-1" d="M294.25,255.87c-3.59,0-6.51,3.91-6.51,8.72s2.92,8.72,6.51,8.72,6.5-3.9,6.5-8.72S297.84,255.87,294.25,255.87Zm3.64,12.61h-2.41l-1.24-3.82,1.18-3.84h2.42l1.23,3.82Z"/><path class="cls-1" d="M187.29,16.84A50.71,50.71,0,0,0,169,13c-17,0-26.44,11.75-34,21.69-4.62,6.08-6.29,7.3-7.84,7.3-1.05,0-2.05-.56-3.87-.56a14.75,14.75,0,0,0-5.3,1.2c-10.77,4.2-11.9,19.84-11.9,19.84C96.34,134.93,91,164.11,88.41,175.59c.61-.41,1.22-.82,1.86-1.27,13.59-9.53,20.82-19.23,21.49-28.83C112.48,135.14,105,128,105,128l-3.06-2.79,2.17-3.53c.92-1.49,23.28-36.53,90.56-41.48,25.56-1.88,34.35-6.73,44.53-12.34A113.6,113.6,0,0,1,267.4,56.07C249.78,44.5,215.48,27.75,187.29,16.84ZM226,45.78a117.88,117.88,0,0,1-13.6.86c-12.76,0-22.22-2.67-28.19-8S178.11,27.28,178.11,27a2.5,2.5,0,0,1,5,0c0,.22.18,4.27,4.53,8,4.71,4.1,15.09,8.43,37.74,5.77a2.5,2.5,0,0,1,.58,5Z"/></g></g></svg>