<svg xmlns="http://www.w3.org/2000/svg" xmlns:xlink="http://www.w3.org/1999/xlink" version="1.1" width="1000" height="1000" viewBox="0 0 1000 1000" xml:space="preserve">
<desc>Created with Fabric.js 3.5.0</desc>
<defs>
</defs>
<rect x="0" y="0" width="100%" height="100%" fill="rgba(0,0,0,0)"/>
<g transform="matrix(1.7898 0 0 1.7898 500.006 500.0066)" id="_nt3V_e1soo2Zqyexzyu3">
<path style="stroke: rgb(255,255,255); stroke-width: 20; stroke-dasharray: none; stroke-linecap: butt; stroke-dashoffset: 0; stroke-linejoin: miter; stroke-miterlimit: 4; is-custom-font: none; font-file-url: none; fill: rgb(1,1,1); fill-rule: nonzero; opacity: 1;" vector-effect="non-scaling-stroke" transform=" translate(-221.8027, -243.545)" d="M 443.60536 129.53 C 443.60536 134.47 443.18536 139.41 443.03536 143.53 C 442.45536000000004 157.71 433.14536000000004 167.94 425.33536000000004 177.71 C 410.68536000000006 195.98000000000002 390.64536000000004 210.12 367.03536 211.71 C 367.10536 219.19 367.10536 226.9 367.10536 234.58 C 367.10536 268.64 366.66536 301.75 365.10536 311.01 C 363.23536 321.68 352.70536000000004 331.09 342.23536 340.44 C 335.98404 345.93781 329.73272000000003 351.42697 325.17194 356.77062 L 324.51264000000003 356.41188 L 321.26764000000003 360.44235 L 316.40539 386.08788 L 315.02985 393.998 L 315.01536 393.93 L 314.88642 394.82284 L 314.51349 396.96738999999997 L 314.48666 397.59085999999996 L 313.16535999999996 406.73999 L 323.24535999999995 460.91999 L 322.62535999999994 460.96999 C 320.92535999999996 461.06999 319.50535999999994 461.12999 319.50535999999994 461.12999 L 317.57535999999993 461.12999 L 319.3953599999999 472.03999000000005 L 300.8553599999999 473.03999000000005 C 299.0253599999999 472.84999000000005 297.6753599999999 472.74999 296.5653599999999 472.74999 C 295.0082099999999 472.71199 293.4607399999999 473.00512000000003 292.02535999999986 473.60999000000004 C 290.27394999999984 474.28861000000006 288.44763999999986 474.75525000000005 286.58535999999987 474.99999 C 278.47535999999985 476.25999 271.7653599999999 475.59999000000005 263.65535999999986 478.08999 C 250.02535999999986 482.25999 236.52535999999986 486.08999 222.16535999999985 487.08999 C 222.22009999999986 486.15728 222.09097999999986 485.22291 221.78535999999986 484.33999 C 221.23690999999985 482.2646 220.54524999999987 480.22972 219.71535999999986 478.24999 L 219.12535999999986 476.36999000000003 L 217.23535999999987 477.13999 C 215.19535999999988 478.09999 214.27535999999986 478.31999 206.74535999999986 480.66999 L 206.16535999999985 480.86999 L 197.86535999999984 477.48999 L 196.96535999999983 477.55998999999997 C 188.52535999999984 478.20998999999995 180.32535999999982 478.55998999999997 172.65535999999983 478.55998999999997 C 161.38535999999982 478.55998999999997 151.25535999999983 477.79999 143.16535999999982 476.00998999999996 L 143.01535999999982 476.00998999999996 C 141.1453599999998 475.32998999999995 138.7453599999998 474.90998999999994 137.5253599999998 472.53998999999993 C 126.6353599999998 450.94998999999996 116.1253599999998 403.53998999999993 108.1253599999998 355.53998999999993 C 103.7353599999998 328.90998999999994 100.1553599999998 302.14998999999995 97.8453599999998 279.59998999999993 C 90.9995299999998 279.59487999999993 84.1727899999998 278.87767999999994 77.4753599999998 277.45998999999995 C 71.38535999999979 276.09998999999993 64.4853599999998 277.49998999999997 56.8253599999998 274.32998999999995 C 42.0753599999998 268.05998999999997 27.505359999999797 261.24998999999997 12.905359999999796 254.49998999999997 C 9.185359999999795 252.78998999999996 6.135359999999796 251.30998999999997 3.7453599999997955 248.78998999999996 C 1.3553599999997954 246.26998999999995 0.14535999999979543 242.81998999999996 0.005359999999795306 238.32998999999995 C 0.005359999999795306 237.85998999999995 0.005359999999795306 237.39998999999995 0.005359999999795306 236.93998999999997 C -0.1194500000002047 230.67595999999998 1.9380699999997952 224.56349999999998 5.825359999999796 219.64998999999997 C 8.495359999999796 216.25999 9.935359999999797 213.53998999999996 14.015359999999795 210.45998999999998 C 16.475359999999796 208.60998999999998 16.915359999999794 207.99998999999997 17.275359999999793 207.29998999999998 C 17.635359999999793 206.59999 17.935359999999793 205.04998999999998 19.065359999999792 202.29998999999998 C 21.205359999999793 197.39998999999997 26.685359999999793 191.01998999999998 31.455359999999793 187.82998999999998 C 32.305359999999794 187.29998999999998 33.375359999999795 186.30998999999997 34.75535999999979 185.46998999999997 L 38.36535999999979 183.33998999999997 L 38.63535999999979 187.51998999999998 C 38.99535999999979 193.10998999999998 40.02535999999979 196.27998999999997 41.74535999999979 198.18998999999997 C 43.46535999999979 200.09998999999996 46.585359999999795 201.40998999999996 52.39535999999979 202.18998999999997 C 55.71209999999979 202.61152999999996 59.05194999999979 202.82527999999996 62.39535999999979 202.82998999999995 C 64.92618999999979 202.88275999999996 67.45582999999979 202.67836999999994 69.9453599999998 202.21998999999994 C 75.3653599999998 201.12998999999994 79.3653599999998 196.08998999999994 85.3653599999998 191.80998999999994 C 85.9453599999998 191.40998999999994 86.5353599999998 191.01998999999995 87.1453599999998 190.61998999999994 C 89.5953599999998 178.63998999999995 93.63535999999979 167.51998999999995 94.2153599999998 155.70998999999995 C 95.0953599999998 138.20998999999995 96.2220299999998 120.71998999999994 97.5953599999998 103.23998999999995 C 98.7153599999998 89.37998999999995 104.3053599999998 68.58998999999994 104.3053599999998 56.94998999999995 C 104.3653599999998 53.27998999999995 106.04535999999979 48.59998999999995 108.4753599999998 44.19998999999995 C 110.9053599999998 39.79998999999995 113.6653599999998 35.70998999999995 117.13535999999979 33.79998999999995 C 118.4052599999998 33.21334999999995 119.79813999999979 32.94231999999995 121.1953599999998 33.00998999999995 C 123.93535999999979 33.01998999999995 127.0053599999998 33.54998999999995 128.5353599999998 33.54998999999995 L 128.9353599999998 33.54998999999995 C 131.54535999999982 33.27998999999995 132.3753599999998 32.749989999999954 133.54535999999982 31.489989999999953 C 134.7153599999998 30.22998999999995 135.98535999999982 28.009989999999952 138.19535999999982 25.349989999999952 C 142.16535999999982 20.61998999999995 145.53535999999983 15.949989999999952 149.77535999999984 11.889989999999951 C 154.38757999999984 7.387399999999952 160.10707999999983 4.1826799999999515 166.35535999999985 2.599989999999952 C 171.71951999999985 1.0222499999999521 177.26595999999984 0.14826999999995216 182.85535999999985 -0.000010000000048027147 C 188.80535999999984 -0.000010000000048027147 194.04535999999985 1.409989999999952 200.04535999999985 3.999989999999952 C 223.31535999999986 14.119989999999952 248.95535999999984 23.419989999999952 271.2053599999998 36.639989999999955 C 282.3153599999998 43.249989999999954 292.43535999999983 50.32998999999995 303.5153599999998 56.14998999999996 C 305.9020299999998 56.14998999999996 308.2886899999998 56.14998999999996 310.67535999999984 56.14998999999996 C 321.91535999999985 56.14998999999996 333.15535999999986 56.33998999999996 344.3153599999998 56.42998999999996 C 359.41535999999985 56.54998999999996 369.11535999999984 62.67998999999996 380.7753599999998 68.83998999999996 C 389.9053599999998 73.66998999999996 398.8453599999998 78.19998999999996 407.55535999999984 84.29998999999995 C 412.74535999999983 87.91998999999996 419.80535999999984 92.22998999999996 426.23535999999984 97.29998999999995 C 432.66535999999985 102.36998999999994 438.62535999999983 108.07998999999995 441.5153599999998 115.07998999999995 C 443.30535999999984 119.45998999999995 443.6053599999998 124.58998999999996 443.6053599999998 129.52998999999994 z M 217.20536 479.26 L 217.47418000000002 480.04692 L 217.08888000000002 479.31223 z" stroke-linecap="round"/>
</g>
<g transform="matrix(1.7898 0 0 1.7898 500.0108 500.0155)" id="Ws9zbIESwcM0H7-u3msMx">
<path style="stroke: rgb(255,255,255); stroke-width: 0; stroke-dasharray: none; stroke-linecap: butt; stroke-dashoffset: 0; stroke-linejoin: miter; stroke-miterlimit: 4; is-custom-font: none; font-file-url: none; fill: rgb(1,1,1); fill-rule: nonzero; opacity: 1;" vector-effect="non-scaling-stroke" transform=" translate(-221.8027, -243.545)" d="M 443.60536 129.53 C 443.60536 134.47 443.18536 139.41 443.03536 143.53 C 442.45536000000004 157.71 433.14536000000004 167.94 425.33536000000004 177.71 C 410.68536000000006 195.98000000000002 390.64536000000004 210.12 367.03536 211.71 C 367.10536 219.19 367.10536 226.9 367.10536 234.58 C 367.10536 268.64 366.66536 301.75 365.10536 311.01 C 363.23536 321.68 352.70536000000004 331.09 342.23536 340.44 C 335.98404 345.93781 329.73272000000003 351.42697 325.17194 356.77062 L 324.51264000000003 356.41188 L 321.26764000000003 360.44235 L 316.40539 386.08788 L 315.02985 393.998 L 315.01536 393.93 L 314.88642 394.82284 L 314.51349 396.96738999999997 L 314.48666 397.59085999999996 L 313.16535999999996 406.73999 L 323.24535999999995 460.91999 L 322.62535999999994 460.96999 C 320.92535999999996 461.06999 319.50535999999994 461.12999 319.50535999999994 461.12999 L 317.57535999999993 461.12999 L 319.3953599999999 472.03999000000005 L 300.8553599999999 473.03999000000005 C 299.0253599999999 472.84999000000005 297.6753599999999 472.74999 296.5653599999999 472.74999 C 295.0082099999999 472.71199 293.4607399999999 473.00512000000003 292.02535999999986 473.60999000000004 C 290.27394999999984 474.28861000000006 288.44763999999986 474.75525000000005 286.58535999999987 474.99999 C 278.47535999999985 476.25999 271.7653599999999 475.59999000000005 263.65535999999986 478.08999 C 250.02535999999986 482.25999 236.52535999999986 486.08999 222.16535999999985 487.08999 C 222.22009999999986 486.15728 222.09097999999986 485.22291 221.78535999999986 484.33999 C 221.23690999999985 482.2646 220.54524999999987 480.22972 219.71535999999986 478.24999 L 219.12535999999986 476.36999000000003 L 217.23535999999987 477.13999 C 215.19535999999988 478.09999 214.27535999999986 478.31999 206.74535999999986 480.66999 L 206.16535999999985 480.86999 L 197.86535999999984 477.48999 L 196.96535999999983 477.55998999999997 C 188.52535999999984 478.20998999999995 180.32535999999982 478.55998999999997 172.65535999999983 478.55998999999997 C 161.38535999999982 478.55998999999997 151.25535999999983 477.79999 143.16535999999982 476.00998999999996 L 143.01535999999982 476.00998999999996 C 141.1453599999998 475.32998999999995 138.7453599999998 474.90998999999994 137.5253599999998 472.53998999999993 C 126.6353599999998 450.94998999999996 116.1253599999998 403.53998999999993 108.1253599999998 355.53998999999993 C 103.7353599999998 328.90998999999994 100.1553599999998 302.14998999999995 97.8453599999998 279.59998999999993 C 90.9995299999998 279.59487999999993 84.1727899999998 278.87767999999994 77.4753599999998 277.45998999999995 C 71.38535999999979 276.09998999999993 64.4853599999998 277.49998999999997 56.8253599999998 274.32998999999995 C 42.0753599999998 268.05998999999997 27.505359999999797 261.24998999999997 12.905359999999796 254.49998999999997 C 9.185359999999795 252.78998999999996 6.135359999999796 251.30998999999997 3.7453599999997955 248.78998999999996 C 1.3553599999997954 246.26998999999995 0.14535999999979543 242.81998999999996 0.005359999999795306 238.32998999999995 C 0.005359999999795306 237.85998999999995 0.005359999999795306 237.39998999999995 0.005359999999795306 236.93998999999997 C -0.1194500000002047 230.67595999999998 1.9380699999997952 224.56349999999998 5.825359999999796 219.64998999999997 C 8.495359999999796 216.25999 9.935359999999797 213.53998999999996 14.015359999999795 210.45998999999998 C 16.475359999999796 208.60998999999998 16.915359999999794 207.99998999999997 17.275359999999793 207.29998999999998 C 17.635359999999793 206.59999 17.935359999999793 205.04998999999998 19.065359999999792 202.29998999999998 C 21.205359999999793 197.39998999999997 26.685359999999793 191.01998999999998 31.455359999999793 187.82998999999998 C 32.305359999999794 187.29998999999998 33.375359999999795 186.30998999999997 34.75535999999979 185.46998999999997 L 38.36535999999979 183.33998999999997 L 38.63535999999979 187.51998999999998 C 38.99535999999979 193.10998999999998 40.02535999999979 196.27998999999997 41.74535999999979 198.18998999999997 C 43.46535999999979 200.09998999999996 46.585359999999795 201.40998999999996 52.39535999999979 202.18998999999997 C 55.71209999999979 202.61152999999996 59.05194999999979 202.82527999999996 62.39535999999979 202.82998999999995 C 64.92618999999979 202.88275999999996 67.45582999999979 202.67836999999994 69.9453599999998 202.21998999999994 C 75.3653599999998 201.12998999999994 79.3653599999998 196.08998999999994 85.3653599999998 191.80998999999994 C 85.9453599999998 191.40998999999994 86.5353599999998 191.01998999999995 87.1453599999998 190.61998999999994 C 89.5953599999998 178.63998999999995 93.63535999999979 167.51998999999995 94.2153599999998 155.70998999999995 C 95.0953599999998 138.20998999999995 96.2220299999998 120.71998999999994 97.5953599999998 103.23998999999995 C 98.7153599999998 89.37998999999995 104.3053599999998 68.58998999999994 104.3053599999998 56.94998999999995 C 104.3653599999998 53.27998999999995 106.04535999999979 48.59998999999995 108.4753599999998 44.19998999999995 C 110.9053599999998 39.79998999999995 113.6653599999998 35.70998999999995 117.13535999999979 33.79998999999995 C 118.4052599999998 33.21334999999995 119.79813999999979 32.94231999999995 121.1953599999998 33.00998999999995 C 123.93535999999979 33.01998999999995 127.0053599999998 33.54998999999995 128.5353599999998 33.54998999999995 L 128.9353599999998 33.54998999999995 C 131.54535999999982 33.27998999999995 132.3753599999998 32.749989999999954 133.54535999999982 31.489989999999953 C 134.7153599999998 30.22998999999995 135.98535999999982 28.009989999999952 138.19535999999982 25.349989999999952 C 142.16535999999982 20.61998999999995 145.53535999999983 15.949989999999952 149.77535999999984 11.889989999999951 C 154.38757999999984 7.387399999999952 160.10707999999983 4.1826799999999515 166.35535999999985 2.599989999999952 C 171.71951999999985 1.0222499999999521 177.26595999999984 0.14826999999995216 182.85535999999985 -0.000010000000048027147 C 188.80535999999984 -0.000010000000048027147 194.04535999999985 1.409989999999952 200.04535999999985 3.999989999999952 C 223.31535999999986 14.119989999999952 248.95535999999984 23.419989999999952 271.2053599999998 36.639989999999955 C 282.3153599999998 43.249989999999954 292.43535999999983 50.32998999999995 303.5153599999998 56.14998999999996 C 305.9020299999998 56.14998999999996 308.2886899999998 56.14998999999996 310.67535999999984 56.14998999999996 C 321.91535999999985 56.14998999999996 333.15535999999986 56.33998999999996 344.3153599999998 56.42998999999996 C 359.41535999999985 56.54998999999996 369.11535999999984 62.67998999999996 380.7753599999998 68.83998999999996 C 389.9053599999998 73.66998999999996 398.8453599999998 78.19998999999996 407.55535999999984 84.29998999999995 C 412.74535999999983 87.91998999999996 419.80535999999984 92.22998999999996 426.23535999999984 97.29998999999995 C 432.66535999999985 102.36998999999994 438.62535999999983 108.07998999999995 441.5153599999998 115.07998999999995 C 443.30535999999984 119.45998999999995 443.6053599999998 124.58998999999996 443.6053599999998 129.52998999999994 z M 217.20536 479.26 L 217.47418000000002 480.04692 L 217.08888000000002 479.31223 z" stroke-linecap="round"/>
</g>
<g transform="matrix(1.7957 0 0 1.7957 680.5341 536.526)" id="KrK0dBuAzVdIrXb7Gab8h">
<path style="stroke: none; stroke-width: 0; stroke-dasharray: none; stroke-linecap: butt; stroke-dashoffset: 0; stroke-linejoin: miter; stroke-miterlimit: 4; is-custom-font: none; font-file-url: none; fill: rgb(255,255,255); fill-rule: nonzero; opacity: 1;" vector-effect="non-scaling-stroke" transform=" translate(-326.89, -268.3404)" d="M 325.71 283.13 C 323.4865092482703 283.22115067095484 321.45598804794025 284.41844505710134 320.29999999999995 286.32 C 317.6599865951682 290.57366788457387 317.6599865951682 295.9563321154261 320.29999999999995 300.21 C 321.38323950858955 302.18542561441154 323.45706542681705 303.41338576825365 325.7099999999999 303.41338576825365 C 327.96293457318285 303.41338576825365 330.03676049141035 302.18542561441154 331.11999999999995 300.21 C 333.7600134048317 295.9563321154261 333.7600134048317 290.57366788457387 331.11999999999995 286.32 C 329.96401195205965 284.4184450571014 327.93349075172966 283.22115067095484 325.71 283.13 Z M 333.47999999999996 236.45999999999998 C 332.3923362297645 234.4902784014851 330.32007014395964 233.26735669112344 328.06999999999994 233.26735669112344 C 325.8199298560403 233.26735669112344 323.7476637702354 234.4902784014851 322.65999999999997 236.45999999999998 C 320.034060077141 240.71766952060125 320.034060077141 246.0923304793987 322.65999999999997 250.34999999999997 C 323.74323950858957 252.32542561441156 325.81706542681707 253.5533857682536 328.06999999999994 253.5533857682536 C 330.32293457318286 253.5533857682536 332.39676049141036 252.32542561441156 333.47999999999996 250.34999999999997 C 336.1200134048317 246.09633211542607 336.1200134048317 240.71366788457388 333.47999999999996 236.45999999999998 Z" stroke-linecap="round"/>
</g>
<g transform="matrix(1.7957 0 0 1.7957 678.5382 485.7786)" id="cyU_wYc76tlESrLJIg1eJ">
<path style="stroke: none; stroke-width: 0; stroke-dasharray: none; stroke-linecap: butt; stroke-dashoffset: 0; stroke-linejoin: miter; stroke-miterlimit: 4; is-custom-font: none; font-file-url: none; fill: rgb(255,255,255); fill-rule: nonzero; opacity: 1;" vector-effect="non-scaling-stroke" transform=" translate(-325.775, -239.975)" d="M 310.94 320.55 Q 311.21 314.38 311.45 308.2 L 311.45 308.2 L 311.5 306.84999999999997 L 336.5 304.42999999999995 L 337.75 281.37999999999994 L 310.2 278.2199999999999 L 310.2 276.7999999999999 Q 310.47999999999996 268.2299999999999 310.71999999999997 259.8699999999999 L 310.71999999999997 259.8699999999999 L 310.77 258.4499999999999 L 338.24 256.9499999999999 L 337.81 231.15999999999988 L 311.52 228.3999999999999 L 311.52 226.96999999999989 C 311.89 208.71999999999989 312.09 194.82999999999987 312.09 184.22999999999988 L 312.09 184.22999999999988 C 312.09 172.41999999999987 311.84 164.67999999999986 311.34 159.59999999999988 L 311.34 159.59999999999988 L 314.40999999999997 159.28999999999988 C 314.93999999999994 164.57999999999987 315.17999999999995 172.3699999999999 315.17999999999995 184.22999999999988 L 315.17999999999995 184.22999999999988 C 315.17999999999995 194.58999999999986 314.98999999999995 208.04999999999987 314.63999999999993 225.6199999999999 L 314.63999999999993 225.6199999999999 L 340.8299999999999 228.3699999999999 L 341.3499999999999 259.8699999999999 L 313.7399999999999 261.3799999999999 Q 313.5499999999999 268.3799999999999 313.3099999999999 275.46999999999986 L 313.3099999999999 275.46999999999986 L 341 278.64 L 339.44 307.25 L 314.5 309.66 C 314.35 313.34000000000003 314.19 317.02000000000004 314.04 320.66 L 314.04 320.66 L 310.95000000000005 320.53000000000003 Z" stroke-linecap="round"/>
</g>
<g transform="matrix(1.7957 0 0 1.7957 469.3988 629.4117)" id="SoPSMrPphuEApGZ5nrWGy">
<path style="stroke: none; stroke-width: 0; stroke-dasharray: none; stroke-linecap: butt; stroke-dashoffset: 0; stroke-linejoin: miter; stroke-miterlimit: 4; is-custom-font: none; font-file-url: none; fill: rgb(255,255,255); fill-rule: nonzero; opacity: 1;" vector-effect="non-scaling-stroke" transform=" translate(-208.87, -320.28)" d="M 295.19 161 C 292.6 161 290.01 161.07 287.42 161.07 L 285.42 161.07 C 278.88 161.07 273.82 161.26 268.16 163.67 C 266.98 164.17999999999998 265.85 164.67 264.76000000000005 165.17 C 260.04 167.29 255.57000000000005 169.28 250.00000000000006 169.79999999999998 C 248.37000000000006 169.95999999999998 246.73000000000005 169.99999999999997 245.13000000000005 170.02999999999997 C 241.94125810887883 169.94705159608148 238.75753713721124 170.33111952282235 235.68000000000004 171.16999999999996 C 231.30000000000007 172.56999999999996 227.33000000000007 175.03999999999996 223.48000000000008 177.42999999999995 C 221.48000000000008 178.68999999999994 219.33000000000007 179.98999999999995 217.20000000000007 181.11999999999995 C 213.04955886463492 183.20262902067415 208.74723638381454 184.96768439742095 204.33000000000007 186.39999999999992 C 201.61000000000007 187.34999999999994 198.79000000000008 188.34999999999994 196.03000000000006 189.49999999999994 C 191.35000000000005 191.49999999999994 186.81000000000006 193.87999999999994 182.42000000000007 196.20999999999995 C 178.50000000000009 198.27999999999994 174.42000000000007 200.42999999999995 170.34000000000006 202.20999999999995 C 165.80000000000007 204.20999999999995 161.16000000000005 206.20999999999995 156.67000000000007 208.03999999999996 C 145.19000000000008 212.83999999999997 133.32000000000008 217.79999999999995 122.21000000000006 224.34999999999997 C 118.886568519925 226.238220793064 115.45760828906191 227.93433744085218 111.94000000000005 229.43 C 108.73000000000008 230.87999999999997 105.44000000000007 232.36999999999998 102.34000000000007 234.12999999999997 C 102.25000000000007 235.76999999999995 102.21000000000008 237.62999999999997 102.21000000000008 239.70999999999998 C 102.21000000000008 262.76 107.44000000000008 311.22999999999996 115.35000000000008 359.09 C 123.26000000000008 406.95 133.91000000000008 454.4 144.48000000000008 475.24 C 144.67000000000007 475.87 146.01000000000008 476.46000000000004 148.07000000000008 477.09000000000003 C 155.80000000000007 478.81000000000006 165.73000000000008 479.56000000000006 176.83000000000007 479.56000000000006 C 184.06000000000006 479.56000000000006 191.83000000000007 479.24000000000007 199.75000000000006 478.6700000000001 L 201.55000000000007 470.38000000000005 L 202.72 455 L 212.59 464.88 L 217.46 477.11 C 251.14000000000001 473.37 285.66 466.11 302.46000000000004 459.86 C 304.64000000000004 458.86 305.35 457.51 305.75000000000006 455.42 C 309.75000000000006 428.93 313.18000000000006 376.48 315.53000000000003 322.18 L 297.86 321.66 Z" stroke-linecap="round"/>
</g>
<g transform="matrix(1.7957 0 0 1.7957 499.9857 364.0759)" id="5">
<path style="stroke: none; stroke-width: 0; stroke-dasharray: none; stroke-linecap: butt; stroke-dashoffset: 0; stroke-linejoin: miter; stroke-miterlimit: 4; is-custom-font: none; font-file-url: none; fill: rgb(255,255,255); fill-rule: nonzero; opacity: 1;" vector-effect="non-scaling-stroke" transform=" translate(-225.9667, -171.96)" d="M 441.39 121 C 436.81 109.58 419.78 99.64 409.04999999999995 92.21000000000001 C 400.68999999999994 86.35000000000001 391.93999999999994 81.91000000000001 382.75999999999993 77.06 C 370.81999999999994 70.74000000000001 362.18999999999994 65.3 348.42999999999995 65.19 C 337.17999999999995 65.09 325.9 64.89999999999999 314.65 64.89999999999999 C 311.59 64.89999999999999 308.52 64.89999999999999 305.46999999999997 64.96 L 305.46999999999997 64.96 C 303.14 64.96 300.78999999999996 65.02 298.46999999999997 65.08 L 297.46999999999997 65.08 C 295.02 65.14 292.55999999999995 65.21 290.10999999999996 65.31 C 271.27 66.04 252.58999999999995 66.37 235.73999999999995 74.31 C 219.73999999999995 81.84 203.80999999999995 89.31 187.73999999999995 96.54 C 172.47999999999996 103.44000000000001 157.13999999999996 110.54 141.84999999999997 117.44 C 133.92999999999998 121.02 126.84999999999997 123.44 120.93999999999997 128.82 C 119.65999999999997 129.95 118.24999999999997 131.95999999999998 116.42999999999996 133.76999999999998 C 117.78999999999996 135.76999999999998 119.31999999999996 137.52999999999997 120.77999999999996 139.51999999999998 C 122.84270069915918 142.13967065210775 124.21772431436688 145.23347378632505 124.77999999999996 148.51999999999998 C 125.2324005567374 151.70627532571228 125.44632823723774 154.92187577323315 125.41999999999994 158.13999999999996 C 125.44042130422824 161.26990103419666 125.24327961715016 164.39743695123204 124.82999999999997 167.49999999999994 C 123.59999999999995 175.96 118.05999999999996 182.11 111.65999999999995 187.05 C 110.92999999999995 187.62 110.16999999999996 188.17000000000002 109.40999999999995 188.71 L 108.73999999999995 189.19 L 107 190.33 L 106.37 190.75 C 105.64 191.23 104.91000000000001 191.75 104.17 192.18 L 104.17 192.18 C 99.94 194.88 95.72 197.32 92.17 199.76000000000002 C 86.93 203.31000000000003 82.64 209.16000000000003 75.09 210.89000000000001 C 72.27447561679023 211.4142565687708 69.4135565397735 211.65545817713758 66.55000000000001 211.61 C 62.985650955122 211.60564661756987 59.42516771270718 211.3751838185768 55.89000000000001 210.92000000000002 C 49.740000000000016 210.08 45.38000000000002 208.64000000000001 42.44000000000001 205.45000000000002 C 40.16000000000001 202.94000000000003 39.05000000000001 199.70000000000002 38.44000000000001 195.59000000000003 C 38.320000000000014 195.67000000000004 38.19000000000001 195.77000000000004 38.05000000000001 195.85000000000002 C 34.38000000000001 198.16000000000003 28.81000000000001 204.71000000000004 27.42000000000001 208.21000000000004 C 26.42000000000001 210.62000000000003 26.27000000000001 211.81000000000003 25.52000000000001 213.41000000000003 C 24.77000000000001 215.01000000000002 23.440000000000012 216.33 20.87000000000001 218.25000000000003 C 17.490000000000013 220.80000000000004 16.510000000000012 222.79000000000002 13.540000000000012 226.60000000000002 C 10.29096629389154 230.69657160859336 8.581750527822518 235.802986412812 8.710000000000017 241.03000000000003 C 8.710000000000012 241.43000000000004 8.710000000000012 241.83000000000004 8.710000000000012 242.24000000000004 C 8.890000000000011 246.13000000000002 9.710000000000012 248.09000000000003 11.210000000000012 249.71000000000004 C 12.710000000000012 251.33000000000004 15.210000000000012 252.71000000000004 18.940000000000012 254.38000000000002 C 33.55000000000001 261.15000000000003 48.07000000000001 267.93 62.72000000000001 274.16 C 68.72000000000001 276.79 75.16000000000001 275.55 82.51000000000002 277.02000000000004 C 88.37794721810097 278.3241436909701 94.36893081442264 278.99465108843197 100.38000000000002 279.02000000000004 L 101.38000000000002 279.02000000000004 L 100.04000000000002 263.02000000000004 C 98.60000000000002 262.51000000000005 98.04000000000002 261.82000000000005 96.44000000000003 260.64000000000004 C 94.03261791275273 258.7729622347784 92.36688343939423 256.11133119330555 91.74000000000002 253.13000000000005 C 91.08825355217657 250.69835076907742 90.73234711628818 248.19693289420155 90.68000000000002 245.68000000000006 C 90.49141856404644 241.0372700809378 92.70546794638955 236.62428428131875 96.54000000000002 234.00000000000006 C 104.14000000000001 228.65000000000006 113.26000000000002 226.00000000000006 120.54000000000002 221.65000000000006 C 136.20000000000002 212.42000000000007 152.78000000000003 206.53000000000006 168.99 199.35000000000005 C 177.54000000000002 195.58000000000004 185.69 190.42000000000004 194.73000000000002 186.60000000000005 C 201.98000000000002 183.55000000000004 209.18 181.78000000000006 215.66000000000003 178.33000000000004 C 221.66000000000003 175.15000000000003 227.47000000000003 170.46000000000004 234.66000000000003 168.16000000000005 C 240.08 166.48000000000005 244.93000000000004 167.16000000000005 249.61 166.67000000000004 C 255.87 166.09000000000003 260.54 163.47000000000006 266.85 160.77000000000004 C 273.16 158.07000000000002 279.12 158 285.4 158 L 287.4 158 C 299.62 158 311.7 157.37 324.02 157.37 C 328.94 157.37 335.02 156.83 341.18 156.83 C 347.47 156.83 353.81 157.38000000000002 359.09000000000003 159.92000000000002 C 364.37000000000006 162.46 368.45000000000005 167.29000000000002 369.42 174.82000000000002 C 370.00257926369306 179.38938116266644 370.2632216921975 183.9940640662454 370.2 188.59999999999994 C 370.2 190.50000000000003 370.2 192.41000000000003 370.2 194.42000000000002 C 370.2 199.8 370.33 205.02 370.36 211.21 C 392.52000000000004 209.97 411.72 196.67000000000002 425.99 178.93 C 433.99 169.01000000000002 442.27 159.5 442.67 147.48000000000002 C 442.82 143.19000000000003 443.24 138.33 443.23 133.64000000000001 C 443.22 128.95000000000002 442.8 124.36 441.39 121 Z" stroke-linecap="round"/>
</g>
<g transform="matrix(1.7957 0 0 1.7957 449.6409 236.1247)" id="Hpe4HqH6mjXTHU_Z2tbSh">
<path style="stroke: none; stroke-width: 0; stroke-dasharray: none; stroke-linecap: butt; stroke-dashoffset: 0; stroke-linejoin: miter; stroke-miterlimit: 4; is-custom-font: none; font-file-url: none; fill: rgb(255,255,255); fill-rule: nonzero; opacity: 1;" vector-effect="non-scaling-stroke" transform=" translate(-197.825, -100.435)" d="M 120.73 166.87 C 121.10496343159136 163.96194093090497 121.28536456167905 161.03209294781405 121.27000000000001 158.1 C 121.29319639091717 155.089622691243 121.09600283251375 152.08158535966538 120.68 149.09999999999997 C 120.21892060340576 146.47291749686153 119.104773069504 144.00391154210396 117.44000000000001 141.92 C 115.84000000000002 139.70999999999998 113.78000000000002 137.45 111.98000000000002 134.45 L 111.06000000000002 132.89999999999998 L 112.47000000000001 131.77999999999997 C 114.29 130.36999999999998 116.02000000000001 127.77999999999997 118.16000000000001 125.77999999999997 C 124.83000000000001 119.77999999999997 132.5 117.18999999999997 140.16000000000003 113.69999999999997 C 155.44000000000003 106.76999999999998 170.77000000000004 99.69999999999997 186.05 92.79999999999998 C 202.13 85.52999999999999 218.05 78.11999999999998 234.05 70.59999999999998 C 251.96 62.17999999999998 271.26 61.94999999999998 290.05 61.18999999999998 C 292.81 61.079999999999984 295.59000000000003 61.009999999999984 298.36 60.93999999999998 C 289.64 55.859999999999985 281.44 50.319999999999986 272.81 45.19999999999998 C 251.07 32.29 225.61 23 202.15 12.83 C 196.53 10.4 192.15 9.280000000000001 187.01 9.27 C 181.862827217043 9.419067226172762 176.7568016652406 10.235896856908749 171.82 11.699999999999992 C 166.41207342832152 13.065792272005858 161.46573498324898 15.847891913826132 157.48999999999998 19.76 C 153.7 23.38 150.39 27.9 146.29 32.81 C 144.39 35.06 143.29 37.150000000000006 141.51 39.11 C 139.45790889404842 41.384616777169235 136.57152667522791 42.730392486694285 133.51 42.839999999999996 L 132.72 42.839999999999996 C 130.38 42.839999999999996 127.46 42.29 125.38 42.3 C 124.81247539610344 42.26314536720285 124.24301081073298 42.33093877022314 123.69999999999999 42.5 C 122.21 43.17 119.25999999999999 46.75 117.21999999999998 50.72 C 115.21999999999998 54.42 113.68999999999998 58.089999999999996 113.63999999999999 61.11 C 113.63999999999999 74.01 107.91999999999999 94.69 106.91999999999999 107.78 Q 104.85 133.92000000000002 103.53999999999999 160.11 C 102.96 171.37 99.66 181.52 97.28999999999999 191.60000000000002 C 101.37708805204805 189.18403545311276 105.3357674207822 186.55715462411297 109.15000000000005 183.73000000000002 C 115.17 179.07 119.74 173.77 120.73 166.87 Z" stroke-linecap="round"/>
</g>
<g transform="matrix(1.7957 0 0 1.7957 462.8497 808.4068)" id="w5N9qJM0m-Na0ub-aN0YB">
<path style="stroke: none; stroke-width: 0; stroke-dasharray: none; stroke-linecap: butt; stroke-dashoffset: 0; stroke-linejoin: miter; stroke-miterlimit: 4; is-custom-font: none; font-file-url: none; fill: rgb(1,1,1); fill-rule: nonzero; opacity: 1;" vector-effect="non-scaling-stroke" transform=" translate(-205.215, -420.33)" d="M 244.26 411.54 C 243.76999999999998 411.54 185.72 418.54 166.19 422.20000000000005 L 165.66 422.30000000000007 L 167.27 429.12000000000006 L 167.75 429.0400000000001 C 187.16 425.43000000000006 243.51999999999998 418.4700000000001 244.31 418.3900000000001 L 244.77 418.3900000000001 L 244.77 411.5800000000001 Z" stroke-linecap="round"/>
</g>
<g transform="matrix(1.7957 0 0 1.7957 683.745 581.2391)" id="4">
<path style="stroke: none; stroke-width: 0; stroke-dasharray: none; stroke-linecap: butt; stroke-dashoffset: 0; stroke-linejoin: miter; stroke-miterlimit: 4; is-custom-font: none; font-file-url: none; fill: rgb(1,1,1); fill-rule: nonzero; opacity: 1;" vector-effect="non-scaling-stroke" transform=" translate(-328.685, -293.35)" d="M 330.08 297.7 L 327.34999999999997 297.71 L 325.93999999999994 293.37 L 327.28999999999996 289.01 L 330.03 288.99 L 331.42999999999995 293.33 z" stroke-linecap="round"/>
</g>
<g transform="matrix(1.7957 0 0 1.7957 687.9588 492.0507)" id="Xb39JSskcHyo82vSsBvRx">
<path style="stroke: none; stroke-width: 0; stroke-dasharray: none; stroke-linecap: butt; stroke-dashoffset: 0; stroke-linejoin: miter; stroke-miterlimit: 4; is-custom-font: none; font-file-url: none; fill: rgb(1,1,1); fill-rule: nonzero; opacity: 1;" vector-effect="non-scaling-stroke" transform=" translate(-331.045, -243.49)" d="M 332.44 247.83 L 329.7 247.85000000000002 L 328.3 243.51000000000002 L 329.65000000000003 239.15 L 332.39000000000004 239.13 L 333.79 243.47 z" stroke-linecap="round"/>
</g>
<g transform="matrix(1.7957 0 0 1.7957 338.7644 584.3564)" id="7">
<path style="stroke: none; stroke-width: 0; stroke-dasharray: none; stroke-linecap: butt; stroke-dashoffset: 0; stroke-linejoin: miter; stroke-miterlimit: 4; is-custom-font: none; font-file-url: none; fill: rgb(35,31,32); fill-rule: nonzero; opacity: 1;" vector-effect="non-scaling-stroke" transform=" translate(-135.8432, -295.09)" d="M 155.06 294.2 C 154.39000000000001 280.01 145.88 268.52 135.26 268.44 L 134.6 268.44 C 124.13 269.01 116.6 280.53 116.6 294.23 C 116.6 294.81 116.6 295.39000000000004 116.6 295.98 C 117.27 310.16 125.78 321.65000000000003 136.4 321.74 L 137.06 321.74 C 147.53 321.18 155.06 309.66 155.06 295.96000000000004 C 155.1 295.37 155.09 294.79 155.06 294.2 Z" stroke-linecap="round"/>
</g>
<g transform="matrix(1.7957 0 0 1.7957 309.8038 515.5784)" id="3">
<path style="stroke: none; stroke-width: 0; stroke-dasharray: none; stroke-linecap: butt; stroke-dashoffset: 0; stroke-linejoin: miter; stroke-miterlimit: 4; is-custom-font: none; font-file-url: none; fill: rgb(1,1,1); fill-rule: nonzero; opacity: 1;" vector-effect="non-scaling-stroke" transform=" translate(-119.65, -256.6313)" d="M 148.17 258.32 C 145.67999999999998 256.63 117.35 244.42 94.66 245.98 L 91.13 265.46999999999997 C 114.89 258.53 140.04 264.91999999999996 144.49 267.41999999999996 Z" stroke-linecap="round"/>
</g>
<g transform="matrix(1.7957 0 0 1.7957 338.7239 584.3709)" id="RcEqhLUAtViqFPp25BFzA">
<path style="stroke: none; stroke-width: 0; stroke-dasharray: none; stroke-linecap: butt; stroke-dashoffset: 0; stroke-linejoin: miter; stroke-miterlimit: 4; is-custom-font: none; font-file-url: none; fill: rgb(255,255,255); fill-rule: nonzero; opacity: 1;" vector-effect="non-scaling-stroke" transform=" translate(-135.8261, -295.0903)" d="M 152.93 294.3 C 152.32 281.01 144.16 270.59000000000003 134.72 271.03000000000003 C 125.28 271.47 118.12 282.6 118.72 295.89000000000004 C 119.32 309.18000000000006 127.49 319.6 136.93 319.15000000000003 C 146.37 318.70000000000005 153.55 307.59 152.93 294.3 Z" stroke-linecap="round"/>
</g>
<g transform="matrix(1.7957 0 0 1.7957 349.8485 586.1758)" id="c3NYywEzKvtdpLx5haaxA">
<path style="stroke: none; stroke-width: 0; stroke-dasharray: none; stroke-linecap: butt; stroke-dashoffset: 0; stroke-linejoin: miter; stroke-miterlimit: 4; is-custom-font: none; font-file-url: none; fill: rgb(215,40,47); fill-rule: nonzero; opacity: 1;" vector-effect="non-scaling-stroke" transform=" translate(-142.0349, -296.1074)" d="M 150.62 293.11 C 150.95920718937876 299.17582754165824 149.4755734160193 305.2043957615767 146.36 310.42 C 145.91412151469635 310.53974519423855 145.45931497995312 310.62334933665454 145 310.67 C 139.28 311.13 134.12 304.99 133.47 296.94 C 132.82 288.89 136.92 282 142.64 281.54 C 144.3325459385364 281.4245830046243 146.0202640953632 281.8255904179199 147.48 282.69 C 149.30291263717416 285.88044453310346 150.3766370786077 289.4435683164594 150.62 293.11 Z" stroke-linecap="round"/>
</g>
<g transform="matrix(1.7957 0 0 1.7957 334.7873 584.3566)" id="1">
<path style="stroke: none; stroke-width: 0; stroke-dasharray: none; stroke-linecap: butt; stroke-dashoffset: 0; stroke-linejoin: miter; stroke-miterlimit: 4; is-custom-font: none; font-file-url: none; fill: rgb(1,1,1); fill-rule: nonzero; opacity: 1;" vector-effect="non-scaling-stroke" transform=" translate(-133.6176, -295.09)" d="M 136.86 317.1 L 136.38000000000002 317.1 C 128.38000000000002 317.1 121.38000000000002 307.54 120.80000000000003 295.78000000000003 C 120.24000000000002 283.65000000000003 126.52000000000002 273.47 134.8 273.08000000000004 L 135.28 273.08000000000004 C 139.59 273.08000000000004 143.59 275.85 146.47 280.21000000000004 C 145.4450977061276 279.8464330271167 144.36738835644067 279.6538642718435 143.28 279.64000000000004 L 142.55 279.64000000000004 C 136.12 280.24000000000007 131.83 287.16 131.83 295.19000000000005 C 131.83 295.80000000000007 131.83 296.4200000000001 131.9 297.05000000000007 C 132.61 305.57000000000005 137.9 312.45000000000005 144.5 312.5300000000001 Q 144.86 312.5300000000001 145.22 312.5300000000001 L 145.43 312.5300000000001 C 143.33447942528434 315.1804132086815 140.22846784325242 316.8367111001501 136.86 317.1 Z" stroke-linecap="round"/>
</g>
<g transform="matrix(1.7957 0 0 1.7957 345.9876 576.6505)" id="XJ630tejR6gngUQlR6IfD">
<path style="stroke: none; stroke-width: 0; stroke-dasharray: none; stroke-linecap: butt; stroke-dashoffset: 0; stroke-linejoin: miter; stroke-miterlimit: 4; is-custom-font: none; font-file-url: none; fill: rgb(255,255,255); fill-rule: nonzero; opacity: 1;" vector-effect="non-scaling-stroke" transform=" translate(-139.882, -290.7729)" d="M 143.14 291.73 C 142.32999999999998 294.5 140.22 296.33000000000004 138.42 295.81 C 136.61999999999998 295.28999999999996 135.82 292.61 136.63 289.81 C 137.44 287.01 139.54 285.21 141.34 285.74 C 143.14000000000001 286.27000000000004 143.94 289 143.14 291.73 Z" stroke-linecap="round"/>
</g>
<g transform="matrix(1.7957 0 0 1.7957 491.4743 488.1172)" id="kWMPhIJvSDpsuPzFVYUNX">
<path style="stroke: none; stroke-width: 0; stroke-dasharray: none; stroke-linecap: butt; stroke-dashoffset: 0; stroke-linejoin: miter; stroke-miterlimit: 4; is-custom-font: none; font-file-url: none; fill: rgb(1,1,1); fill-rule: nonzero; opacity: 1;" vector-effect="non-scaling-stroke" transform=" translate(-221.2075, -241.285)" d="M 270.38 259.7 C 268.52 227.20999999999998 248.20999999999998 201.7 224.44 201.7 Q 223.5 201.7 222.55 201.76 C 217.12472952718403 202.08955582545508 211.85752980360883 203.71498074015213 207.19 206.5 C 223.72 194.08 245.19 177.61 245.7 176.44 L 233.08999999999997 159.82999999999998 C 231.93 162 183.75 212 181.4 212.58 L 188.31 220.28 C 188.84 220.09 193.56 216.66 200.09 211.8 C 195.61939593708954 216.02697601649118 191.92059852635788 221.00157088728304 189.15999999999997 226.50000000000003 L 185.34 222.42 L 185.19 222.73 C 182.6617843207964 227.92046452571708 180.7230263855147 233.3778333158612 179.40999999999997 239.00000000000006 L 174.41 236.76 L 174.28 237.2 L 174.28 237.32999999999998 L 172.1 244.92999999999998 L 175.32999999999998 246.2 L 177.89 247.2 C 177.4455937597394 250.4566033911651 177.17520966951741 253.7345932257084 177.07999999999998 257.02 L 171.92 256.09 L 171.92 256.23999999999995 L 171.92 256.72999999999996 L 172.19 263.03 L 172.28 265.39 L 177.18 265.39 C 177.403881512333 268.8705006838156 177.82119279395334 272.33585356639077 178.43 275.77 L 173.03 276.60999999999996 L 174.97 285.54999999999995 L 180.15 283.54999999999995 C 181.58886197154675 288.92857342156356 183.55853545229817 294.15088797341986 186.03000000000003 299.14 L 186.14000000000001 299.3399999999999 L 190.67000000000002 297.3399999999999 C 199.17000000000002 312.75999999999993 212.67000000000002 322.7299999999999 227.54000000000002 322.7399999999999 C 228.16000000000003 322.7399999999999 228.79000000000002 322.7399999999999 229.42000000000002 322.6799999999999 C 252.82000000000002 321.3399999999999 270.49 295.6799999999999 270.49 264.4399999999999 C 270.51 262.88 270.47 261.29 270.38 259.7 Z" stroke-linecap="round"/>
</g>
<g transform="matrix(1.7957 0 0 1.7957 420.1987 556.8315)" id="eyxXVsvB8n2R_CEhBfH8F">
<path style="stroke: none; stroke-width: 0; stroke-dasharray: none; stroke-linecap: butt; stroke-dashoffset: 0; stroke-linejoin: miter; stroke-miterlimit: 4; is-custom-font: none; font-file-url: none; fill: rgb(255,255,255); fill-rule: nonzero; opacity: 1;" vector-effect="non-scaling-stroke" transform=" translate(-181.375, -279.695)" d="M 174.29 277.45 L 175.75 284.15 L 188.46 279.39 L 188.46 275.24 L 174.29000000000002 277.45 z" stroke-linecap="round"/>
</g>
<g transform="matrix(1.7957 0 0 1.7957 416.129 523.0704)" id="6">
<path style="stroke: none; stroke-width: 0; stroke-dasharray: none; stroke-linecap: butt; stroke-dashoffset: 0; stroke-linejoin: miter; stroke-miterlimit: 4; is-custom-font: none; font-file-url: none; fill: rgb(255,255,255); fill-rule: nonzero; opacity: 1;" vector-effect="non-scaling-stroke" transform=" translate(-179.09, -260.835)" d="M 173.29 264.35 L 184.89999999999998 264.35 L 185.17999999999998 259.5 L 172.99999999999997 257.32 L 173.28999999999996 264.34999999999997 z" stroke-linecap="round"/>
</g>
<g transform="matrix(1.7957 0 0 1.7957 418.7878 492.8252)" id="zw6jLDpSj6YWHTqtAXXwI">
<path style="stroke: none; stroke-width: 0; stroke-dasharray: none; stroke-linecap: butt; stroke-dashoffset: 0; stroke-linejoin: miter; stroke-miterlimit: 4; is-custom-font: none; font-file-url: none; fill: rgb(255,255,255); fill-rule: nonzero; opacity: 1;" vector-effect="non-scaling-stroke" transform=" translate(-180.57, -243.915)" d="M 173.34 244.29 L 186.93 249.66 L 187.8 243.89 L 175.09 238.17 L 173.34 244.29 z" stroke-linecap="round"/>
</g>
<g transform="matrix(1.7957 0 0 1.7957 503.4369 525.561)" id="UlA4c1IRwbeT5Uk1PnKYs">
<path style="stroke: none; stroke-width: 0; stroke-dasharray: none; stroke-linecap: butt; stroke-dashoffset: 0; stroke-linejoin: miter; stroke-miterlimit: 4; is-custom-font: none; font-file-url: none; fill: rgb(255,255,255); fill-rule: nonzero; opacity: 1;" vector-effect="non-scaling-stroke" transform=" translate(-227.89, -262.2253)" d="M 265 260.11 C 263.41 232.11 245.5 210.43 225 211.59 C 204.5 212.75 189.19 236.38 190.78 264.34000000000003 C 192.37 292.30000000000007 210.29 314.03000000000003 230.78 312.86 C 251.27 311.69 266.59 288.07 265 260.11 Z M 253.3 294.23 C 247.43 303.23 239.36 308.46000000000004 230.56 308.97 C 230.1 308.97 229.63 308.97 229.17000000000002 308.97 C 211.17000000000002 308.97 195.75 289.36 194.31 264.1 C 194.24 262.84000000000003 194.2 261.58000000000004 194.2 260.34000000000003 C 194.2 249.08000000000004 197.1 238.49000000000004 202.48999999999998 230.18000000000004 C 208.35999999999999 221.18000000000004 216.42999999999998 215.95000000000005 225.23 215.44000000000003 C 225.7 215.44000000000003 226.16 215.44000000000003 226.61999999999998 215.44000000000003 C 244.61999999999998 215.44000000000003 260.04999999999995 235.05 261.47999999999996 260.31 C 261.54999999999995 261.57 261.59 262.83 261.59 264.07 C 261.58 275.33 258.68 285.92 253.29 294.23 Z" stroke-linecap="round"/>
</g>
<g transform="matrix(1.7957 0 0 1.7957 503.4182 525.5327)" id="8">
<path style="stroke: none; stroke-width: 0; stroke-dasharray: none; stroke-linecap: butt; stroke-dashoffset: 0; stroke-linejoin: miter; stroke-miterlimit: 4; is-custom-font: none; font-file-url: none; fill: rgb(1,1,1); fill-rule: nonzero; opacity: 1;" vector-effect="non-scaling-stroke" transform=" translate(-227.885, -262.205)" d="M 253.29 294.23 C 247.42 303.23 239.35 308.46000000000004 230.54999999999998 308.97 C 230.08999999999997 308.97 229.61999999999998 308.97 229.16 308.97 C 211.16 308.97 195.74 289.36 194.3 264.1 C 194.23000000000002 262.84000000000003 194.19 261.58000000000004 194.19 260.34000000000003 C 194.19 249.08000000000004 197.09 238.49000000000004 202.48 230.18000000000004 C 208.35 221.18000000000004 216.42 215.95000000000005 225.22 215.44000000000003 C 225.69 215.44000000000003 226.15 215.44000000000003 226.60999999999999 215.44000000000003 C 244.60999999999999 215.44000000000003 260.03999999999996 235.05 261.46999999999997 260.31 C 261.53999999999996 261.57 261.58 262.83 261.58 264.07 C 261.58 275.33 258.68 285.92 253.29 294.23 Z" stroke-linecap="round"/>
</g>
<g transform="matrix(1.7957 0 0 1.7957 518.8668 529.3424)" id="MGIYjNTuIikpKGoZ9UJZf">
<path style="stroke: none; stroke-width: 0; stroke-dasharray: none; stroke-linecap: butt; stroke-dashoffset: 0; stroke-linejoin: miter; stroke-miterlimit: 4; is-custom-font: none; font-file-url: none; fill: rgb(255,255,255); fill-rule: nonzero; opacity: 1;" vector-effect="non-scaling-stroke" transform=" translate(-236.513, -264.34)" d="M 258 263.13 C 257 245.79 247.37 231.82 235.47 231.7 L 234.64 231.7 C 223.07 232.47 214.95 246.22 214.94 262.7 C 214.94 263.64 214.94 264.59999999999997 215.02 265.57 C 216.02 282.9 225.64000000000001 296.87 237.54000000000002 296.98 C 237.81000000000003 296.98 238.08 296.98 238.36 296.98 C 249.95000000000002 296.21000000000004 258.06 282.46000000000004 258.08000000000004 265.98 C 258.1 265.05 258.07 264.09 258 263.13 Z" stroke-linecap="round"/>
</g>
<g transform="matrix(1.7957 0 0 1.7957 522.2213 529.3427)" id="w92KFXdt43rj-NuOOMGiM">
<path style="stroke: none; stroke-width: 0; stroke-dasharray: none; stroke-linecap: butt; stroke-dashoffset: 0; stroke-linejoin: miter; stroke-miterlimit: 4; is-custom-font: none; font-file-url: none; fill: rgb(215,40,47); fill-rule: nonzero; opacity: 1;" vector-effect="non-scaling-stroke" transform=" translate(-238.405, -264.34)" d="M 240 292.43 L 239.31 292.43 C 229.42000000000002 292.43 221 280.43 220.14 265.37 C 220.08999999999997 264.53000000000003 220.07 263.7 220.07 262.88 C 220.07 248.54999999999998 227.18 236.82 236.79999999999998 236.25 C 237.02999999999997 236.25 237.26 236.25 237.48999999999998 236.25 C 247.38 236.25 255.80999999999997 248.25 256.66999999999996 263.31 C 256.72999999999996 264.15 256.73999999999995 264.98 256.73999999999995 265.8 C 256.75 280.13 249.64 291.86 240 292.43 Z" stroke-linecap="round"/>
</g>
<g transform="matrix(1.7957 0 0 1.7957 507.4101 514.2866)" id="dUJ2zqzgdgUKGETJemqRf">
<path style="stroke: none; stroke-width: 0; stroke-dasharray: none; stroke-linecap: butt; stroke-dashoffset: 0; stroke-linejoin: miter; stroke-miterlimit: 4; is-custom-font: none; font-file-url: none; fill: rgb(255,255,255); fill-rule: nonzero; opacity: 1;" vector-effect="non-scaling-stroke" transform=" translate(-230.1126, -255.9251)" d="M 236.29 257.25 C 235.16 262.52 231.47 266.19 228.06 265.45 C 224.65 264.71 222.8 259.86 223.94 254.6 C 225.07999999999998 249.33999999999997 228.75 245.66 232.16 246.4 C 235.57 247.14000000000001 237.42 252 236.29 257.25 Z" stroke-linecap="round"/>
</g>
<g transform="matrix(1.7957 0 0 1.7957 542.7277 550.4352)" id="11">
<path style="stroke: none; stroke-width: 0; stroke-dasharray: none; stroke-linecap: butt; stroke-dashoffset: 0; stroke-linejoin: miter; stroke-miterlimit: 4; is-custom-font: none; font-file-url: none; fill: rgb(255,255,255); fill-rule: nonzero; opacity: 1;" vector-effect="non-scaling-stroke" transform=" translate(-249.8656, -276.1212)" d="M 251.66 276.64 C 251.22 278.15999999999997 250.06 279.16999999999996 249.07 278.88 C 248.07999999999998 278.59000000000003 247.64 277.13 248.07 275.6 C 248.5 274.07000000000005 249.67 273.08000000000004 250.65 273.36 C 251.63000000000002 273.64 252.1 275.11 251.66 276.64 Z" stroke-linecap="round"/>
</g>
</svg>