<svg xmlns="http://www.w3.org/2000/svg" xmlns:xlink="http://www.w3.org/1999/xlink" version="1.1" id="Layer_1id51d5ca432" x="0px" y="0px" viewBox="0 0 96.3 72" style="width: 136px; height: 102px; display: block; transform: scale(1, 1); transition-property: none;" xml:space="preserve" aria-hidden="true" width="136" height="102"><defs><linearGradient class="cerosgradient" data-cerosgradient="true" id="CerosGradient_id51d5ca432" gradientUnits="userSpaceOnUse" x1="50%" y1="100%" x2="50%" y2="0%"><stop offset="0%" stop-color="#d1d1d1" style="transition-property: none;"></stop><stop offset="100%" stop-color="#d1d1d1" style="transition-property: none;"></stop></linearGradient><linearGradient></linearGradient></defs>
<style type="text/css">
	.st0-id51d5ca432{fill:#EC1C24;}
	.st1-id51d5ca432{fill:#FFFFFF;}
</style>
<g>
	<g>
		<path class="st0-id51d5ca432" d="M55,45.9H41.3c-0.2,0-0.3,0-0.4-0.1l-11.1-8.2c-0.1-0.1-0.2-0.2-0.3-0.4l-4.2-13.5c0-0.1,0-0.3,0-0.4    l4.2-14.5c0-0.2,0.1-0.3,0.3-0.4l11.4-8.2C41.2,0.1,41.4,0,41.5,0h13.2c0.2,0,0.3,0.1,0.4,0.1l11.4,8.2c0.1,0.1,0.2,0.2,0.3,0.4    l4.2,14.5c0,0.1,0,0.3,0,0.4l-4.2,13.5c0,0.1-0.1,0.3-0.3,0.4l-11.1,8.2C55.3,45.8,55.2,45.9,55,45.9 M41.8,44.4h11.4    c-4.4-4.3-9-8.2-13.6-11.6C40.1,36.6,40.9,40.5,41.8,44.4 M40.2,31.4c4.9,3.6,9.6,7.6,14.4,12.2c1.1-6.1,1.8-12,2-17.6    C50.5,27.4,44.9,29.3,40.2,31.4 M58,26.8c-0.2,5.3-0.9,11-1.9,16.7l9.1-6.8C63.1,32.6,60.8,29.4,58,26.8 M31.3,36.9l8.8,6.5    c-0.9-3.7-1.5-7.4-2-10.9C35.5,33.8,33.2,35.3,31.3,36.9 M27.2,24.9l3.4,10.7c1.9-1.6,4.2-3.1,6.8-4.4    C34.1,28.9,30.6,26.8,27.2,24.9 M58.9,25.6c2.7,2.5,5,5.6,7.1,9.4l3.4-10.8C66,24.5,62.4,25,58.9,25.6 M39.2,16.3    c-0.4,4.5-0.3,9.2,0.1,13.9c4.7-2.2,10.3-4.1,16.3-5.4c-3.5-2.7-7.2-4.3-11.1-6.1C42.8,18,41,17.2,39.2,16.3 M27.2,23.3    c3.7,1.9,7.3,4.1,10.7,6.5c-0.4-4.6-0.4-9.1-0.1-13.5C33.6,18.3,30.1,20.6,27.2,23.3 M57.5,11.6c0.5,4.1,0.7,8.4,0.6,12.7    c3.7-0.7,7.4-1.2,10.9-1.5C65.5,18.7,61.8,15,57.5,11.6 M40.3,15.2c1.5,0.8,3.1,1.4,4.8,2.2c3.8,1.7,7.7,3.4,11.4,6.3    c0.1-4.4-0.2-8.7-0.7-12.8C50.2,11.8,45,13.3,40.3,15.2 M30.5,10.3l-3.2,10.9c2.7-2.3,6-4.4,9.7-6.1    C34.6,13.7,32.4,12.1,30.5,10.3 M58.3,10.5c3.8,3,7.2,6.2,10.3,9.8L65.6,9.7C63.2,9.9,60.8,10.1,58.3,10.5 M42,1.8    c-1.2,4-2,8.1-2.5,12.2c4.6-1.9,9.7-3.4,15.3-4.4C51.2,7.1,47.1,4.6,42,1.8 M31.3,9c1.9,1.9,4.1,3.5,6.7,4.9    c0.4-3.9,1.2-7.7,2.2-11.4L31.3,9z M55.9,2.5c0.5,2.2,0.9,4.5,1.2,6.7c2.3-0.4,4.6-0.6,6.9-0.8L55.9,2.5z M44.4,1.5    c4.4,2.4,8,4.7,11.2,7c-0.4-2.3-0.8-4.7-1.4-7C54.2,1.5,44.4,1.5,44.4,1.5z" style="transition-property: none;"></path>
		<path class="st1-id51d5ca432" d="M41.1,56.8l-5.5,15h3.1l0.9-2.7h5.3l0.9,2.7h3.1l-5.5-15C43.4,56.8,41.1,56.8,41.1,56.8z M40.4,66.7l1.9-5.5    l1.8,5.5H40.4z M62.1,61.4c0-2.5-1.8-4.6-4.9-4.6h-5.9v15h2.9v-6h2.1l2.9,6h3.4l-3.4-6.5C60.8,64.9,62.1,63.6,62.1,61.4z     M57.1,63.4h-2.8v-4h2.8c1.3,0,2.1,0.8,2.1,2C59.2,62.6,58.4,63.4,57.1,63.4z M76.3,61.4c0-2.5-1.8-4.6-4.9-4.6h-5.9v15h2.9v-6    h2.1l2.9,6h3.4l-3.4-6.5C75,64.9,76.3,63.6,76.3,61.4z M71.2,63.4h-2.8v-4h2.8c1.3,0,2.1,0.8,2.1,2C73.4,62.6,72.5,63.4,71.2,63.4    z M79.7,56.8h2.9v15h-2.9V56.8z M95.1,64.2c0.8,0.8,1.2,1.9,1.2,3.2c0,2.9-2.4,4.6-5.6,4.6c-2.3,0-4-0.5-5.5-2l1.9-1.9    c1,1,2.2,1.3,3.6,1.3c1.7,0,2.7-0.7,2.7-1.9c0-0.5-0.1-1-0.5-1.3c-0.3-0.3-0.6-0.4-1.3-0.5l-1.8-0.3c-1.3-0.2-2.2-0.6-2.9-1.2    c-0.7-0.7-1.1-1.7-1.1-3c0-2.7,2-4.6,5.2-4.6c2.1,0,3.6,0.5,4.9,1.8l-1.9,1.8c-1-0.9-2.1-1-3.1-1c-1.6,0-2.3,0.9-2.3,1.9    c0,0.4,0.1,0.8,0.4,1.1c0.3,0.3,0.8,0.5,1.4,0.6l1.8,0.3C93.6,63.3,94.5,63.7,95.1,64.2z M19,67.5c0,3-2.2,4.5-4.8,4.5    c-2.1,0-4.2-1-4.7-3.3l2.6-1.1c0,1.3,1,2,2,2c1.2,0,2-0.7,2-2.1c0-1.2-0.8-2.1-2.1-2.1H14V63h0.1c1.3,0,1.9-0.8,1.9-1.9    c0-1.3-0.8-1.9-1.8-1.9c-1,0-1.8,0.7-1.9,1.8l-2.6-1.1c0.5-2,2.3-3.2,4.5-3.2c2.7,0,4.6,1.8,4.6,4.3c0,1.6-0.7,2.6-1.7,3.1    C18.1,64.7,19,65.7,19,67.5z M30.2,56.8h2.9v15h-2.9v-6.3h-5.1v6.3h-2.9v-15h2.9V63h5.1V56.8z M2.9,69.3h4.7v2.6H0v-15h2.9    L2.9,69.3L2.9,69.3z" style="transition-property: none;"></path>
	</g>
</g>
</svg>