<?xml version="1.0" encoding="UTF-8" standalone="no" ?>
<!DOCTYPE svg PUBLIC "-//W3C//DTD SVG 1.1//EN" "http://www.w3.org/Graphics/SVG/1.1/DTD/svg11.dtd">
<svg xmlns="http://www.w3.org/2000/svg" xmlns:xlink="http://www.w3.org/1999/xlink" version="1.1" width="1368.5" height="1455.586876" viewBox="0 0 1368.5 1455.586876" xml:space="preserve">
<desc>Created with Fabric.js 4.6.0</desc>
<defs>
</defs>
<g transform="matrix(1 0 0 1 684.25 727.8)" id="z_ggwINgPq0If09EIIJWp"  >
<path style="stroke: none; stroke-width: 1; stroke-dasharray: none; stroke-linecap: butt; stroke-dashoffset: 0; stroke-linejoin: miter; stroke-miterlimit: 4; fill: rgb(237,40,52); fill-rule: nonzero; opacity: 1;" vector-effect="non-scaling-stroke"  transform=" translate(-658.25, -700.15)" d="M 666.9546 0 C 667.3394000000001 0 731.4086 9.5238 838.383 25.493 C 872.2454 30.5916 910.3406 36.267399999999995 923.039 38.0952 C 935.7374 40.0192 1029.4362 53.968199999999996 1131.312 69.1678 L 1316.4969999999998 96.7772 L 1316.2083999999998 107.26299999999999 C 1316.1121999999998 113.13119999999999 1315.1501999999998 136.02679999999998 1314.0919999999996 158.249 C 1312.0717999999997 201.3466 1311.7831999999996 207.6958 1309.7629999999997 248.677 C 1309.4743999999996 254.44899999999998 1307.4541999999997 296.00739999999996 1305.4339999999997 341.029 C 1303.3175999999996 385.9544 1300.7201999999997 440.6922 1299.6619999999998 462.5296 C 1298.6037999999999 484.367 1297.7379999999998 502.7412 1297.7379999999998 503.22220000000004 C 1297.7379999999998 503.70320000000004 1237.0357999999999 504.088 1141.4129999999998 504.088 L 985.0879999999997 504.088 L 988.8397999999997 498.5084 C 990.8599999999998 495.5262 993.3611999999997 490.81239999999997 994.3231999999997 488.215 C 996.7281999999997 481.76959999999997 996.8243999999997 468.97499999999997 994.4193999999997 461.95239999999995 C 992.2067999999997 455.7956 897.8345999999997 322.07759999999996 891.1967999999997 315.8245999999999 C 885.7133999999998 310.72599999999994 879.1717999999997 308.4171999999999 871.2833999999997 308.9943999999999 C 865.9923999999996 309.3791999999999 856.5647999999997 313.32339999999994 786.4349999999997 344.29979999999995 C 679.3643999999997 391.72639999999996 679.8453999999997 391.53399999999993 673.3037999999997 392.68839999999994 C 669.0709999999997 393.5541999999999 666.0887999999997 393.45799999999997 661.4711999999997 392.68839999999994 C 657.0459999999997 391.82259999999997 628.8593999999997 379.89379999999994 562.1927999999997 350.4565999999999 C 479.3645999999997 313.9967999999999 468.30159999999967 309.3791999999999 463.0105999999997 308.9943999999999 C 455.12219999999974 308.4171999999999 448.5805999999997 310.72599999999994 443.0971999999997 315.8245999999999 C 439.3453999999997 319.2877999999999 351.2261999999997 442.2313999999999 343.2415999999997 455.02599999999995 C 335.35319999999973 467.62819999999994 336.02659999999975 485.0404 344.97319999999974 498.12359999999995 C 372.9673999999997 539.5858 512.7459999999998 758.8255999999999 512.7459999999998 761.423 C 512.7459999999998 761.7116 498.89319999999975 761.904 481.96199999999976 761.904 L 451.08179999999976 761.904 L 451.37039999999973 826.5504 L 451.6589999999997 891.293 L 454.2563999999997 896.5840000000001 C 455.6993999999997 899.5662000000001 458.1043999999997 903.0294 459.5473999999997 904.3762 C 461.95239999999967 906.5888 644.6361999999997 1025.492 654.3523999999998 1031.1678 C 657.3345999999998 1032.8994 660.1243999999998 1033.6689999999999 665.6077999999998 1033.9576 C 672.1493999999998 1034.2462 673.3999999999997 1034.0538 678.0175999999998 1031.5526 C 680.8073999999998 1030.1096 726.0213999999997 1001.1534 778.4503999999998 967.2909999999999 C 882.2501999999998 900.1433999999999 878.4021999999999 903.0293999999999 881.5767999999998 891.6777999999999 C 882.9235999999999 887.1564 883.1159999999999 877.6325999999999 883.1159999999999 824.1453999999999 L 883.1159999999999 761.9039999999999 L 852.0433999999999 761.7115999999999 L 820.9707999999999 761.4229999999999 L 855.6027999999999 705.8193999999999 L 890.2347999999998 650.3119999999999 L 1291.1963999999998 650.3119999999999 L 1290.6191999999999 656.2763999999999 C 1290.3305999999998 659.6433999999998 1289.8495999999998 667.7241999999999 1289.561 674.3619999999999 C 1289.2723999999998 680.9997999999998 1288.7913999999998 690.7159999999999 1288.5028 696.0069999999998 C 1288.3104 701.2979999999999 1286.0978 746.9929999999998 1283.789 797.4979999999998 C 1281.384 848.0029999999998 1279.2676 893.6979999999999 1278.979 898.9889999999998 C 1278.6904 904.2799999999999 1277.1512 936.1221999999998 1275.5158000000001 969.6959999999998 C 1273.4956000000002 1013.5631999999998 1272.3412 1031.0715999999998 1271.4754 1031.8411999999998 C 1270.8982 1032.4183999999998 1219.9122 1063.5872 1158.248 1101.0089999999998 C 1039.922 1172.9665999999997 777.5846 1332.4661999999998 707.1662000000001 1375.3713999999998 C 684.2706000000001 1389.3203999999998 665.2230000000001 1400.5757999999998 664.9344000000001 1400.2871999999998 C 664.7420000000001 1399.9985999999997 665.0306 1353.3415999999997 665.7040000000001 1296.5835999999997 L 666.8584000000001 1193.4571999999996 L 664.2610000000001 1191.2445999999995 C 662.8180000000001 1189.9939999999995 661.4712000000001 1189.1281999999994 661.2788 1189.3205999999996 C 661.0864 1189.5129999999995 657.046 1235.4965999999995 652.2360000000001 1291.5811999999996 C 647.5222000000001 1347.5695999999996 643.4818000000001 1394.0341999999996 643.3856000000001 1394.7075999999997 C 643.1932 1395.4771999999998 607.022 1374.0245999999997 553.7272 1341.6051999999997 C 504.569 1311.6869999999997 464.165 1287.0597999999998 463.97260000000006 1286.8673999999996 C 463.78020000000004 1286.5787999999995 476.67100000000005 1251.6581999999996 492.64020000000005 1209.1377999999995 C 508.60940000000005 1166.6173999999994 521.8850000000001 1131.0233999999996 522.0774 1130.1575999999995 C 522.5584 1128.6183999999996 519.1914 1124.6741999999995 517.4598 1124.5779999999995 C 517.1712 1124.5779999999995 501.39439999999996 1158.8251999999995 482.443 1200.5759999999996 C 457.1424 1256.4681999999996 447.6186 1276.5739999999996 446.65659999999997 1276.1891999999996 C 445.88699999999994 1275.9005999999995 406.2526 1251.8505999999995 358.53739999999993 1222.7981999999995 C 310.82219999999995 1193.8419999999994 270.32199999999995 1169.2147999999995 268.59039999999993 1168.1565999999996 L 265.51199999999994 1166.2325999999996 L 340.54799999999994 1107.8391999999997 C 381.8177999999999 1075.6121999999996 415.58399999999995 1048.8685999999996 415.58399999999995 1048.2913999999996 C 415.58399999999995 1047.6179999999997 414.91059999999993 1046.2711999999997 414.14099999999996 1045.3091999999997 C 412.7942 1043.5775999999996 412.60179999999997 1043.5775999999996 408.56139999999994 1046.2711999999997 C 406.2525999999999 1047.8103999999996 369.40799999999996 1073.1109999999996 326.69519999999994 1102.4519999999998 C 283.8861999999999 1131.7929999999997 248.86939999999993 1155.8429999999998 248.67699999999996 1155.8429999999998 C 247.90739999999997 1155.8429999999998 64.55019999999996 1044.1547999999998 64.45399999999995 1043.6737999999998 C 64.45399999999995 1043.3851999999997 124.48279999999994 1017.6035999999998 197.97959999999995 986.3385999999998 L 331.40899999999993 929.4843999999998 L 331.12039999999996 925.3477999999998 C 330.92799999999994 923.0389999999998 330.7356 921.0187999999998 330.54319999999996 920.9225999999998 C 330.35079999999994 920.7301999999997 265.8968 944.6839999999997 187.20519999999996 974.1211999999998 C 108.51359999999997 1003.5583999999998 44.05959999999996 1027.5122 43.86719999999997 1027.3197999999998 C 43.67479999999997 1027.1273999999999 42.61659999999997 1007.4063999999997 41.46219999999997 983.6449999999998 C 40.307799999999965 959.7873999999997 38.28759999999997 916.8821999999998 36.94079999999997 888.1183999999997 C 35.593999999999966 859.3545999999998 34.728199999999966 835.5931999999997 35.01679999999997 835.3045999999997 C 35.401599999999966 834.9197999999997 323.6168 789.9943999999997 326.88759999999996 789.8019999999997 C 326.9838 789.8019999999997 327.08 787.8779999999997 327.08 785.4729999999997 C 327.08 781.6249999999998 326.88759999999996 781.1439999999998 324.8674 781.1439999999998 C 323.61679999999996 781.1439999999998 257.816 787.5893999999997 178.64339999999999 795.5739999999997 C 99.47079999999998 803.4623999999998 34.343399999999974 810.0039999999997 33.86239999999998 810.0039999999997 C 33.38139999999998 810.0039999999997 32.900399999999976 807.1179999999997 32.80419999999998 803.4623999999997 C 32.70799999999998 799.9029999999997 32.22699999999998 788.3589999999997 31.74599999999998 777.7769999999997 C 31.26499999999998 767.1949999999997 30.591599999999982 752.8611999999997 30.20679999999998 746.0309999999997 C 29.91819999999998 739.1045999999998 28.47519999999998 709.0901999999998 27.032199999999982 679.1719999999997 C 25.58919999999998 649.2537999999997 24.53099999999998 624.6265999999997 24.62719999999998 624.5303999999996 C 24.81959999999998 624.1455999999996 57.81619999999998 623.0873999999997 99.56699999999998 621.9329999999997 C 111.20719999999997 621.6443999999997 125.73339999999997 621.2595999999996 131.79399999999998 620.9709999999997 C 137.85459999999998 620.6823999999997 151.99599999999998 620.2975999999996 163.05899999999997 620.0089999999997 C 174.21819999999997 619.7203999999997 196.24799999999996 619.0469999999997 212.12099999999998 618.5659999999997 C 227.99399999999997 618.0849999999997 251.37059999999997 617.4115999999997 264.06899999999996 617.1229999999997 C 276.76739999999995 616.8343999999997 289.94679999999994 616.3533999999997 293.31379999999996 616.0647999999997 L 299.47059999999993 615.4875999999997 L 293.31379999999996 612.1205999999997 C 285.90639999999996 608.0801999999998 289.17719999999997 608.3687999999997 228.47499999999997 607.0219999999997 C 204.13639999999998 606.4447999999998 168.63859999999997 605.5789999999997 149.59099999999995 605.0979999999997 C 130.54339999999996 604.6169999999997 94.37219999999995 603.6549999999997 69.26399999999995 603.0777999999997 C 44.15579999999996 602.5005999999997 23.47279999999995 601.9233999999997 23.47279999999995 601.8271999999997 C 23.37659999999995 601.8271999999997 22.79939999999995 590.4755999999998 22.22219999999995 576.7189999999997 C 21.64499999999995 562.9623999999997 20.87539999999995 548.2437999999997 20.68299999999995 544.0109999999997 C 20.39439999999995 539.7781999999997 18.85519999999995 508.41699999999975 17.31599999999995 474.26599999999974 C 15.77679999999995 440.1149999999997 14.237599999999949 407.98419999999976 13.948999999999948 402.7893999999997 C 13.467999999999948 396.63259999999974 13.660399999999948 393.45799999999974 14.333799999999949 393.45799999999974 C 14.814799999999948 393.45799999999974 40.11539999999995 398.84519999999975 70.41839999999995 405.57919999999973 C 208.85019999999997 435.8821999999997 253.39079999999996 445.50219999999973 254.54519999999997 445.2135999999997 C 255.21859999999995 445.0211999999997 254.25659999999996 443.2895999999997 252.23639999999997 440.9807999999997 L 248.67699999999996 437.0365999999997 L 131.31299999999996 402.5969999999997 C 66.76279999999996 383.74179999999967 13.564199999999957 367.8687999999997 13.083199999999962 367.4839999999997 C 12.313599999999962 366.71439999999967 1.6353999999999616 154.3047999999997 2.116399999999963 148.9175999999997 C 2.4049999999999634 146.32019999999972 5.002399999999963 147.66699999999972 119.67279999999997 211.25519999999972 L 236.94059999999996 276.1901999999997 L 239.44179999999997 273.68899999999974 C 241.65439999999998 271.4763999999997 241.75059999999996 271.09159999999974 240.40379999999996 270.03339999999974 C 239.53799999999995 269.35999999999973 185.08879999999996 230.39899999999975 119.38419999999996 183.35719999999975 C 53.77579999999996 136.31539999999976 -4.263256414560601e-14 97.54679999999975 -4.263256414560601e-14 97.25819999999975 C -4.263256414560601e-14 96.87339999999975 9.427599999999957 95.23799999999974 20.971599999999956 93.60259999999974 C 32.41939999999995 91.87099999999974 60.894599999999954 87.63819999999974 84.17499999999995 84.17499999999974 C 107.45539999999995 80.71179999999974 136.50779999999995 76.38279999999975 148.62899999999996 74.55499999999974 C 174.98779999999996 70.70699999999974 271.38019999999995 56.27699999999974 305.62739999999997 51.17839999999974 L 329.96599999999995 47.52279999999974 L 375.85339999999997 129.67759999999973 L 421.837 211.83239999999972 L 427.51279999999997 214.71839999999972 C 430.59119999999996 216.2575999999997 433.18859999999995 217.41199999999972 433.381 217.21959999999973 C 433.4772 217.02719999999974 418.75859999999994 177.96999999999974 400.5768 130.35099999999971 C 382.395 82.73199999999972 367.6764 43.28999999999971 367.86879999999996 42.80899999999971 C 368.0612 42.231799999999716 380.66339999999997 40.019199999999714 395.95919999999995 37.710399999999716 C 462.241 27.801799999999716 510.72579999999994 20.586799999999716 571.7166 11.543999999999716 C 607.6954 6.156799999999716 637.2288 2.0201999999997167 637.5174 2.3087999999997155 C 637.8059999999999 2.5973999999997157 638.8642 12.698399999999715 639.8262 24.723399999999714 C 640.692 36.74839999999971 645.502 97.93159999999972 650.312 160.6539999999997 C 655.2182 223.3763999999997 659.451 274.9395999999997 659.8358000000001 275.32439999999974 C 660.1244 275.7091999999997 661.8560000000001 276.1901999999997 663.5876000000001 276.28639999999973 L 666.666 276.5749999999997 L 666.666 138.2393999999997 C 666.666 62.2413999999997 666.7622 -2.8421709430404007e-13 666.9546 -2.8421709430404007e-13 z M 299.2782 285.233 C 281.6736 290.7164 278.3066 318.9992 289.6582 365.56 C 291.2936 372.19780000000003 294.2758 382.7798 296.3922 389.129 L 300.2402 400.673 L 313.5158 411.6398 C 328.13820000000004 423.8572 329.966 425.0116 327.6572 420.6826 C 325.34839999999997 416.1612 318.42199999999997 395.57439999999997 316.4018 387.01259999999996 C 312.169 369.1194 312.45759999999996 351.89959999999996 317.1714 341.22139999999996 C 319.865 335.25699999999995 325.92560000000003 329.00399999999996 329.004 329.00399999999996 C 330.0622 329.00399999999996 345.4542 331.60139999999996 363.25120000000004 334.87219999999996 C 381.04820000000007 338.04679999999996 395.67060000000004 340.54799999999994 395.76680000000005 340.3556 C 395.86300000000006 340.16319999999996 399.51860000000005 334.9684 403.84760000000006 328.8116 C 408.17660000000006 322.6548 411.73600000000005 317.0752 411.73600000000005 316.498 C 411.73600000000005 315.055 390.1872000000001 304.8578 372.77500000000003 297.9314 C 357.86400000000003 291.967 343.3378 287.5418 331.02420000000006 285.3292 C 321.30800000000005 283.5014 305.0502000000001 283.40520000000004 299.2782000000001 285.233 z M 984.607 289.562 C 969.3112 293.891 929.4843999999999 310.4374 923.1351999999999 315.1512 C 921.3073999999999 316.40180000000004 921.4997999999999 316.88280000000003 927.6565999999999 325.8294 C 931.2159999999999 331.0242 935.064 336.4114 936.3145999999999 337.9506 L 938.4309999999999 340.548 L 970.5618 334.776 C 988.2625999999999 331.6014 1003.5583999999999 329.004 1004.5204 329.004 C 1007.2139999999999 329.004 1013.6594 335.4494 1016.353 340.83660000000003 C 1023.6641999999999 355.94000000000005 1020.5858 383.93420000000003 1008.0798 415.39160000000004 C 1006.4444 419.33580000000006 1005.3862 422.79900000000004 1005.6748 422.99140000000006 C 1005.8672 423.28000000000003 1012.3126 418.18140000000005 1019.9124 411.73600000000005 L 1033.669 400.09580000000005 L 1036.8436000000002 390.47580000000005 C 1048.8686000000002 353.72740000000005 1053.39 317.07520000000005 1048.0990000000002 300.3364 C 1045.8864 293.12140000000005 1040.2106 287.06080000000003 1033.8614000000002 285.233 C 1023.5680000000002 282.1546 1005.0976000000003 283.79 984.6070000000002 289.562 z M 447.5705 476.11501 L 494.9971 476.11501 L 542.4236999999999 476.21121 L 588.0224999999999 523.73401 L 588.0224999999999 567.02401 L 587.9263 610.3140099999999 L 582.3466999999999 569.42901 C 579.2683 546.9182099999999 576.6709 528.4478099999999 576.6709 528.25541 C 576.5747 528.15921 555.6993 528.06301 530.2062999999999 528.06301 L 483.7416999999999 528.06301 L 471.5242999999999 510.45840999999996 C 464.79029999999995 500.83840999999995 456.70949999999993 489.19820999999996 453.4386999999999 484.48440999999997 z M 792.3254 476.10761 L 886.9861999999999 476.10761 L 875.4422 492.65401 C 869.093 501.79301000000004 860.9159999999999 513.52941 857.4527999999999 518.62801 L 851.0074 527.95941 L 804.3503999999999 528.24801 L 757.7896 528.53661 L 746.8227999999999 609.34461 L 746.6303999999999 523.7266099999999 L 769.4297999999999 499.86900999999995 z M 756.8387 722.80141 L 757.1273 748.7754100000001 C 757.2235 763.1092100000001 757.2235 774.94181 757.0311 775.0380100000001 C 756.8387 775.2304100000001 742.4087000000001 780.0404100000001 724.9965000000001 785.6200100000001 C 707.5843000000001 791.1996100000001 692.8657000000001 796.3944100000001 692.3847000000001 797.0678100000001 C 691.3265 798.3184100000001 677.9547000000001 862.8686100000001 678.5319000000001 863.3496100000001 C 678.7243000000001 863.5420100000001 696.5213000000001 871.8152100000001 718.0701 881.8200100000001 L 757.3197 900.0018100000001 L 757.3197 905.96621 C 757.3197 909.33321 757.0311 912.0268100000001 756.7425000000001 912.0268100000001 C 756.3577 912.0268100000001 736.1557 905.48521 711.7209 897.50061 L 667.2765 882.8782100000001 L 622.9283 897.50061 C 598.5897 905.48521 578.2915 912.0268100000001 578.0029000000001 912.0268100000001 C 577.7143000000001 912.0268100000001 577.4257000000001 909.3332100000001 577.4257000000001 905.96621 L 577.4257000000001 900.0018100000001 L 616.6753000000001 881.8200100000001 C 638.2241000000001 871.7190100000001 655.9249000000001 863.4458100000002 656.1173000000001 863.3496100000001 C 656.5983000000001 863.0610100000001 643.8999000000001 800.4348100000001 642.9379000000001 797.93361 C 642.3607000000002 796.77921 640.4367000000001 795.5286100000001 637.9355000000002 794.75901 C 635.6267000000001 794.08561 621.0043000000002 789.37181 605.6123000000001 784.36941 L 577.4257000000001 775.13421 L 577.4257000000001 749.06401 L 577.5219000000001 722.99381 L 585.1217 737.90481 L 592.7215 752.91201 L 667.3727 762.14721 L 741.6391 752.91201 L 749.2389 737.90481 z M 563.5883 804.89977 C 567.1477 808.84397 562.2415 814.23117 557.8163 811.24897 C 555.1227 809.51737 554.8340999999999 806.82377 557.0467 804.61117 C 559.0669 802.59097 561.5681 802.68717 563.5883 804.89977 z M 777.6925 804.89977 C 781.2519 808.84397 776.3457 814.23117 771.9205 811.24897 C 769.2269 809.51737 768.9382999999999 806.82377 771.1509 804.61117 C 773.1711 802.59097 775.6723 802.68717 777.6925 804.89977 z M 522.82441 819.84131 C 526.48001 819.84131 528.3078099999999 822.82351 526.76861 826.19051 C 525.99901 827.92211 524.9408099999999 828.49931 522.82441 828.49931 C 519.1688099999999 828.49931 517.14861 825.1323100000001 518.8802099999999 821.8615100000001 C 519.6498099999999 820.51471 520.90041 819.84131 522.82441 819.84131 z M 814.41363 820.61181 C 817.78063 822.92061 816.14523 828.50021 812.10483 828.50021 C 808.9302299999999 828.50021 807.10243 826.96101 807.10243 824.1712100000001 C 807.10243 823.0168100000001 807.58343 821.67001 808.25683 820.99661 C 809.50743 819.7460100000001 812.77823 819.45741 814.41363 820.61181 z M 554.2933 839.6545 C 554.2933 842.0595 552.0807000000001 844.2721 549.5795 844.2721 C 548.0403 844.2721 545.6353 841.3861 545.6353 839.4621000000001 C 545.6353 838.5001000000001 546.3087 836.9609 547.1745000000001 836.1913000000001 C 550.2529000000001 833.0167 554.2933 834.9407000000001 554.2933 839.6545000000001 z M 787.57185 836.18852 C 789.5920500000001 838.2087200000001 789.49585 840.70992 787.2832500000001 842.73012 C 783.33905 846.28952 777.95185 841.38332 780.9340500000001 836.95812 C 782.66565 834.2645200000001 785.3592500000001 833.97592 787.57185 836.18852 z M 526.67823 859.76392 C 528.12123 861.4955199999999 527.15923 865.92072 525.23523 866.6903199999999 C 520.90623 868.3257199999999 516.86583 864.1891199999999 518.98223 860.24492 C 520.2328299999999 857.93612 524.85043 857.64752 526.67823 859.76392 z M 815.66296 860.43609 C 817.29836 864.76509 811.91116 868.8054900000001 808.44796 866.0156900000001 C 806.81256 864.5726900000001 806.71636 861.0132900000001 808.25556 859.47409 C 810.27576 857.45389 814.79716 858.0310900000001 815.66296 860.43609 z M 567.7243 863.25711 C 568.8787 863.25711 570.2255 863.73811 570.8989 864.41151 C 571.5723 865.08491 572.0533 866.4317100000001 572.0533 867.5861100000001 C 572.0533 868.7405100000001 571.5723 870.0873100000001 570.8989 870.7607100000001 C 570.2255 871.4341100000001 568.8787 871.9151100000001 567.7243 871.9151100000001 C 566.5699 871.9151100000001 565.2230999999999 871.4341100000001 564.5496999999999 870.7607100000001 C 563.8762999999999 870.0873100000001 563.3952999999999 868.7405100000001 563.3952999999999 867.5861100000001 C 563.3952999999999 866.4317100000001 563.8762999999999 865.08491 564.5496999999999 864.41151 C 565.2230999999999 863.73811 566.5699 863.25711 567.7243 863.25711 z M 767.0285 863.25711 C 768.1829 863.25711 769.5297 863.73811 770.2031000000001 864.41151 C 770.8765000000001 865.08491 771.3575000000001 866.4317100000001 771.3575000000001 867.5861100000001 C 771.3575000000001 868.7405100000001 770.8765000000001 870.0873100000001 770.2031000000001 870.7607100000001 C 769.5297 871.4341100000001 768.1829 871.9151100000001 767.0285 871.9151100000001 C 765.8741 871.9151100000001 764.5273 871.4341100000001 763.8539 870.7607100000001 C 763.1804999999999 870.0873100000001 762.6995 868.7405100000001 762.6995 867.5861100000001 C 762.6995 866.4317100000001 763.1804999999999 865.08491 763.8539 864.41151 C 764.5273 863.73811 765.8741 863.25711 767.0285 863.25711 z" stroke-linecap="round" />
</g>
</svg>