<svg xmlns="http://www.w3.org/2000/svg" viewBox="0 0 452 759.25"><defs><style>.cls-1{fill:#fff;}.cls-2{fill:#010101;}.cls-3{fill:#d7282f;}.cls-4{fill:#231f20;}</style></defs><g id="Layer_2" data-name="Layer 2"><path class="cls-1" d="M187.65,759.25l-8-7.57-6-5.68c-7.08-6.7-7.15-26.76-4.17-33,3.24-6.81-6.07-21.54-13.55-33.37-3.68-5.83-7.49-11.85-10.46-17.66-3.07-6-8.81-14.18-13.16-19.8-2.12-2.75-4.13-5.2-5.75-7.17a142.32,142.32,0,0,1-12.37-16.81c-7.61-12.3-9.76-20-2.38-33.42,2.07-3.75,2.67-8,3.36-12.83,1-6.75,2-14.38,7.67-21.13,2.33-2.78,4.64-5,6.86-7.24,3.57-3.5,6.64-6.52,9-10.85a67.14,67.14,0,0,0,4.09-10c2.75-7.84,5.85-16.7,15.58-23.75a112.11,112.11,0,0,1,23-12.21c-1.55,0-3.07,0-4.56,0-12.24,0-22.46-.89-30.39-2.65l-.24-.05-.31-.1h0l-.09,0c-.25-.09-.5-.18-.77-.26-1.93-.63-5.16-1.69-7-5.2-13.24-26.22-24.35-85.31-29.8-118.2-4-24.47-7.55-50.08-9.94-72.57a101,101,0,0,1-17.51-2.14,39.11,39.11,0,0,0-6.69-.68c-4.35-.21-9.29-.45-14.69-2.68-13.38-5.69-26.78-11.9-39.73-17.9l-4.34-2c-3.67-1.71-7.45-3.48-10.42-6.61S.2,248.09,0,242.57c0-.49,0-1,0-1.52a31.11,31.11,0,0,1,6.7-19.84c.6-.76,1.13-1.48,1.65-2.18a32.87,32.87,0,0,1,7.3-7.75,15.26,15.26,0,0,0,2.07-1.73c.07-.19.14-.45.25-.76.27-.87.69-2.19,1.4-3.91,2.49-5.69,8.45-12.68,13.92-16.32l0,0,.05,0c.18-.12.53-.38.86-.64a25.55,25.55,0,0,1,2.51-1.77l3.63-2.15,5.77-3.41.44,6.69.27,4.18c.27,4.26,1,7,2,8.13s3.86,2.15,8.18,2.73a75.69,75.69,0,0,0,9.5.61,35.13,35.13,0,0,0,6.66-.51c2.74-.55,5.23-2.66,8.38-5.32,1.63-1.38,3.47-2.94,5.54-4.42l.48-.33c.76-3.49,1.63-6.9,2.48-10.21,2-7.68,3.81-14.93,4.17-22.42.89-17.67,2-35.36,3.38-52.58.52-6.43,2-14.23,3.37-21.78,1.65-8.92,3.36-18.14,3.34-24.18.06-4,1.62-8.92,4.63-14.67,2.36-4.32,5.63-9.52,10.32-12.1l.07,0,.09,0a12.76,12.76,0,0,1,5.83-1.22c1.8,0,3.59.2,5,.35.9.1,1.84.19,2.31.19h.16c1.29-.13,1.32-.16,2-.83.31-.34.83-1.07,1.44-1.93.77-1.1,1.74-2.46,3-4s2.2-2.68,3.26-4a103.64,103.64,0,0,1,8.64-9.82A41,41,0,0,1,169.47,2.73C176.61.85,182,0,187,0c6.17,0,12,1.34,18.84,4.34,5.86,2.54,12,5.09,18,7.57,18.09,7.5,36.79,15.27,53.66,25.3,4.17,2.48,8.23,5,12.14,7.51,6.47,4.08,12.59,8,19.08,11.42,2.05,0,4.09,0,6.15,0,7.4,0,14.9.09,22.15.17l11.52.12c14.56.11,24.39,5.39,34.81,11,1.16.62,2.34,1.26,3.54,1.89l2.93,1.55c8,4.22,16.31,8.58,24.3,14.18,1.67,1.17,3.56,2.44,5.56,3.77,4.14,2.77,8.84,5.9,13.29,9.38,5,3.92,10.9,9.11,14.72,15.77l.28-.11,1.56,3.82s0,.07,0,.11l1.54,3.68-.32.12a50.41,50.41,0,0,1,1.25,12.1c0,3.32-.19,6.67-.35,9.62-.09,1.59-.17,3.12-.23,4.54-.58,14.32-9.06,24.81-16.54,34.06l-2.05,2.55c-16.2,20.15-36.45,32.5-57.38,35.12,0,6.3,0,12.73,0,19.13,0,43-.71,69-2.08,77.12-2.16,12.15-13.36,22.14-24.19,31.81l-.35.3c-5.77,5.09-11.72,10.33-16,15.26L343,410.57l1.4-.29.86,4,11.48,53.46a32,32,0,0,1,6.38,7.69,109.79,109.79,0,0,0,9.07,12c3.94,4.71,8,9.55,11.12,15.05,10.74,18.77,7.63,49.88,6.41,59-3.7,27.86-25.49,41.4-44.7,53.34-4.44,2.75-9,5.6-13.15,8.49-4.64,3.24-9.92,6.47-15.52,9.91l-.14.08c-7.64,4.7-15.52,9.53-21.3,14.13-6.14,4.89-12.79,10.1-19.84,15.09-12.43,8.79-24.48,17.67-35.4,29.43l-.2.22c-9.07,9.78-19.37,20.87-30.58,28.82a65.68,65.68,0,0,1-12.07,6.36c-9.15,4-11.76,5.47-11,12.73l.8,8.23,1.08,11Z"/><path class="cls-2" d="M445.67,119.19l-.47.2h0l.47-.2c-2.89-7-8.85-12.71-15.28-17.78s-13.49-9.38-18.68-13c-8.71-6.1-17.65-10.63-26.78-15.46-11.66-6.16-21.36-12.29-36.46-12.41-11.16-.09-22.4-.28-33.64-.28q-3.58,0-7.16,0c-11.08-5.82-21.2-12.9-32.31-19.51C253.11,27.53,227.47,18.23,204.2,8.11c-6-2.59-11.24-4-17.19-4a64.54,64.54,0,0,0-16.5,2.6A36.6,36.6,0,0,0,153.93,16c-4.24,4.06-7.61,8.73-11.58,13.46-2.21,2.66-3.48,4.88-4.65,6.14s-2,1.79-4.61,2.06h-.4c-1.53,0-4.6-.53-7.34-.54a8.68,8.68,0,0,0-4.06.79c-3.47,1.91-6.23,6-8.66,10.4s-4.11,9.08-4.17,12.75c0,11.64-5.59,32.43-6.71,46.29q-2.06,26.22-3.38,52.47c-.58,11.81-4.62,22.93-7.07,34.91-.61.4-1.2.79-1.78,1.19-6,4.28-10,9.32-15.42,10.41a37.39,37.39,0,0,1-7.55.61,80.21,80.21,0,0,1-10-.64c-5.81-.78-8.93-2.09-10.65-4s-2.75-5.08-3.11-10.67l-.27-4.18-3.61,2.13c-1.38.84-2.45,1.83-3.3,2.36-4.77,3.19-10.25,9.57-12.39,14.47-1.13,2.75-1.43,4.3-1.79,5s-.8,1.31-3.26,3.16c-4.08,3.08-5.52,5.8-8.19,9.19a27,27,0,0,0-5.82,17.29c0,.46,0,.92,0,1.39.14,4.49,1.35,7.94,3.74,10.46s5.44,4,9.16,5.71c14.6,6.75,29.17,13.56,43.92,19.83,7.66,3.17,14.56,1.77,20.65,3.13A98.72,98.72,0,0,0,102,283.71c2.31,22.55,5.89,49.31,10.28,75.94,8,48,18.51,95.41,29.4,117,1.22,2.37,3.62,2.79,5.49,3.47l.07,0,.08,0c8.09,1.79,18.22,2.55,29.49,2.55,7.67,0,15.87-.35,24.31-1l.9-.07,8.3,3.38.58-.2c7.53-2.35,8.45-2.57,10.49-3.53l1.89-.77.59,1.88a46.45,46.45,0,0,1,2.07,6.09,7.13,7.13,0,0,1,.38,2.75c14.36-1,27.86-4.83,41.49-9,8.11-2.49,14.82-1.83,22.93-3.09a23.55,23.55,0,0,0,5.44-1.39,11,11,0,0,1,4.54-.86c1.11,0,2.46.1,4.29.29l18.54-1-1.82-10.91,1.93,0s1.42-.06,3.12-.16l.62-.05-10.08-54.18,1.85-12.81,4.45,20.88-1.41.3,10.21,47.52c-2.11.3-4.5.49-4.52.5l-3.42.27.62,3.37,1.32,7.05L308,478.9a46.3,46.3,0,0,0-4.66-.29,14,14,0,0,0-5.38.95,25.57,25.57,0,0,1-5.57,1.32c-3.29.46-6.36.66-9.33.87a70.51,70.51,0,0,0-15.6,2.25c-13.25,3.8-28.67,7.76-44,8.92.26-1.81.07-3.3-1-6.33l-1.1-3.22-3.1,1.39A31.94,31.94,0,0,1,211,487.2c-1.32.3-2.82.65-4.94,1.27a9.37,9.37,0,0,1-2.6.32,36.12,36.12,0,0,1-4.54-.4,43.55,43.55,0,0,0-5.27-.44,16.08,16.08,0,0,0-3.67.39c-8.83,2.09-22.24,8.91-29.23,14-8.68,6.3-11.43,14.16-14.09,21.75a71.3,71.3,0,0,1-4.37,10.59c-2.63,4.86-6.07,8.24-9.71,11.82-2.16,2.13-4.4,4.33-6.59,6.95-4.88,5.84-5.83,12.56-6.75,19.05-.72,5.06-1.39,9.84-3.83,14.25-6.34,11.49-4.91,17.65,2.27,29.26a140.08,140.08,0,0,0,12,16.37c1.85,2.24,3.76,4.57,5.83,7.26,4.46,5.77,10.37,14.16,13.57,20.44,2.88,5.64,6.63,11.58,10.27,17.33,8.85,14,18,28.49,13.79,37.35-2.4,5-2.1,23.18,3.28,28.27l6,5.67-.81-8.22c-1-10.57,4.74-13.09,13.49-16.92a61.93,61.93,0,0,0,11.34-5.94c10.86-7.7,21-18.63,29.94-28.26l.21-.22c11.18-12.06,23.42-21.07,36-30,6.95-4.92,13.56-10.09,19.65-14.94s14-9.67,21.72-14.42c5.59-3.43,10.88-6.67,15.45-9.86,4.23-2.95,8.85-5.82,13.32-8.6,19.35-12,39.36-24.46,42.81-50.39,1.17-8.76,4.19-38.72-5.9-56.37-3-5.2-6.89-9.9-10.68-14.44a108.66,108.66,0,0,1-9.45-12.49,26.42,26.42,0,0,0-6.59-7.55l-11.78-54.89-1.4.3-11.41-53.41c4.62-5.72,11.34-11.62,18.06-17.53,10.47-9.35,21-18.76,22.87-29.43,1.56-9.26,2-42.37,2-76.43,0-7.68,0-15.39-.07-22.87,23.61-1.59,43.65-15.73,58.3-34,7.81-9.77,17.12-20,17.7-34.18.15-4.12.57-9.06.57-14S447.46,123.57,445.67,119.19Z"/><path class="cls-1" d="M325.71,283.13a6.65,6.65,0,0,0-5.41,3.19,13.17,13.17,0,0,0,0,13.89,6.17,6.17,0,0,0,10.82,0,13.17,13.17,0,0,0,0-13.89A6.65,6.65,0,0,0,325.71,283.13Zm7.77-46.67a6.18,6.18,0,0,0-10.82,0,13.23,13.23,0,0,0,0,13.89,6.17,6.17,0,0,0,10.82,0,13.17,13.17,0,0,0,0-13.89Z"/><path class="cls-1" d="M310.94,320.55q.27-6.17.51-12.35h0l.05-1.35,25-2.42,1.25-23.05-27.55-3.16,0-1.42q.28-8.57.52-16.93h0l.05-1.42,27.47-1.5-.43-25.79-26.29-2.76,0-1.43c.37-18.25.57-32.14.57-42.74h0c0-11.81-.25-19.55-.75-24.63h0l3.07-.31c.53,5.29.77,13.08.77,24.94h0c0,10.36-.19,23.82-.54,41.39h0l26.19,2.75.52,31.5-27.61,1.51q-.19,7-.43,14.09h0L341,278.64l-1.56,28.61-24.94,2.41c-.15,3.68-.31,7.36-.46,11h0l-3.09-.13Z"/><path class="cls-1" d="M295.19,161c-2.59,0-5.18.07-7.77.07h-2c-6.54,0-11.6.19-17.26,2.6-1.18.51-2.31,1-3.4,1.5-4.72,2.12-9.19,4.11-14.76,4.63-1.63.16-3.27.2-4.87.23a32.7,32.7,0,0,0-9.45,1.14c-4.38,1.4-8.35,3.87-12.2,6.26-2,1.26-4.15,2.56-6.28,3.69a91.9,91.9,0,0,1-12.87,5.28c-2.72.95-5.54,1.95-8.3,3.1-4.68,2-9.22,4.38-13.61,6.71-3.92,2.07-8,4.22-12.08,6-4.54,2-9.18,4-13.67,5.83-11.48,4.8-23.35,9.76-34.46,16.31a100,100,0,0,1-10.27,5.08c-3.21,1.45-6.5,2.94-9.6,4.7-.09,1.64-.13,3.5-.13,5.58,0,23.05,5.23,71.52,13.14,119.38s18.56,95.31,29.13,116.15c.19.63,1.53,1.22,3.59,1.85,7.73,1.72,17.66,2.47,28.76,2.47,7.23,0,15-.32,22.92-.89l1.8-8.29L202.72,455l9.87,9.88,4.87,12.23c33.68-3.74,68.2-11,85-17.25,2.18-1,2.89-2.35,3.29-4.44,4-26.49,7.43-78.94,9.78-133.24l-17.67-.52Z"/><path class="cls-1" d="M441.39,121c-4.58-11.42-21.61-21.36-32.34-28.79-8.36-5.86-17.11-10.3-26.29-15.15-11.94-6.32-20.57-11.76-34.33-11.87-11.25-.1-22.53-.29-33.78-.29-3.06,0-6.13,0-9.18.06h0c-2.33,0-4.68.06-7,.12l-1,0c-2.45.06-4.91.13-7.36.23-18.84.73-37.52,1.06-54.37,9-16,7.53-31.93,15-48,22.23-15.26,6.9-30.6,14-45.89,20.9-7.92,3.58-15,6-20.91,11.38-1.28,1.13-2.69,3.14-4.51,4.95,1.36,2,2.89,3.76,4.35,5.75a20,20,0,0,1,4,9,64.67,64.67,0,0,1,.64,9.62,67.55,67.55,0,0,1-.59,9.36c-1.23,8.46-6.77,14.61-13.17,19.55-.73.57-1.49,1.12-2.25,1.66l-.67.48L107,190.33l-.63.42c-.73.48-1.46,1-2.2,1.43l0,0c-4.23,2.7-8.45,5.14-12,7.58-5.24,3.55-9.53,9.4-17.08,11.13a42.93,42.93,0,0,1-8.54.72,84.28,84.28,0,0,1-10.66-.69c-6.15-.84-10.51-2.28-13.45-5.47-2.28-2.51-3.39-5.75-4-9.86-.12.08-.25.18-.39.26-3.67,2.31-9.24,8.86-10.63,12.36-1,2.41-1.15,3.6-1.9,5.2s-2.08,2.92-4.65,4.84c-3.38,2.55-4.36,4.54-7.33,8.35a22.34,22.34,0,0,0-4.83,14.43c0,.4,0,.8,0,1.21.18,3.89,1,5.85,2.5,7.47s4,3,7.73,4.67c14.61,6.77,29.13,13.55,43.78,19.78,6,2.63,12.44,1.39,19.79,2.86a84,84,0,0,0,17.87,2h1l-1.34-16c-1.44-.51-2-1.2-3.6-2.38a12.85,12.85,0,0,1-4.7-7.51,31.29,31.29,0,0,1-1.06-7.45,13.49,13.49,0,0,1,5.86-11.68c7.6-5.35,16.72-8,24-12.35,15.66-9.23,32.24-15.12,48.45-22.3,8.55-3.77,16.7-8.93,25.74-12.75,7.25-3.05,14.45-4.82,20.93-8.27,6-3.18,11.81-7.87,19-10.17,5.42-1.68,10.27-1,14.95-1.49,6.26-.58,10.93-3.2,17.24-5.9S279.12,158,285.4,158h2c12.22,0,24.3-.63,36.62-.63,4.92,0,11-.54,17.16-.54,6.29,0,12.63.55,17.91,3.09s9.36,7.37,10.33,14.9a98.29,98.29,0,0,1,.78,13.78c0,1.9,0,3.81,0,5.82,0,5.38.13,10.6.16,16.79,22.16-1.24,41.36-14.54,55.63-32.28,8-9.92,16.28-19.43,16.68-31.45.15-4.29.57-9.15.56-13.84S442.8,124.36,441.39,121Z"/><path class="cls-1" d="M120.73,166.87a65.88,65.88,0,0,0,.54-8.77,61.69,61.69,0,0,0-.59-9,15.91,15.91,0,0,0-3.24-7.18c-1.6-2.21-3.66-4.47-5.46-7.47l-.92-1.55,1.41-1.12c1.82-1.41,3.55-4,5.69-6,6.67-6,14.34-8.59,22-12.08,15.28-6.93,30.61-14,45.89-20.9,16.08-7.27,32-14.68,48-22.2,17.91-8.42,37.21-8.65,56-9.41,2.76-.11,5.54-.18,8.31-.25-8.72-5.08-16.92-10.62-25.55-15.74C251.07,32.29,225.61,23,202.15,12.83c-5.62-2.43-10-3.55-15.14-3.56a59.48,59.48,0,0,0-15.19,2.43,31.39,31.39,0,0,0-14.33,8.06c-3.79,3.62-7.1,8.14-11.2,13.05-1.9,2.25-3,4.34-4.78,6.3a11.32,11.32,0,0,1-8,3.73l-.79,0c-2.34,0-5.26-.55-7.34-.54a4.64,4.64,0,0,0-1.68.2c-1.49.67-4.44,4.25-6.48,8.22-2,3.7-3.53,7.37-3.58,10.39,0,12.9-5.72,33.58-6.72,46.67q-2.07,26.14-3.38,52.33c-.58,11.26-3.88,21.41-6.25,31.49a136.94,136.94,0,0,0,11.86-7.87C115.17,179.07,119.74,173.77,120.73,166.87Z"/><path class="cls-2" d="M244.26,411.54c-.49,0-58.54,7-78.07,10.66l-.53.1,1.61,6.82.48-.08c19.41-3.61,75.77-10.57,76.56-10.65l.46,0v-6.81Z"/><polygon class="cls-2" points="330.08 297.7 327.35 297.71 325.94 293.37 327.29 289.01 330.03 288.99 331.43 293.33 330.08 297.7"/><polygon class="cls-2" points="332.44 247.83 329.7 247.85 328.3 243.51 329.65 239.15 332.39 239.13 333.79 243.47 332.44 247.83"/><path class="cls-1" d="M338.92,418.81l-13,2.78,9.65,45.25a41.46,41.46,0,0,1,4.41-.27,22,22,0,0,1,9.52,1.95ZM337,416.37l-11.09-52.06-8,12.21,9,42Z"/><path class="cls-1" d="M252.58,570.55c5.86,5.61,5.86,18.82,8.41,25.74h0c2.56,7.11,6.6,13.74,9.59,20.75h0c2,4.7,2.38,11,4.5,15h0c3.45,6.65,9.83,6.79,15.25,9.09h0c10.48-8.27,26.27-16.67,37.11-24.22h0c22-15.33,50.63-26.41,54.62-56.52h0a152.91,152.91,0,0,0,1.29-19.63h0c0-12.43-1.68-25.61-6.75-34.47h0c-5.38-9.42-14.21-17.27-20.07-26.84h0c-4.42-7.16-9.18-9.8-16.51-9.83h0a41.71,41.71,0,0,0-6.53.58h0c-1.75.27-3.77.47-4.74.56h0l2,10.54L308,482.51c-20.43,6.87-30.24,22.6-41.18,41.3h0c-7,11.94-11.28,25.17-20.08,36.14h0a23.43,23.43,0,0,1-6.54,5.78h0c3.74,1.06,7.57.28,12.39,4.82Z"/><path class="cls-2" d="M193.64,491.56a12.47,12.47,0,0,0-2.83.29h0c-8.11,1.91-21.18,8.47-27.94,13.39h0c-11.58,8.37-11.33,19.84-17.41,31.13h0c-4.54,8.38-11,12.5-16.7,19.37h0c-7.72,9.13-4.12,21.6-10.19,32.73h0c-2.45,4.42-3.61,7.77-3.61,11h0c0,4.18,1.92,8.36,5.78,14.6h0c5.75,9.29,10.53,14.21,16.77,22.17h0c.44-17.68,8.85-32.07,21.63-45h0c6-6,13.63-15,21.05-19.36h0c7.36-4.28,16.22-4.58,24.61-4.59h6.84c5.23,0,10,.44,14.42.44h0c7.67,0,14.07-1.29,19.87-8.5h0c8.65-10.77,12.94-23.95,20-36h0c10.54-18,20.21-33.63,39.59-41h0c-.87-.06-1.59-.08-2.2-.08h0c-4,0-3.58,1.23-10.45,2.22h0c-9.07,1.29-16.17.65-24.44,3h0c-15.53,4.46-32.28,8.58-48.87,9.29h0l-.67,0,.14-.65a24.29,24.29,0,0,0,.89-4.59h0a10.64,10.64,0,0,0-.69-3.27h0c-5.25,2.31-6.54,2-12.15,3.65h0a13.27,13.27,0,0,1-3.62.46h0c-3.27,0-6.69-.83-9.78-.83h0Z"/><path class="cls-1" d="M177.84,499c3.09-.06,6,1,9,1.74,1.64.41,3.32.81,5,1.15a1.56,1.56,0,0,0,1.41-.1,57.59,57.59,0,0,1,14.6-4.06c2.89-.37,6-1.29,8.95-1.13-1.59,3.09-2.44,6.53-3.94,9.68-1.92,4-4.68,7.65-6.63,11.62.37,0,.48.25.8.47A14.74,14.74,0,0,1,210,521.7c2,2.73,4.38,5.19,6,8.19,3.73,7.06,7,14.34,12.05,20.58a8.89,8.89,0,0,0-2.49-.88c-2.74-.76-5.5-1.36-8.28-2-4.34-.93-8.36-2.81-12.63-3.94A39.76,39.76,0,0,0,195.1,542h-6.84c-.61,0-1.68-.29-2.23,0a12.14,12.14,0,0,0-2,1.71c-3.07,2.82-5.57,6.22-8.74,9-7.25,6.29-13.89,13.4-18.53,21.83a4.61,4.61,0,0,1-.08-1.59,41.08,41.08,0,0,1,.14-5.66c.28-1.9.51-3.68.68-5.59a42.59,42.59,0,0,1,1-5.71c.86-3.64,1.91-7.25,2.8-10.89a36.73,36.73,0,0,0,1.43-7.26,3.46,3.46,0,0,0-.35-2.31,12.48,12.48,0,0,0-4-3.58c-2.81-1.71-6-3.44-9.44-3.2a8.67,8.67,0,0,1,1.71-1.48,17.42,17.42,0,0,0,4.7-4.6c3.6-5.13,3.71-3.44,7.69-8.33.64-.79,1.7-1.08,2.62-1.69a11.33,11.33,0,0,0,2.51-2.33c1.64-2,4.25-11.52,6.88-11.87A6.5,6.5,0,0,0,177.84,499Z"/><path class="cls-3" d="M152.34,658.43c8.62,17,25.46,36.57,25.51,51.26h0a15,15,0,0,1-1.41,6.59h0c-.67,1.38-1.1,4.67-1.09,8.34h0c0,5.24.87,11.41,2.61,14.48h0c0-.33,0-.65,0-1h0c0-7.89,4-11.94,9.24-14.81h0c5.26-2.9,11.79-4.81,17.24-8.67h0c10.61-7.52,20.68-18.4,29.58-28h0c11.09-12,23.27-21,36.59-30.49h0c6.45-4.56,12.69-9.41,18.89-14.34h0c-5.28-2.67-11.34-1.7-15.31-9.28h0c-2.25-4.35-2.62-10.67-4.53-15.11h0c-3-6.92-7-13.57-9.62-20.81h0c-2.57-7.22-2.76-20.33-8.14-25.34h0c-4.9-4.63-8.44-3.27-12.93-4.89h0c-4,2-8.29,2.43-12.89,2.43h0c-4.47,0-9.25-.45-14.43-.45h-2.38l-4.45,0h0c-8.37,0-17,.34-24.08,4.45h0c-7.19,4.18-14.82,13.1-20.85,19.19h0c-13,13.1-21.29,27.58-21.35,45.52h0c4.26,5.52,10.41,14.18,13.82,20.88Z"/><path class="cls-4" d="M155.06,294.2c-.67-14.19-9.18-25.68-19.8-25.76h-.66c-10.47.57-18,12.09-18,25.79,0,.58,0,1.16,0,1.75.67,14.18,9.18,25.67,19.8,25.76l.66,0c10.47-.56,18-12.08,18-25.78C155.1,295.37,155.09,294.79,155.06,294.2Z"/><path class="cls-2" d="M148.17,258.32c-2.49-1.69-30.82-13.9-53.51-12.34l-3.53,19.49c23.76-6.94,48.91-.55,53.36,1.95Z"/><path class="cls-1" d="M152.93,294.3c-.61-13.29-8.77-23.71-18.21-23.27s-16.6,11.57-16,24.86,8.77,23.71,18.21,23.26S153.55,307.59,152.93,294.3Z"/><path class="cls-3" d="M150.62,293.11a30.44,30.44,0,0,1-4.26,17.31,8.59,8.59,0,0,1-1.36.25c-5.72.46-10.88-5.68-11.53-13.73s3.45-14.94,9.17-15.4a8.38,8.38,0,0,1,4.84,1.15A24.24,24.24,0,0,1,150.62,293.11Z"/><path class="cls-2" d="M136.86,317.1h-.48c-8,0-15-9.56-15.58-21.32-.56-12.13,5.72-22.31,14-22.7h.48c4.31,0,8.31,2.77,11.19,7.13a9.92,9.92,0,0,0-3.19-.57l-.73,0c-6.43.6-10.72,7.52-10.72,15.55,0,.61,0,1.23.07,1.86.71,8.52,6,15.4,12.6,15.48q.36,0,.72,0l.21,0A12.13,12.13,0,0,1,136.86,317.1Z"/><path class="cls-1" d="M143.14,291.73c-.81,2.77-2.92,4.6-4.72,4.08s-2.6-3.2-1.79-6,2.91-4.6,4.71-4.07S143.94,289,143.14,291.73Z"/><path class="cls-2" d="M270.38,259.7c-1.86-32.49-22.17-58-45.94-58q-.94,0-1.89.06a34,34,0,0,0-15.36,4.74c16.53-12.42,38-28.89,38.51-30.06l-12.61-16.61C231.93,162,183.75,212,181.4,212.58l6.91,7.7c.53-.19,5.25-3.62,11.78-8.48a52.89,52.89,0,0,0-10.93,14.7l-3.82-4.08-.15.31A77.3,77.3,0,0,0,179.41,239l-5-2.24-.13.44,0,.13-2.18,7.6,3.23,1.27,2.56,1a92.43,92.43,0,0,0-.81,9.82l-5.16-.93v.15l0,.49.27,6.3.09,2.36h4.9a94.05,94.05,0,0,0,1.25,10.38l-5.4.84,1.94,8.94,5.18-2a84.06,84.06,0,0,0,5.88,15.59l.11.2,4.53-2c8.5,15.42,22,25.39,36.87,25.4.62,0,1.25,0,1.88-.06,23.4-1.34,41.07-27,41.07-58.24C270.51,262.88,270.47,261.29,270.38,259.7Z"/><polygon class="cls-1" points="174.29 277.45 175.75 284.15 188.46 279.39 188.46 275.24 174.29 277.45 174.29 277.45"/><polygon class="cls-1" points="173.29 264.35 184.9 264.35 185.18 259.5 173 257.32 173.29 264.35 173.29 264.35"/><polygon class="cls-1" points="173.34 244.29 186.93 249.66 187.8 243.89 175.09 238.17 173.34 244.29 173.34 244.29"/><path class="cls-1" d="M265,260.11c-1.59-28-19.5-49.68-40-48.52s-35.81,24.79-34.22,52.75,19.51,49.69,40,48.52S266.59,288.07,265,260.11Zm-11.7,34.12c-5.87,9-13.94,14.23-22.74,14.74-.46,0-.93,0-1.39,0-18,0-33.42-19.61-34.86-44.87-.07-1.26-.11-2.52-.11-3.76,0-11.26,2.9-21.85,8.29-30.16,5.87-9,13.94-14.23,22.74-14.74.47,0,.93,0,1.39,0,18,0,33.43,19.61,34.86,44.87.07,1.26.11,2.52.11,3.76C261.58,275.33,258.68,285.92,253.29,294.23Z"/><path class="cls-2" d="M253.29,294.23c-5.87,9-13.94,14.23-22.74,14.74-.46,0-.93,0-1.39,0-18,0-33.42-19.61-34.86-44.87-.07-1.26-.11-2.52-.11-3.76,0-11.26,2.9-21.85,8.29-30.16,5.87-9,13.94-14.23,22.74-14.74.47,0,.93,0,1.39,0,18,0,33.43,19.61,34.86,44.87.07,1.26.11,2.52.11,3.76C261.58,275.33,258.68,285.92,253.29,294.23Z"/><path class="cls-1" d="M258,263.13c-1-17.34-10.63-31.31-22.53-31.43l-.83,0c-11.57.77-19.69,14.52-19.7,31,0,.94,0,1.9.08,2.87,1,17.33,10.62,31.3,22.52,31.41.27,0,.54,0,.82,0,11.59-.77,19.7-14.52,19.72-31C258.1,265.05,258.07,264.09,258,263.13Z"/><path class="cls-3" d="M240,292.43l-.69,0c-9.89,0-18.31-12-19.17-27.06-.05-.84-.07-1.67-.07-2.49,0-14.33,7.11-26.06,16.73-26.63.23,0,.46,0,.69,0,9.89,0,18.32,12,19.18,27.06.06.84.07,1.67.07,2.49C256.75,280.13,249.64,291.86,240,292.43Z"/><path class="cls-1" d="M236.29,257.25c-1.13,5.27-4.82,8.94-8.23,8.2s-5.26-5.59-4.12-10.85,4.81-8.94,8.22-8.2S237.42,252,236.29,257.25Z"/><path class="cls-1" d="M251.66,276.64c-.44,1.52-1.6,2.53-2.59,2.24s-1.43-1.75-1-3.28,1.6-2.52,2.58-2.24S252.1,275.11,251.66,276.64Z"/></g></svg>