<?xml version="1.0" encoding="utf-8"?>
<!-- Generator: Adobe Illustrator 19.0.0, SVG Export Plug-In . SVG Version: 6.00 Build 0)  -->
<svg version="1.1" id="layer" xmlns="http://www.w3.org/2000/svg" xmlns:xlink="http://www.w3.org/1999/xlink" x="0px" y="0px"
	 viewBox="-153 -46 652 652" style="enable-background:new -153 -46 652 652;" xml:space="preserve">
<style type="text/css">
	.st0{fill:#D9272E;}
</style>
<polygon class="st0" points="38,227.6 -4.1,216.7 -4.1,227.6 "/>
<path class="st0" d="M8.5,247.3v60.9c0,14.6-12.6,26.5-28.1,26.5h-63.8c-15.5,0-28.1-11.9-28.1-26.5v-57.6
	c0-14.6,12.6-26.5,28.1-26.5h57.3h48.4v3.6h-48.6h-50.5c-12.3,0-22.3,11.1-22.3,24.8v53.8c0,13.7,10,24.8,22.3,24.8h50.5
	C-14,331-4,319.9-4,306.2v-59"/>
<path d="M42.3,247.1h10.1v51.5H42.3V247.1z M84.7,298.7v-51.5h-9.4v22.2l0.6,5.4h-0.3l-7.2-27.6h-9v51.5h9.4v-20.8l-0.5-5.9h0.2
	l7.2,26.7H84.7z M116.9,298.7v-51.5h-9.4v22.2l0.6,5.4h-0.3l-7.2-27.6h-9v51.5h9.4v-20.8l-0.5-5.9h0.2l7.2,26.7H116.9z M149.2,258.9
	c0-1.6-0.2-3.1-0.5-4.6c-0.4-1.5-1.3-2.9-2.8-4.2c-1.4-1.2-3-2-4.7-2.4c-1.7-0.4-3.3-0.5-4.7-0.5c-2.5,0-4.5,0.3-5.9,0.9
	c-1.5,0.6-2.6,1.3-3.5,2c-1.4,1.3-2.3,2.7-2.8,4.2c-0.4,1.5-0.6,3.1-0.6,4.6v28c0,1.5,0.2,3.1,0.6,4.6c0.4,1.5,1.3,2.9,2.8,4.2
	c0.8,0.7,2,1.4,3.5,2c1.5,0.6,3.5,0.9,5.9,0.9c1.4,0,3-0.2,4.7-0.5c1.7-0.4,3.3-1.2,4.7-2.4c1.5-1.3,2.5-2.7,2.8-4.2
	c0.4-1.5,0.5-3,0.5-4.6V258.9z M139.1,287c0,0.3,0,0.7-0.1,1.2c0,0.5-0.1,0.9-0.2,1.3c-0.2,0.7-0.6,1.1-1.1,1.2
	c-0.5,0.2-0.9,0.2-1.2,0.2c-0.3,0-0.8-0.1-1.2-0.2c-0.5-0.2-0.9-0.6-1.1-1.2c-0.1-0.3-0.2-0.8-0.2-1.3c0-0.5-0.1-0.9-0.1-1.2v-28.1
	c0-0.3,0-0.7,0.1-1.2s0.1-0.9,0.2-1.2c0.2-0.7,0.6-1.1,1-1.2c0.4-0.2,0.9-0.2,1.3-0.2c0.4,0,0.9,0.1,1.3,0.2c0.4,0.2,0.8,0.6,1,1.2
	c0.1,0.3,0.2,0.7,0.2,1.2c0,0.5,0.1,0.9,0.1,1.2V287z M175.1,298.7l7.8-51.5h-10.4l-4,33.4l-4-33.4h-10.4l7.9,51.5H175.1z
	 M211.9,298.7l-4.8-51.5h-17l-4.9,51.5h10.5l0.6-6.5h4.6l0.6,6.5H211.9z M196.6,284.9l1.9-29.9h0.3l1.8,29.9H196.6z M231.1,298.7
	v-44.3h6.3v-7.2h-22.8v7.2h6.3v44.3H231.1z M243.1,298.7h10.1v-51.5h-10.1V298.7z M285.6,258.9c0-1.6-0.2-3.1-0.6-4.6
	c-0.4-1.5-1.3-2.9-2.8-4.2c-1.4-1.2-3-2-4.7-2.4c-1.7-0.4-3.3-0.5-4.7-0.5c-2.5,0-4.5,0.3-5.9,0.9c-1.5,0.6-2.6,1.3-3.5,2
	c-1.4,1.3-2.3,2.7-2.8,4.2c-0.4,1.5-0.6,3.1-0.6,4.6v28c0,1.5,0.2,3.1,0.6,4.6c0.4,1.5,1.3,2.9,2.8,4.2c0.8,0.7,2,1.4,3.5,2
	c1.5,0.6,3.5,0.9,5.9,0.9c1.4,0,3-0.2,4.7-0.5c1.7-0.4,3.3-1.2,4.7-2.4c1.5-1.3,2.5-2.7,2.8-4.2c0.4-1.5,0.6-3,0.6-4.6V258.9z
	 M275.5,287c0,0.3,0,0.7-0.1,1.2c0,0.5-0.1,0.9-0.2,1.3c-0.2,0.7-0.6,1.1-1.1,1.2c-0.5,0.2-0.9,0.2-1.3,0.2c-0.3,0-0.8-0.1-1.2-0.2
	c-0.5-0.2-0.9-0.6-1.1-1.2c-0.1-0.3-0.2-0.8-0.2-1.3c-0.1-0.5-0.1-0.9-0.1-1.2v-28.1c0-0.3,0-0.7,0.1-1.2c0-0.5,0.1-0.9,0.2-1.2
	c0.2-0.7,0.6-1.1,1-1.2c0.4-0.2,0.9-0.2,1.3-0.2c0.4,0,0.9,0.1,1.3,0.2c0.4,0.2,0.8,0.6,1,1.2c0.1,0.3,0.2,0.7,0.2,1.2
	c0,0.5,0.1,0.9,0.1,1.2V287z M317.7,298.7v-51.5h-9.4v22.2l0.6,5.4h-0.3l-7.2-27.6h-9v51.5h9.4v-20.8l-0.5-5.9h0.2l7.2,26.7H317.7z
	 M353.9,298.7v-24h9.5v-7.2h-9.5v-13.1h12v-7.2h-22.1v51.5H353.9z M371.5,298.7h10.1v-51.5h-10.1V298.7z M416.3,298.7v-0.5
	c-0.5-0.1-1-0.4-1.3-0.6c-0.3-0.3-0.6-0.7-0.8-1.2c-0.2-0.5-0.3-1.2-0.4-2c0-0.8-0.1-1.8-0.1-3v-11v-1.5c0-0.5-0.1-1.1-0.2-1.7
	c-0.1-0.6-0.4-1.2-0.8-1.8c-0.4-0.6-0.9-1.1-1.6-1.6c-0.5-0.3-1.2-0.7-2-1c-0.8-0.3-1.3-0.5-1.5-0.6v-0.4c0.5-0.1,1.2-0.3,2.1-0.6
	c0.9-0.3,1.6-0.6,2.1-0.8c1.1-0.6,1.8-1.4,2.1-2.2c0.3-0.8,0.4-1.6,0.4-2.3v-10.4c0-0.9-0.1-1.7-0.2-2.6s-0.5-1.7-1.2-2.5
	c-0.5-0.7-1.1-1.3-1.8-1.7c-0.7-0.4-1.3-0.7-2-1c-0.7-0.2-1.3-0.4-1.9-0.4c-0.6-0.1-1.1-0.1-1.5-0.1h-17l-0.1,51.5h10.1v-22.5h1.4
	c0.5,0,1,0.1,1.5,0.2c0.5,0.1,0.9,0.3,1.2,0.6c0.4,0.4,0.6,0.9,0.7,1.6c0,0.7,0.1,1.3,0.1,1.7v12.3c0,1.7,0.1,3,0.4,3.9
	c0.3,0.9,0.6,1.6,1,2.2H416.3z M398.7,268.4v-14.1h2.5c0.5,0,1,0.1,1.4,0.1c0.4,0.1,0.8,0.5,1.2,1.2c0.1,0.2,0.2,0.5,0.3,0.9
	c0.1,0.4,0.2,1,0.2,1.8v6c0,0.5,0,1-0.1,1.6c0,0.6-0.3,1.2-0.9,1.7c-0.4,0.3-0.7,0.6-1.1,0.6c-0.4,0.1-0.8,0.1-1.2,0.1H398.7z
	 M420.4,282.3v3.8c0,0.9,0,1.9,0.1,2.8c0.1,0.9,0.3,1.8,0.7,2.7c0.3,0.9,0.8,1.7,1.5,2.5c0.6,0.8,1.5,1.6,2.6,2.3
	c1.5,0.9,3,1.6,4.5,1.8c1.5,0.3,2.9,0.4,4.2,0.4c1.8,0,3.4-0.2,4.8-0.6c1.4-0.4,2.8-1.1,4-2.3c0.8-0.8,1.4-1.5,1.8-2.3
	c0.4-0.8,0.8-1.6,1-2.3c0.2-0.8,0.3-1.5,0.3-2.2c0-0.7,0-1.5,0-2.2v-2.8c0-2-0.2-3.7-0.5-5c-0.3-1.3-0.8-2.5-1.4-3.4
	c-0.6-1-1.2-1.8-2-2.5c-0.8-0.7-1.5-1.4-2.3-2.2l-5.9-5.5c-0.7-0.7-1.4-1.5-2.1-2.5c-0.7-1-1-2.2-1-3.7v-1.1c0-0.6,0-1.1,0.1-1.5
	c0-0.4,0.3-0.9,0.7-1.4c0.5-0.6,1.2-0.9,2-0.9c0.6,0,1.1,0.1,1.4,0.3c0.3,0.2,0.6,0.4,0.7,0.6c0.2,0.4,0.4,0.9,0.4,1.6
	c0,0.7,0.1,1.6,0.1,2.9v2.8h9.8v-3c0-1.7-0.1-3.3-0.4-5c-0.3-1.6-1.2-3.1-2.8-4.6c-1.4-1.2-2.9-2-4.6-2.4c-1.7-0.3-3.3-0.5-4.8-0.5
	c-0.6,0-1.3,0-2.1,0.1c-0.8,0-1.7,0.2-2.5,0.4c-0.9,0.2-1.8,0.5-2.6,0.9c-0.9,0.4-1.7,0.9-2.4,1.6c-0.8,0.8-1.5,1.8-2.1,3
	c-0.6,1.2-0.9,2.6-0.9,4.1v1.9c0,1.2,0.1,2.5,0.3,3.8c0.2,1.4,0.6,2.7,1.4,4.1c0.4,0.8,0.9,1.5,1.5,2.3c0.6,0.8,1.3,1.5,2,2.1l7,6.5
	c1,1,1.7,1.9,2.2,2.8c0.5,0.9,0.8,2.3,0.8,4v1.9v0.6c0,0.3,0,0.6,0,1c0,0.4-0.1,0.7-0.1,1c0,0.3-0.1,0.6-0.1,0.8
	c-0.2,0.4-0.4,0.8-0.7,1.1c-0.3,0.3-0.8,0.4-1.4,0.4c-0.7,0-1.2-0.2-1.6-0.5c-0.4-0.3-0.7-0.7-0.8-1.1c-0.1-0.2-0.2-0.6-0.3-1.2
	c-0.1-0.6-0.1-1.5-0.1-2.8v-3.5H420.4z M467.4,298.7v-44.3h6.3v-7.2h-22.8v7.2h6.3v44.3H467.4z M42.1,354.2h3.9v-40h-3.9V354.2z
	 M58.6,354.2h3.9v-36.5l21.9,36.5h3.8v-40h-3.8v32.6l-19.7-32.6h-6V354.2z M96.9,318.1h12.7v36.1h3.9v-36.1h12.6v-3.8H96.9V318.1z
	 M134.7,354.2h25.4v-3.9h-21.5v-15.4h14.6v-3.9h-14.6v-13h19.6v-3.8h-23.5V354.2z M169,354.2h3.9v-18.1h11l9.4,18.1h4.2l-9.7-18.9
	c2.9-0.9,5.1-2.2,6.6-4c1.4-1.8,2.2-3.8,2.2-6.1c0-2.1-0.6-4-1.8-5.8c-1.2-1.8-2.9-3-5-3.9c-2.1-0.8-4.9-1.2-8.4-1.2H169V354.2z
	 M182.8,317.7c3.1,0,5.5,0.7,7,2.1c1.5,1.4,2.3,3.1,2.3,5.3c0,1.5-0.4,2.9-1.2,4.1c-0.8,1.2-1.9,2-3.4,2.5c-2,0.7-4.1,1-6.2,1h-8.5
	v-14.9H182.8z M206.4,354.2h3.9v-36.5l21.9,36.5h3.8v-40h-3.8v32.6l-19.7-32.6h-6V354.2z M244.2,354.2h3.9l4-12.4h16.1l4,12.4h3.9
	l-12.8-39.9h-6.2L244.2,354.2z M267,337.9h-13.6l6.8-21.1L267,337.9z M276.9,318.1h12.7v36.1h3.9v-36.1h12.6v-3.8h-29.2V318.1z
	 M315.2,354.2h3.9v-40h-3.9V354.2z M346.3,355c1.4,0,3-0.3,4.7-0.9c1.8-0.6,3.3-1.4,4.7-2.6c1.1-0.9,2.1-2.1,3.2-3.6
	c1-1.5,1.9-3.4,2.7-5.7c0.7-2.3,1.1-4.9,1.1-7.9c0-2.8-0.3-5.4-1-7.8c-0.7-2.4-1.7-4.6-3-6.5c-1.3-1.9-3.1-3.5-5.1-4.7
	c-2.1-1.2-4.5-1.8-7.2-1.8c-3.1,0-6,0.8-8.6,2.5c-2.6,1.6-4.6,4.2-6,7.6c-1.4,3.4-2.1,7.1-2.1,11c0,6.3,1.7,11.4,5.3,15.4
	C337.9,353.3,341.7,355,346.3,355 M345.9,351.4c-3.2,0-6-1.4-8.4-4.3s-3.6-7.1-3.6-12.8c0-5.8,1.2-10.1,3.6-13
	c2.4-2.9,5.2-4.4,8.6-4.4c3.4,0,6.1,1.3,8.2,3.9c2.7,3.3,4,7.9,4,13.7c0,5.5-1.2,9.7-3.7,12.6C352.3,349.9,349.4,351.4,345.9,351.4
	 M372.8,354.2h3.9v-36.5l21.9,36.5h3.8v-40h-3.8v32.6l-19.7-32.6h-6V354.2z M410.6,354.2h3.9l4-12.4h16.1l4,12.4h3.9l-12.8-39.9
	h-6.2L410.6,354.2z M433.4,337.9h-13.6l6.8-21.1L433.4,337.9z M450.7,354.2h23v-3.9h-19.2v-36h-3.8V354.2z M-32.2,204.9h13v42.2h-13
	V204.9z M-45.1,204.9h-13v42.2h13V204.9z M-71,204.9h-13v42.2h13V204.9z M-19.2,260.1H23v-13h-42.2V260.1z M-19.2,286H23v-13h-42.2
	V286z M-19.2,311.9H23v-13h-42.2V311.9z M-32.2,354.2h13v-42.2h-13V354.2z M-58.1,354.2h13v-42.2h-13V354.2z M-84,354.2h13v-42.2
	h-13V354.2z M-84,247.1h-42.2v13H-84V247.1z M-84,273.1h-42.2v13H-84V273.1z M-84,299h-42.2v13H-84V299z M-71.5,305.1h5.7v-51.2
	h-5.7V305.1z M-52.1,305.1v-24.5h5.7v-5.4h-5.7v-15.9h9.3v-5.4h-15v51.2H-52.1z M-36.8,305.1h5.7v-51.2h-5.7V305.1z"/>
</svg>
