<?xml version="1.0" encoding="UTF-8" standalone="no" ?>
<!DOCTYPE svg PUBLIC "-//W3C//DTD SVG 1.1//EN" "http://www.w3.org/Graphics/SVG/1.1/DTD/svg11.dtd">
<svg xmlns="http://www.w3.org/2000/svg" xmlns:xlink="http://www.w3.org/1999/xlink" version="1.1" width="200" height="181.9609" viewBox="0 0 200 181.9609" xml:space="preserve">
<desc>Created with Fabric.js 4.6.0</desc>
<defs>
</defs>
<g transform="matrix(1.21 0 0 1.21 174.15 21.26)" id="gGLFtNx0HFNYbR-3PHS8D"  >
<path style="stroke: none; stroke-width: 1; stroke-dasharray: none; stroke-linecap: butt; stroke-dashoffset: 0; stroke-linejoin: miter; stroke-miterlimit: 4; fill: rgb(217,39,46); fill-rule: nonzero; opacity: 1;" vector-effect="non-scaling-stroke"  transform=" translate(-16.95, -222.15)" d="M 38 227.6 L -4.100000000000001 216.7 L -4.100000000000001 227.6 z" stroke-linecap="round" />
</g>
<g transform="matrix(1.21 0 0 1.21 99.56 90.64)" id="HWnsgIDsIxCVj_P6bGy3g"  >
<path style="stroke: none; stroke-width: 1; stroke-dasharray: none; stroke-linecap: butt; stroke-dashoffset: 0; stroke-linejoin: miter; stroke-miterlimit: 4; fill: rgb(217,39,46); fill-rule: nonzero; opacity: 1;" vector-effect="non-scaling-stroke"  transform=" translate(44.6, -279.4)" d="M 8.5 247.3 L 8.5 308.2 C 8.5 322.8 -4.1 334.7 -19.6 334.7 L -83.4 334.7 C -98.9 334.7 -111.5 322.8 -111.5 308.2 L -111.5 250.6 C -111.5 236 -98.9 224.1 -83.4 224.1 L -26.10000000000001 224.1 L 22.29999999999999 224.1 L 22.29999999999999 227.7 L -26.30000000000001 227.7 L -76.80000000000001 227.7 C -89.10000000000001 227.7 -99.10000000000001 238.79999999999998 -99.10000000000001 252.5 L -99.10000000000001 306.3 C -99.10000000000001 320 -89.10000000000001 331.1 -76.80000000000001 331.1 L -26.30000000000001 331.1 C -14 331 -4 319.9 -4 306.2 L -4 247.2" stroke-linecap="round" />
</g>
<g transform="matrix(1.21 0 0 1.21 91.08 90.82)" id="268TDg-pM2DcrJlZ4pTvF"  >
<path style="stroke: none; stroke-width: 1; stroke-dasharray: none; stroke-linecap: butt; stroke-dashoffset: 0; stroke-linejoin: miter; stroke-miterlimit: 4; fill: rgb(0,0,0); fill-rule: nonzero; opacity: 1;" vector-effect="non-scaling-stroke"  transform=" translate(-74.6, -74.65)" d="M 94 42.2 L 107 42.2 L 107 0 L 94 0 z M 81.1 0 L 68.1 0 L 68.1 42.2 L 81.1 42.2 z M 55.2 0 L 42.2 0 L 42.2 42.2 L 55.2 42.2 z M 107 55.2 L 149.2 55.2 L 149.2 42.2 L 106.99999999999999 42.2 z M 107 81.1 L 149.2 81.1 L 149.2 68.1 L 106.99999999999999 68.1 z M 107 107 L 149.2 107 L 149.2 94 L 106.99999999999999 94 z M 94 149.3 L 107 149.3 L 107 107.10000000000001 L 94 107.10000000000001 z M 68.1 149.3 L 81.1 149.3 L 81.1 107.10000000000001 L 68.1 107.10000000000001 z M 42.2 149.3 L 55.2 149.3 L 55.2 107.10000000000001 L 42.2 107.10000000000001 z M 42.2 42.2 L 0 42.2 L 0 55.2 L 42.2 55.2 z M 42.2 68.2 L 0 68.2 L 0 81.2 L 42.2 81.2 z M 42.2 94.1 L 0 94.1 L 0 107.1 L 42.2 107.1 z M 54.7 100.2 L 60.400000000000006 100.2 L 60.400000000000006 49 L 54.7 49 z M 74.1 100.2 L 74.1 75.7 L 79.8 75.7 L 79.8 70.3 L 74.1 70.3 L 74.1 54.4 L 83.39999999999999 54.4 L 83.39999999999999 49 L 68.39999999999999 49 L 68.39999999999999 100.2 z M 89.4 100.2 L 95.10000000000001 100.2 L 95.10000000000001 49 L 89.4 49 z" stroke-linecap="round" />
</g>
</svg>