<svg xmlns="http://www.w3.org/2000/svg" viewBox="0 0 1658.73 668.23"><defs><style>.cls-1{fill:#fff;}.cls-2{fill:#010101;}.cls-3{fill:#d7282f;}.cls-4{fill:#231f20;}</style></defs><g id="Layer_2" data-name="Layer 2"><path class="cls-1" d="M1457.82,690.92l-7-6.66-5.28-5c-6.24-5.89-6.3-23.55-3.67-29.07,2.85-6-5.35-19-11.93-29.37-3.24-5.13-6.59-10.43-9.2-15.54a129.85,129.85,0,0,0-11.59-17.43c-1.86-2.42-3.63-4.57-5.06-6.31a124.8,124.8,0,0,1-10.89-14.8c-6.7-10.82-8.59-17.63-2.09-29.41,1.82-3.3,2.35-7,3-11.29.84-5.94,1.79-12.66,6.75-18.6,2-2.44,4.08-4.44,6-6.37,3.13-3.08,5.84-5.74,7.9-9.55a59.85,59.85,0,0,0,3.6-8.75c2.42-6.91,5.15-14.7,13.71-20.91a98.5,98.5,0,0,1,20.27-10.74l-4,0c-10.77,0-19.77-.79-26.75-2.33l-.21-.05-.27-.09h0l-.08,0-.68-.23c-1.7-.56-4.54-1.48-6.13-4.57-11.66-23.08-21.44-75.09-26.23-104-3.56-21.53-6.64-44.07-8.75-63.87a88.79,88.79,0,0,1-15.41-1.88,35.33,35.33,0,0,0-5.89-.6c-3.83-.19-8.18-.39-12.92-2.36-11.79-5-23.58-10.47-35-15.75l-3.83-1.77c-3.22-1.51-6.55-3.06-9.16-5.82s-4.14-6.72-4.29-11.58c0-.43,0-.89,0-1.34a27.45,27.45,0,0,1,5.9-17.46c.52-.67,1-1.3,1.45-1.92a29,29,0,0,1,6.43-6.82,13.12,13.12,0,0,0,1.81-1.52c.07-.17.13-.4.22-.67.25-.77.62-1.93,1.24-3.44A38.18,38.18,0,0,1,1322,188.64l0,0,0,0c.16-.1.47-.34.76-.56a23.53,23.53,0,0,1,2.2-1.56l3.2-1.89,5.08-3,.39,5.88.24,3.68c.24,3.76.83,6.16,1.76,7.16s3.4,1.89,7.2,2.41a67.79,67.79,0,0,0,8.37.53,30.89,30.89,0,0,0,5.85-.45c2.42-.48,4.61-2.34,7.38-4.68,1.43-1.22,3.06-2.59,4.88-3.89l.42-.29c.67-3.07,1.43-6.08,2.18-9,1.72-6.76,3.35-13.14,3.67-19.73.79-15.55,1.79-31.13,3-46.28.46-5.66,1.73-12.53,3-19.17,1.45-7.85,3-16,2.94-21.28,0-3.53,1.43-7.85,4.07-12.91,2.09-3.8,5-8.38,9.09-10.65l.07,0,.07,0a11.14,11.14,0,0,1,5.14-1.07,42.74,42.74,0,0,1,4.41.31c.79.08,1.62.17,2,.17h.15c1.13-.11,1.15-.14,1.73-.73a18.25,18.25,0,0,0,1.26-1.7c.69-1,1.54-2.17,2.64-3.49s1.93-2.35,2.86-3.5a88.63,88.63,0,0,1,7.61-8.64,36,36,0,0,1,16.18-9.1,60,60,0,0,1,15.44-2.4,39.92,39.92,0,0,1,16.58,3.82c5.15,2.23,10.56,4.48,15.8,6.66,15.92,6.6,32.38,13.44,47.23,22.27,3.67,2.18,7.24,4.43,10.69,6.61,5.69,3.59,11.08,7,16.79,10h5.41c6.51,0,13.11.07,19.49.14l10.14.11c12.82.09,21.47,4.74,30.64,9.67,1,.55,2.06,1.11,3.12,1.66l2.58,1.36A195.35,195.35,0,0,1,1657.1,97.5c1.47,1,3.13,2.15,4.9,3.33,3.64,2.43,7.77,5.19,11.69,8.25,4.38,3.45,9.59,8,13,13.88l.24-.1,1.38,3.36a.42.42,0,0,0,0,.1l1.35,3.24-.28.11a44.51,44.51,0,0,1,1.1,10.65c0,2.92-.17,5.86-.31,8.46-.08,1.4-.15,2.75-.2,4-.51,12.61-8,21.83-14.56,30-.61.75-1.21,1.49-1.8,2.24-14.26,17.74-32.08,28.6-50.51,30.91,0,5.54,0,11.2,0,16.84,0,37.87-.62,60.7-1.83,67.87-1.91,10.69-11.76,19.49-21.29,28l-.31.27c-5.07,4.47-10.31,9.09-14.09,13.43l8.92,41.72,1.22-.26.76,3.55,10.11,47a28.55,28.55,0,0,1,5.62,6.78,95.15,95.15,0,0,0,8,10.54,93.09,93.09,0,0,1,9.78,13.25c9.45,16.52,6.71,43.9,5.65,51.9-3.27,24.51-22.44,36.43-39.35,46.94-3.9,2.42-7.93,4.93-11.57,7.47-4.08,2.85-8.73,5.7-13.66,8.72l-.12.08c-6.73,4.13-13.66,8.38-18.75,12.43-5.41,4.3-11.26,8.89-17.47,13.28-10.93,7.74-21.54,15.55-31.15,25.9l-.17.2c-8,8.6-17.05,18.36-26.92,25.36a57.25,57.25,0,0,1-10.62,5.6c-8.06,3.52-10.35,4.82-9.72,11.21l.71,7.24,1,9.65Z" transform="translate(-31.75 -22.69)"/><path class="cls-2" d="M1684.91,127.59l-.42.17h0l.42-.17c-2.55-6.12-7.79-11.19-13.45-15.65s-11.88-8.26-16.44-11.47c-7.67-5.37-15.54-9.35-23.57-13.6-10.27-5.42-18.8-10.82-32.09-10.92-9.82-.08-19.71-.25-29.61-.25q-3.15,0-6.3,0c-9.75-5.13-18.66-11.36-28.44-17.18-19.58-11.64-42.15-19.82-62.63-28.72a36.34,36.34,0,0,0-15.13-3.52,57.11,57.11,0,0,0-14.52,2.29,32.24,32.24,0,0,0-14.59,8.21c-3.73,3.57-6.7,7.68-10.19,11.84-2,2.34-3.06,4.3-4.09,5.4s-1.74,1.58-4.06,1.82h-.35c-1.35,0-4-.47-6.46-.48a7.9,7.9,0,0,0-3.58.69c-3.05,1.69-5.48,5.25-7.62,9.16s-3.61,8-3.67,11.22c0,10.24-4.92,28.55-5.9,40.74-1.21,15.39-2.2,30.75-3,46.18-.51,10.4-4.07,20.18-6.23,30.73l-1.56,1c-5.27,3.76-8.77,8.2-13.57,9.16a33.46,33.46,0,0,1-6.64.54,70.09,70.09,0,0,1-8.85-.57c-5.11-.69-7.85-1.84-9.37-3.53s-2.42-4.47-2.73-9.39l-.24-3.68-3.18,1.88c-1.21.73-2.16,1.61-2.9,2.08a34.74,34.74,0,0,0-10.91,12.73c-1,2.42-1.26,3.78-1.57,4.36s-.71,1.16-2.87,2.79c-3.6,2.7-4.86,5.1-7.21,8.09a23.75,23.75,0,0,0-5.12,15.21c0,.4,0,.81,0,1.23.13,3.94,1.19,7,3.3,9.2s4.78,3.49,8.06,5c12.85,6,25.67,11.94,38.65,17.46,6.74,2.79,12.82,1.56,18.18,2.76a87.09,87.09,0,0,0,17.93,1.88c2,19.85,5.18,43.39,9,66.83,7,42.27,16.29,84,25.88,103,1.07,2.09,3.18,2.45,4.83,3.05l.06,0,.07,0c7.12,1.58,16,2.24,26,2.25,6.75,0,14-.32,21.39-.87l.79-.06,7.31,3,.51-.18c6.63-2.07,7.44-2.26,9.24-3.11l1.66-.68.52,1.66a43.09,43.09,0,0,1,1.82,5.36,6.36,6.36,0,0,1,.33,2.42c12.64-.85,24.52-4.25,36.51-8,7.15-2.19,13.05-1.61,20.19-2.72a20.21,20.21,0,0,0,4.78-1.22,10,10,0,0,1,4-.76,37.28,37.28,0,0,1,3.78.26l16.31-.91-1.6-9.6,1.7,0s1.26-.05,2.75-.14l.54,0-8.87-47.69,1.63-11.27,3.92,18.38-1.24.26,9,41.82c-1.85.26-4,.44-4,.44l-3,.24.55,3,1.16,6.2-16.24.84c-1.71-.17-3-.25-4.1-.25a12.3,12.3,0,0,0-4.73.83,22.18,22.18,0,0,1-4.91,1.16c-2.89.41-5.59.59-8.21.76a62.27,62.27,0,0,0-13.73,2c-11.66,3.34-25.23,6.83-38.73,7.85.22-1.6.06-2.91-.85-5.57l-1-2.84-2.73,1.23a28.18,28.18,0,0,1-6.39,2.14c-1.16.27-2.48.58-4.35,1.12a8.05,8.05,0,0,1-2.29.28,32.68,32.68,0,0,1-4-.35,37.38,37.38,0,0,0-4.64-.38,14,14,0,0,0-3.23.34c-7.77,1.84-19.58,7.84-25.72,12.3-7.65,5.55-10.07,12.46-12.41,19.15a62.63,62.63,0,0,1-3.84,9.31c-2.32,4.28-5.34,7.26-8.55,10.4-1.9,1.88-3.87,3.82-5.8,6.12-4.3,5.14-5.14,11.06-5.94,16.77-.63,4.45-1.23,8.66-3.37,12.54-5.58,10.11-4.33,15.54,2,25.75a122.57,122.57,0,0,0,10.6,14.41c1.62,2,3.31,4,5.13,6.39a134.27,134.27,0,0,1,12,18c2.53,5,5.83,10.19,9,15.25,7.79,12.33,15.85,25.08,12.14,32.88-2.11,4.43-1.85,20.4,2.89,24.88l5.28,5-.71-7.24c-.92-9.29,4.18-11.52,11.88-14.89a54.27,54.27,0,0,0,10-5.23c9.56-6.77,18.48-16.39,26.35-24.87l.18-.19c9.84-10.61,20.62-18.55,31.71-26.4,6.12-4.33,11.94-8.88,17.3-13.15s12.31-8.52,19.12-12.69c4.92-3,9.57-5.87,13.59-8.68,3.72-2.6,7.79-5.13,11.73-7.58,17-10.58,34.63-21.52,37.67-44.34,1-7.71,3.69-34.08-5.19-49.62a91,91,0,0,0-9.4-12.7,97.44,97.44,0,0,1-8.32-11,23.35,23.35,0,0,0-5.8-6.65L1593,388.09l-1.23.26-10-47c4.07-5,10-10.22,15.9-15.43,9.21-8.22,18.45-16.51,20.13-25.89,1.37-8.15,1.77-37.3,1.78-67.27,0-6.76,0-13.55-.06-20.13,20.78-1.4,38.42-13.85,51.31-29.89,6.87-8.6,15.07-17.61,15.58-30.08.13-3.63.5-8,.5-12.33S1686.48,131.45,1684.91,127.59Z" transform="translate(-31.75 -22.69)"/><path class="cls-1" d="M1579.33,271.88a5.84,5.84,0,0,0-4.76,2.81,11.54,11.54,0,0,0,0,12.22,5.44,5.44,0,0,0,9.52,0,11.6,11.6,0,0,0,0-12.22A5.84,5.84,0,0,0,1579.33,271.88Zm6.84-41.08a5.44,5.44,0,0,0-9.52,0,11.62,11.62,0,0,0,0,12.23,5.44,5.44,0,0,0,9.52,0,11.62,11.62,0,0,0,0-12.23Z" transform="translate(-31.75 -22.69)"/><path class="cls-1" d="M1566.33,304.82c.15-3.63.31-7.25.45-10.88h0l0-1.19,22-2.13,1.11-20.28-24.25-2.79,0-1.25c.16-5,.32-10,.45-14.89h0l0-1.25,24.18-1.32-.37-22.7-23.15-2.44,0-1.25c.33-16.06.51-28.29.5-37.62h0c0-10.4-.21-17.2-.66-21.68h0l2.7-.27c.47,4.66.68,11.52.68,22h0c0,9.12-.16,21-.48,36.43h0l23.06,2.43.45,27.72-24.29,1.32q-.18,6.14-.39,12.41h0l24.31,2.79-1.37,25.17-22,2.13c-.13,3.24-.27,6.47-.4,9.7h0l-2.72-.11Z" transform="translate(-31.75 -22.69)"/><path class="cls-1" d="M1552.47,164.41c-2.28,0-4.57.07-6.84.07h-1.78c-5.75,0-10.21.16-15.19,2.29-1,.44-2,.89-3,1.32-4.16,1.86-8.1,3.61-13,4.07-1.43.14-2.88.17-4.28.2a28.73,28.73,0,0,0-8.32,1,49.5,49.5,0,0,0-10.74,5.5c-1.79,1.11-3.65,2.26-5.52,3.25a81.08,81.08,0,0,1-11.33,4.65c-2.4.84-4.88,1.71-7.3,2.73-4.12,1.74-8.12,3.86-12,5.9-3.45,1.83-7,3.71-10.62,5.31-4,1.77-8.09,3.48-12,5.12-10.1,4.23-20.55,8.59-30.33,14.36a89.16,89.16,0,0,1-9,4.47c-2.83,1.28-5.72,2.59-8.46,4.14-.07,1.44-.11,3.07-.11,4.91,0,20.29,4.6,62.94,11.57,105.07S1410.5,422.66,1419.8,441c.17.56,1.35,1.08,3.16,1.63,6.81,1.51,15.54,2.18,25.32,2.17,6.36,0,13.16-.27,20.17-.78l1.58-7.3,1-13.59,8.69,8.69,4.28,10.77c29.65-3.3,60-9.73,74.83-15.19a4.6,4.6,0,0,0,2.9-3.91c3.56-23.31,6.53-69.47,8.61-117.26l-15.56-.46Z" transform="translate(-31.75 -22.69)"/><path class="cls-1" d="M1681.14,129.14c-4-10-19-18.79-28.46-25.33-7.36-5.16-15.06-9.07-23.14-13.34C1619,84.91,1611.43,80.13,1599.32,80c-9.9-.09-19.82-.26-29.73-.26-2.69,0-5.39,0-8.08,0h0c-2.06,0-4.12.06-6.17.11l-.85,0c-2.16,0-4.32.11-6.48.2-16.58.64-33,.93-47.85,7.93-14.06,6.63-28.1,13.16-42.27,19.57-13.44,6.07-26.93,12.29-40.39,18.39-7,3.15-13.24,5.32-18.4,10-1.13,1-2.37,2.76-4,4.35,1.19,1.75,2.54,3.32,3.82,5.06a17.51,17.51,0,0,1,3.51,7.9,58,58,0,0,1,.56,8.47,59.58,59.58,0,0,1-.52,8.23c-1.08,7.45-6,12.87-11.59,17.21-.65.5-1.31,1-2,1.46-.19.15-.39.28-.59.42l-1.52,1-.55.37c-.64.42-1.28.85-1.93,1.26l0,0c-3.72,2.37-7.44,4.52-10.52,6.67-4.61,3.12-8.38,8.27-15,9.8a38.29,38.29,0,0,1-7.51.63,73,73,0,0,1-9.39-.61c-5.41-.74-9.25-2-11.84-4.81-2-2.21-3-5.06-3.48-8.68l-.34.23c-3.24,2-8.14,7.8-9.36,10.88-.89,2.12-1,3.16-1.67,4.57s-1.83,2.57-4.09,4.27c-3,2.24-3.84,4-6.45,7.34a19.67,19.67,0,0,0-4.26,12.7c0,.35,0,.7,0,1.07.16,3.42.9,5.15,2.2,6.57s3.56,2.63,6.8,4.11c12.86,6,25.64,11.93,38.54,17.41,5.31,2.31,10.94,1.22,17.41,2.52a74.85,74.85,0,0,0,15.73,1.79h.92l-1.17-14.05a13.77,13.77,0,0,1-7.31-8.7,27.46,27.46,0,0,1-.93-6.56,11.86,11.86,0,0,1,5.16-10.28c6.68-4.71,14.71-7.08,21.09-10.88,13.79-8.12,28.38-13.3,42.65-19.62,7.52-3.32,14.69-7.86,22.65-11.23,6.38-2.67,12.72-4.23,18.42-7.27,5.3-2.8,10.4-6.93,16.72-8.95,4.78-1.48,9-.9,13.16-1.32,5.51-.51,9.62-2.81,15.17-5.19s10.73-2.5,16.26-2.5h1.78c10.75,0,21.38-.56,32.23-.56,4.33,0,9.71-.47,15.1-.47s11.12.48,15.76,2.71,8.24,6.49,9.1,13.12a87.78,87.78,0,0,1,.68,12.13c0,1.67,0,3.35,0,5.12,0,4.73.11,9.33.14,14.78,19.51-1.1,36.41-12.8,49-28.41,7.05-8.74,14.32-17.1,14.67-27.68.14-3.78.5-8.06.5-12.18S1682.38,132.14,1681.14,129.14Z" transform="translate(-31.75 -22.69)"/><path class="cls-1" d="M1398.92,169.56a56.23,56.23,0,0,0,.47-7.72,53.58,53.58,0,0,0-.51-7.92,14,14,0,0,0-2.86-6.31c-1.41-2-3.22-3.94-4.8-6.58l-.81-1.36,1.24-1c1.6-1.24,3.13-3.56,5-5.31,5.86-5.31,12.61-7.56,19.34-10.63,13.45-6.1,27-12.31,40.39-18.39,14.15-6.4,28.17-12.92,42.23-19.55,15.76-7.41,32.75-7.61,49.25-8.27,2.43-.1,4.88-.17,7.32-.22-7.68-4.48-14.89-9.35-22.49-13.86C1513.64,51.1,1491.23,43,1470.58,34c-4.95-2.13-8.8-3.13-13.33-3.14A52.83,52.83,0,0,0,1443.89,33a27.59,27.59,0,0,0-12.62,7.1c-3.33,3.18-6.24,7.16-9.85,11.48-1.68,2-2.67,3.82-4.21,5.55a10,10,0,0,1-7.07,3.28c-.24,0-.47,0-.69,0-2.07,0-4.64-.49-6.46-.48a4.32,4.32,0,0,0-1.48.18c-1.32.59-3.91,3.74-5.71,7.24-1.79,3.25-3.1,6.48-3.14,9.14,0,11.36-5.05,29.55-5.92,41.08-1.21,15.34-2.2,30.66-3,46.05-.51,9.91-3.41,18.85-5.5,27.72a120.33,120.33,0,0,0,10.44-6.93C1394,180.29,1398,175.62,1398.92,169.56Z" transform="translate(-31.75 -22.69)"/><path class="cls-2" d="M1507.64,384.9c-.43,0-51.53,6.19-68.71,9.38l-.47.09,1.42,6,.42-.08c17.09-3.17,66.69-9.3,67.38-9.37l.41,0v-6Z" transform="translate(-31.75 -22.69)"/><polygon class="cls-2" points="1551.43 262.01 1549.02 262.02 1547.78 258.2 1548.96 254.37 1551.38 254.35 1552.61 258.17 1551.43 262.01"/><polygon class="cls-2" points="1553.5 218.12 1551.09 218.14 1549.86 214.32 1551.04 210.48 1553.46 210.46 1554.69 214.28 1553.5 218.12"/><path class="cls-1" d="M1591,391.29l-11.41,2.45,8.5,39.82a36.33,36.33,0,0,1,3.88-.23,19.24,19.24,0,0,1,8.38,1.72Zm-1.68-2.15-9.76-45.81-7.06,10.74,7.88,37Z" transform="translate(-31.75 -22.69)"/><path class="cls-1" d="M1515,524.85c5.16,4.93,5.16,16.55,7.4,22.65h0c2.26,6.25,5.81,12.09,8.44,18.26h0c1.76,4.13,2.1,9.69,4,13.24h0c3,5.85,8.65,6,13.42,8h0c9.22-7.28,23.12-14.67,32.66-21.32h0c19.37-13.5,44.56-23.24,48.07-49.74h0a134.71,134.71,0,0,0,1.14-17.28h0c0-10.94-1.48-22.55-6-30.34h0c-4.73-8.29-12.5-15.2-17.66-23.62h0c-3.89-6.3-8.08-8.63-14.53-8.65h0a36.16,36.16,0,0,0-5.75.51h0c-1.54.24-3.32.41-4.16.49h0l1.72,9.28-20,1c-18,6-26.62,19.89-36.25,36.36h0c-6.14,10.5-9.92,22.15-17.66,31.8h0a20.54,20.54,0,0,1-5.76,5.09h0c3.29.93,6.66.25,10.9,4.25Z" transform="translate(-31.75 -22.69)"/><path class="cls-2" d="M1463.09,455.32a10.62,10.62,0,0,0-2.49.26h0c-7.14,1.68-18.64,7.45-24.59,11.78h0c-10.19,7.37-10,17.46-15.32,27.4h0c-4,7.37-9.66,11-14.7,17.05h0c-6.8,8-3.63,19-9,28.81h0c-2.15,3.89-3.17,6.83-3.17,9.7h0c0,3.67,1.69,7.35,5.09,12.85h0c5.06,8.17,9.27,12.5,14.76,19.5h0c.39-15.56,7.79-28.22,19-39.56h0c5.29-5.32,12-13.21,18.54-17h0c6.47-3.76,14.26-4,21.65-4h0l3.92,0h2.1c4.6,0,8.82.39,12.69.39h0c6.76,0,12.38-1.14,17.49-7.48h0c7.62-9.48,11.39-21.08,17.59-31.7h0c9.28-15.87,17.79-29.59,34.85-36.08h0c-.76-.05-1.4-.07-1.94-.07h0c-3.54,0-3.15,1.09-9.19,2h0c-8,1.13-14.23.57-21.52,2.66h0c-13.67,3.93-28.41,7.56-43,8.18h0l-.59,0,.13-.57a21.64,21.64,0,0,0,.78-4h0a9,9,0,0,0-.61-2.87h0c-4.62,2-5.75,1.76-10.69,3.21h0a11.73,11.73,0,0,1-3.19.4h0c-2.88,0-5.89-.73-8.61-.73h0Z" transform="translate(-31.75 -22.69)"/><path class="cls-1" d="M1449.18,461.86c2.73-.05,5.29.87,7.89,1.53,1.44.37,2.92.72,4.37,1a1.42,1.42,0,0,0,1.24-.09,50.61,50.61,0,0,1,12.85-3.58c2.54-.33,5.31-1.14,7.88-1-1.4,2.72-2.15,5.74-3.47,8.52-1.68,3.55-4.12,6.73-5.83,10.23.32,0,.42.21.7.41a12.75,12.75,0,0,1,2.69,2.94c1.75,2.4,3.86,4.57,5.25,7.21,3.28,6.21,6.18,12.62,10.6,18.11a7.88,7.88,0,0,0-2.18-.78c-2.42-.66-4.84-1.19-7.29-1.71-3.82-.82-7.36-2.47-11.12-3.47a35.21,35.21,0,0,0-8.39-1.51h-6c-.54,0-1.47-.25-2,0a10.57,10.57,0,0,0-1.73,1.5c-2.7,2.49-4.91,5.47-7.7,7.89-6.38,5.54-12.22,11.79-16.31,19.21a4.27,4.27,0,0,1-.07-1.4,37.57,37.57,0,0,1,.13-5c.25-1.67.45-3.23.6-4.92a37.08,37.08,0,0,1,.86-5c.76-3.2,1.68-6.39,2.47-9.59a32.25,32.25,0,0,0,1.25-6.39,3,3,0,0,0-.31-2,10.82,10.82,0,0,0-3.54-3.15c-2.47-1.5-5.31-3-8.31-2.81a7.8,7.8,0,0,1,1.5-1.31,15.33,15.33,0,0,0,4.14-4.05c3.17-4.52,3.26-3,6.77-7.33a9.19,9.19,0,0,1,2.31-1.49,9.72,9.72,0,0,0,2.2-2.05c1.45-1.75,3.74-10.14,6.06-10.45A5.62,5.62,0,0,0,1449.18,461.86Z" transform="translate(-31.75 -22.69)"/><path class="cls-3" d="M1426.74,602.18c7.59,14.93,22.41,32.19,22.45,45.12h0a13.34,13.34,0,0,1-1.24,5.81h0c-.59,1.21-1,4.1-1,7.33h0c0,4.62.77,10,2.3,12.74h0c0-.28,0-.56,0-.84h0c0-6.94,3.51-10.51,8.14-13h0c4.62-2.55,10.37-4.23,15.16-7.63h0c9.35-6.61,18.21-16.19,26-24.63h0c9.76-10.52,20.48-18.52,32.21-26.83h0c5.68-4,11.16-8.28,16.62-12.62h0c-4.65-2.35-10-1.5-13.47-8.17h0c-2-3.83-2.31-9.39-4-13.3h0c-2.59-6.09-6.16-12-8.46-18.32h0c-2.26-6.35-2.43-17.89-7.17-22.3h0c-4.3-4.07-7.42-2.88-11.38-4.3h0c-3.51,1.72-7.29,2.14-11.34,2.14h0c-3.93,0-8.14-.39-12.7-.39h-2.09c-1.29,0-2.6,0-3.92,0h0c-7.37,0-15,.29-21.2,3.91h0c-6.32,3.68-13,11.53-18.34,16.89h0c-11.43,11.53-18.74,24.27-18.79,40.06h0c3.74,4.86,9.15,12.48,12.16,18.37Z" transform="translate(-31.75 -22.69)"/><path class="cls-4" d="M1429.14,281.62c-.6-12.48-8.08-22.6-17.43-22.67h-.59c-9.21.5-15.86,10.63-15.86,22.69,0,.52,0,1,0,1.54.58,12.49,8.07,22.6,17.42,22.68l.58,0c9.22-.49,15.87-10.63,15.87-22.69C1429.17,282.65,1429.16,282.14,1429.14,281.62Z" transform="translate(-31.75 -22.69)"/><path class="cls-2" d="M1423.07,250c-2.19-1.49-27.13-12.23-47.09-10.86l-3.12,17.15c20.92-6.11,43.06-.48,47,1.72Z" transform="translate(-31.75 -22.69)"/><path class="cls-1" d="M1427.26,281.71c-.54-11.7-7.72-20.87-16-20.48s-14.61,10.18-14.06,21.88,7.72,20.86,16,20.47S1427.81,293.4,1427.26,281.71Z" transform="translate(-31.75 -22.69)"/><path class="cls-3" d="M1425.22,280.66a26.84,26.84,0,0,1-3.74,15.23,6.88,6.88,0,0,1-1.2.23c-5,.4-9.58-5-10.15-12.09s3-13.15,8.07-13.56a7.47,7.47,0,0,1,4.26,1A21.26,21.26,0,0,1,1425.22,280.66Z" transform="translate(-31.75 -22.69)"/><path class="cls-2" d="M1413.11,301.77h-.42c-7.08,0-13.23-8.41-13.71-18.76-.5-10.67,5-19.64,12.34-20h.42c3.8,0,7.32,2.44,9.85,6.28a8.43,8.43,0,0,0-2.8-.5l-.65,0c-5.66.53-9.43,6.62-9.43,13.69,0,.54,0,1.08.06,1.63.62,7.5,5.26,13.56,11.09,13.63l.63,0,.19,0A10.68,10.68,0,0,1,1413.11,301.77Z" transform="translate(-31.75 -22.69)"/><path class="cls-1" d="M1418.64,279.44c-.71,2.45-2.57,4.05-4.15,3.59s-2.29-2.81-1.58-5.25,2.57-4,4.15-3.59S1419.34,277,1418.64,279.44Z" transform="translate(-31.75 -22.69)"/><path class="cls-2" d="M1530.63,251.26c-1.64-28.6-19.51-51-40.43-51-.56,0-1.11,0-1.67,0a30.06,30.06,0,0,0-13.51,4.17c14.54-10.93,33.41-25.43,33.89-26.45l-11.1-14.62c-1,1.86-43.43,45.91-45.49,46.42l6.08,6.78c.46-.17,4.62-3.18,10.37-7.46a46.19,46.19,0,0,0-9.62,12.94l-3.37-3.59-.13.27a68.13,68.13,0,0,0-5.09,14.3l-4.38-2-.11.39,0,.11-1.92,6.69,2.85,1.12,2.25.89a78.45,78.45,0,0,0-.71,8.63l-4.54-.81v.56l.23,5.55.09,2.07h4.31a81.53,81.53,0,0,0,1.1,9.14l-4.76.74,1.72,7.86,4.56-1.71a72.49,72.49,0,0,0,5.17,13.72l.09.18,4-1.78c7.47,13.56,19.36,22.34,32.44,22.35.55,0,1.11,0,1.66-.05,20.59-1.19,36.14-23.78,36.14-51.26C1530.74,254.05,1530.71,252.66,1530.63,251.26Z" transform="translate(-31.75 -22.69)"/><polygon class="cls-1" points="1414.31 244.19 1415.59 250.09 1426.78 245.9 1426.78 242.25 1414.31 244.19 1414.31 244.19"/><polygon class="cls-1" points="1413.43 232.66 1423.64 232.66 1423.89 228.4 1413.17 226.47 1413.43 232.66 1413.43 232.66"/><polygon class="cls-1" points="1413.47 215.01 1425.43 219.74 1426.2 214.65 1415.01 209.62 1413.47 215.01 1413.47 215.01"/><path class="cls-1" d="M1525.89,251.62c-1.4-24.61-17.16-43.73-35.2-42.7s-31.52,21.81-30.12,46.42,17.17,43.73,35.2,42.7S1527.29,276.23,1525.89,251.62Zm-10.3,30c-5.17,8-12.27,12.52-20,13-.4,0-.81,0-1.22,0-15.82,0-29.41-17.25-30.68-39.48-.06-1.12-.1-2.22-.1-3.32,0-9.9,2.56-19.23,7.3-26.54,5.17-7.95,12.27-12.53,20-13,.42,0,.82,0,1.23,0,15.82,0,29.42,17.26,30.68,39.49.06,1.11.09,2.22.09,3.31C1522.88,265,1520.33,274.33,1515.59,281.65Z" transform="translate(-31.75 -22.69)"/><path class="cls-2" d="M1515.59,281.65c-5.17,8-12.27,12.52-20,13-.4,0-.81,0-1.22,0-15.82,0-29.41-17.25-30.68-39.48-.06-1.12-.1-2.22-.1-3.32,0-9.9,2.56-19.23,7.3-26.54,5.17-7.95,12.27-12.53,20-13,.42,0,.82,0,1.23,0,15.82,0,29.42,17.26,30.68,39.49.06,1.11.09,2.22.09,3.31C1522.88,265,1520.33,274.33,1515.59,281.65Z" transform="translate(-31.75 -22.69)"/><path class="cls-1" d="M1519.75,254.27c-.89-15.26-9.36-27.55-19.82-27.66-.25,0-.49,0-.73,0-10.2.67-17.33,12.77-17.35,27.26,0,.83,0,1.68.07,2.53.9,15.25,9.35,27.55,19.82,27.65l.73,0c10.2-.68,17.34-12.78,17.35-27.27C1519.82,256,1519.8,255.12,1519.75,254.27Z" transform="translate(-31.75 -22.69)"/><path class="cls-3" d="M1503.9,280.06c-.2,0-.4,0-.61,0-8.7,0-16.11-10.53-16.87-23.82,0-.73-.06-1.47-.06-2.19,0-12.61,6.26-22.93,14.73-23.44h.6c8.71,0,16.13,10.53,16.89,23.81q.06,1.11.06,2.19C1518.64,269.23,1512.38,279.56,1503.9,280.06Z" transform="translate(-31.75 -22.69)"/><path class="cls-1" d="M1500.62,249.1c-1,4.64-4.24,7.87-7.24,7.22s-4.62-4.92-3.62-9.55,4.23-7.87,7.23-7.22S1501.62,244.47,1500.62,249.1Z" transform="translate(-31.75 -22.69)"/><path class="cls-1" d="M1514.16,266.17c-.39,1.34-1.42,2.22-2.29,2s-1.25-1.55-.86-2.89,1.41-2.22,2.28-2S1514.54,264.82,1514.16,266.17Z" transform="translate(-31.75 -22.69)"/><path class="cls-2" d="M1330.39,353.53a41.76,41.76,0,0,0-4.19-7.4,30,30,0,0,0-5.4-6,94.27,94.27,0,0,0-8.7-6.28h18.78V291.89h-31.19v1a31.65,31.65,0,0,0-12.27-2.35,30.27,30.27,0,0,0-22.94,10.13c-5.84,6.31-8.71,14.81-9.07,24.52a37.18,37.18,0,0,0-6.41-18.27,30.87,30.87,0,0,0-17.63-12.52,62.91,62.91,0,0,0-7.58-1.46c-2.7-.35-5.8-.61-9.38-.79s-7.44-.27-11.58-.27H1062.5v37.23h6.55v41.61h-1.53V354.11h-32.2v16.61h-7.2v-41.6H1036V291.89H976.18v37.23h7.45v41.61h-7.24c1.11-6.13,1.58-14.1,1.6-24.34v-6.21h-3.1V291.89H942.5v1.48a42.12,42.12,0,0,0-17.81-3.56c-14-.09-26.42,5.94-35.72,17a53.74,53.74,0,0,0-7,10.5V291.89H836.09v24.38l-13.58-24.38H773.38v37.23h7.27v41.61H770.41L758.2,329.12h4.59V291.89h-72v37.23h4.64l-12,41.61H671.48L664,355.17a30.5,30.5,0,0,0,6.46-8.62,40.28,40.28,0,0,0-2.57-39.62,30.87,30.87,0,0,0-17.63-12.52,59.57,59.57,0,0,0-7.58-1.46c-2.7-.35-5.8-.61-9.38-.79s-7.44-.26-11.58-.26H428.84v22.47a65.88,65.88,0,0,0-3.86-5.77c-9.16-12.42-23.12-18.9-39.46-18.79a55.69,55.69,0,0,0-11,1.06,49.4,49.4,0,0,0-9.86,3,42.35,42.35,0,0,0-9.05,5.41,56,56,0,0,0-17.5,22.88,73.66,73.66,0,0,0-2.49,6.94,36.17,36.17,0,0,0,.25-4.2,33.8,33.8,0,0,0-5.66-19.27,28.43,28.43,0,0,0-16.12-11.37c-6.41-1.68-14.48-2.38-24.73-2.39H232.48V321.5a66.65,66.65,0,0,0-7.62-12.91c-9.16-12.42-23.12-18.9-39.47-18.78a55.67,55.67,0,0,0-11,1.05,48.58,48.58,0,0,0-9.86,3,41.89,41.89,0,0,0-9,5.4A56,56,0,0,0,138,322.17q-1.26,3-2.23,6.12a37.83,37.83,0,0,0-6.57-21.36,30.84,30.84,0,0,0-17.63-12.52A61.21,61.21,0,0,0,104,293c-2.7-.35-5.81-.61-9.39-.79s-7.43-.27-11.57-.27H31.75v37.23h6.73v41.61H31.75V408H89.23V380.57L100.92,408h40.17V384.19A54.88,54.88,0,0,0,147,392.4c9.63,11.34,23.07,17.28,38.42,17.19h.4c15.7,0,29.29-6.36,38.63-18.38A63.12,63.12,0,0,0,232.48,378v30h53.13c12.12,0,21.46-.76,28.5-2.5a31.1,31.1,0,0,0,18.21-11.78,33.73,33.73,0,0,0,6.07-14.88,55.15,55.15,0,0,0,8.7,13.6c9.63,11.34,23.07,17.28,38.43,17.19h.4c15.7,0,29.28-6.37,38.63-18.39,9.3-11.74,14-25.9,14-41.54a69.57,69.57,0,0,0-3-20.55h.65l23.37,79.73H495l1.28-4.52,5.27-18.71L508,408.85h35.1l23.61-79.73h10.43v41.61h-6.73V408H627.9v-27.4L639.58,408h81.25V372.81H716l.18-.62H727.8l.14.62h-5.59V408h97.48v-30.5l17.75,31.84h37.16V350.22a70.7,70.7,0,0,0,6.94,31.31c4.59,9.7,11.58,17.21,20.6,21.61a61.39,61.39,0,0,0,28.13,6.45h.06a48.5,48.5,0,0,0,20.2-4.27,40.87,40.87,0,0,0,16.51-13.91,51.55,51.55,0,0,0,8.74-18.36c.09-.42.17-.87.26-1.3V408H1209V380.58L1220.72,408h66.35v-1.51a33.34,33.34,0,0,0,13.64,2.86h.32a30.81,30.81,0,0,0,24-11.37,38.92,38.92,0,0,0,9.22-26.06A44.27,44.27,0,0,0,1330.39,353.53ZM83,370.73V365.9L85,370.73Zm6.59-37.54,0,.07-.06.08c-.55.65-.54.54-.75.62a39.75,39.75,0,0,1-5.73.39v-7.28a41.4,41.4,0,0,1,5.57.38c.47.13.42.05.91.61a4.17,4.17,0,0,1,.6,2.68C90,332.52,89.66,333.08,89.56,333.19Zm43.26,37.54-7.51-15.56a30.66,30.66,0,0,0,6.45-8.62c.32-.62.61-1.25.89-1.88-.12,1.66-.2,3.32-.2,5a74.65,74.65,0,0,0,2.88,21.06Zm55-.07a4.77,4.77,0,0,1-1.35,1.94,1.68,1.68,0,0,1-1.1.29,1.44,1.44,0,0,1-1-.26,5,5,0,0,1-1.33-2.05c-1.12-2.24-2.28-9.79-2.2-20.91-.08-11.33,1.1-19,2.13-20.9a4.77,4.77,0,0,1,1.37-2,1.49,1.49,0,0,1,1-.28,1.68,1.68,0,0,1,1.13.29,4.82,4.82,0,0,1,1.32,2c1.1,2.35,2.2,9.86,2.14,20.85C190.06,361,188.89,368.65,187.84,370.66ZM284.18,327a22.32,22.32,0,0,1,5.25.52,3.28,3.28,0,0,1,.43.13,5.09,5.09,0,0,1,.62,2.61,4.89,4.89,0,0,1-.55,2.66,14.56,14.56,0,0,1-4.86.59h-.89Zm-44.49,43.7h-4.44a71.37,71.37,0,0,0,.1-41.61h4.34Zm51.88.77a2,2,0,0,1-.15.32c-.09.18-2.26,1.05-6.23,1h-1v-8h.89a22.42,22.42,0,0,1,5,.45,5.15,5.15,0,0,1,1.08.35l.13.07c.14.16.61.9.64,3.21A7.57,7.57,0,0,1,291.57,371.5Zm35.24-25.21a30.66,30.66,0,0,0,3.26-3.38,23,23,0,0,0,3.73-6.33,70.62,70.62,0,0,0-1.23,13.09c0,1,.07,1.88.1,2.83A31.39,31.39,0,0,0,326.81,346.29ZM388,370.66a4.77,4.77,0,0,1-1.35,1.94,1.67,1.67,0,0,1-1.09.29,1.44,1.44,0,0,1-1-.27,4.94,4.94,0,0,1-1.32-2c-1.12-2.25-2.27-9.8-2.2-20.92-.08-11.33,1.1-19,2.13-20.9a5,5,0,0,1,1.36-2,1.55,1.55,0,0,1,1-.28,1.66,1.66,0,0,1,1.12.29,4.82,4.82,0,0,1,1.32,2c1.11,2.35,2.21,9.86,2.14,20.85C390.18,361,389,368.64,388,370.66Zm94.36-28.88-2.77-12.66h6.29Zm47.39.33-3.66-13h6.54Zm91.93,28.62V365.9l2.06,4.83Zm6.59-37.54-.06.07-.06.08c-.54.65-.54.54-.75.62a39.55,39.55,0,0,1-5.72.39v-7.28a39.83,39.83,0,0,1,5.57.38c.46.13.42.05.9.61a4.21,4.21,0,0,1,.61,2.68A4.16,4.16,0,0,1,628.23,333.19ZM812.5,370.73v-6.42l3.58,6.42Zm62.24-41.61h2.64a77.74,77.74,0,0,0-2.64,20.52Zm61.07,43.15a3.34,3.34,0,0,1-.29.42c-.59.62-1,1.08-3.56,1.17-3.19-.17-4.24-.77-6-3.28-1.35-1.85-3-9-2.86-19.88-.09-10.94,1.41-18.25,2.82-20.48,1.62-2.43,2.59-3.06,6.17-3.26a8.8,8.8,0,0,1,5.88,2c1.74,1.41,3.49,3.81,5,7.59l1.41,3.6H928.49v32.09ZM1120,370.73h-6.42v-4.58H1120Zm0-38.08h-6.42v-3.53H1120Zm38.33,38.08h-4.15v-8.35h-24.2V337.46h24.2v-8.34h4.15Zm44.49,0V365.9l2.06,4.83Zm6.59-37.54-.06.07,0,.08c-.55.65-.55.54-.76.62a39.4,39.4,0,0,1-5.72.39v-7.28a41,41,0,0,1,5.56.38c.47.13.43.05.92.61a4.22,4.22,0,0,1,.6,2.68A4.07,4.07,0,0,1,1209.37,333.19ZM1256,362.31v8.42h-3.36l-7.52-15.56a30.41,30.41,0,0,0,6.46-8.63,37.51,37.51,0,0,0,4-15.05,38.68,38.68,0,0,0,3.57,13.32,36.88,36.88,0,0,0,9.21,12.56,65.56,65.56,0,0,0,6.59,4.94Zm37.9,13.54-.45,0a3.91,3.91,0,0,1-3.22-1.4,13.06,13.06,0,0,1-2.44-4.45,33.48,33.48,0,0,1,5.59,3.9c.42.5.47.48.54,1.45C1293.91,375.56,1293.9,375.72,1293.89,375.85Zm2.84-51.82c-.84-.56-1.52-1-2-1.38-.22-.16-.39-.3-.51-.4s0-.21,0-.38a2.26,2.26,0,0,1,0-.27,3.56,3.56,0,0,1,2.77,1.2,9.58,9.58,0,0,1,1.7,2.52C1298,324.85,1297.3,324.42,1296.73,324Z" transform="translate(-31.75 -22.69)"/><path class="cls-1" d="M83,401.75H38V376.94H44.7v-54H38V298.1H83q6.07,0,11.26.26t8.88.75a54.84,54.84,0,0,1,6.8,1.3,24.54,24.54,0,0,1,14.13,10.06,34,34,0,0,1,2.14,33.23,22.12,22.12,0,0,1-8.76,9.54l11.45,23.7h6v24.81H105L87,359.43H76.77v17.51H83Zm-6.26-80.92v19.74h3.57a56,56,0,0,0,9.54-.52,7.29,7.29,0,0,0,4.53-3,9.88,9.88,0,0,0,1.85-6.33,10.22,10.22,0,0,0-1.85-6.41,7.39,7.39,0,0,0-4.71-3,62.94,62.94,0,0,0-10-.52Z" transform="translate(-31.75 -22.69)"/><path class="cls-1" d="M138.66,349.66a64.6,64.6,0,0,1,5.07-25.11,49.74,49.74,0,0,1,15.56-20.34,35.86,35.86,0,0,1,7.72-4.62,42.87,42.87,0,0,1,8.61-2.64,49.79,49.79,0,0,1,9.78-.93q22.29,0,34.51,16.31a60.16,60.16,0,0,1,9.18,17.44,63,63,0,0,1,3.1,19.89q0,21.69-12.64,37.71t-34.15,16q-20.81,0-33.74-15.05T138.66,349.66Zm36,0q0,17.29,2.68,23.33t8.05,6.11q5.41,0,8.1-5.89t2.69-23.55q0-17.06-2.63-23.24t-8.16-6.11q-5.37,0-8.05,5.88T174.67,349.66Z" transform="translate(-31.75 -22.69)"/><path class="cls-1" d="M285.61,401.75H238.69V376.94h7.22v-54h-7.22V298.1h50.67q14.91,0,23.07,2.16a22,22,0,0,1,12.64,8.87,27.51,27.51,0,0,1,4.59,15.8q0,8.79-4.35,14a23.42,23.42,0,0,1-10.85,7.45,26.8,26.8,0,0,1,18.24,25.85q0,10.44-5.37,17.74a24.88,24.88,0,0,1-14.72,9.46Q303.37,401.75,285.61,401.75ZM278,320.83v18.92h7.09q7.21,0,9.48-2.6a10.46,10.46,0,0,0,2.14-6.86,11.46,11.46,0,0,0-2-6.56q-2-2.89-10.79-2.9Zm0,37.78V379h7.21q6.92,0,9.95-2.23c2-1.49,3-4.13,3-7.9q0-5.29-2.68-7.83t-10.37-2.45Z" transform="translate(-31.75 -22.69)"/><path class="cls-1" d="M338.78,349.66a64.6,64.6,0,0,1,5.07-25.11,49.74,49.74,0,0,1,15.56-20.34,35.86,35.86,0,0,1,7.72-4.62,42.87,42.87,0,0,1,8.61-2.64,49.79,49.79,0,0,1,9.78-.93q22.29,0,34.51,16.31a60.16,60.16,0,0,1,9.18,17.44,63,63,0,0,1,3.1,19.89q0,21.69-12.64,37.71t-34.15,16q-20.81,0-33.74-15.05T338.78,349.66Zm36,0q0,17.29,2.68,23.33t8,6.11q5.42,0,8.1-5.89t2.69-23.55q0-17.06-2.63-23.24t-8.16-6.11q-5.37,0-8,5.88T374.79,349.66Z" transform="translate(-31.75 -22.69)"/><path class="cls-1" d="M490.25,402.64H464.14l-23.37-79.73h-5.72V298.1h43v24.81h-6.2l9.78,44.64L494,322.91h-6.14V298.1H524v24.81h-6.14l12.58,44.64,9.89-44.64h-6V298.1H567.8v24.81h-5.72l-23.6,79.73H512.72l-11.2-39.94Z" transform="translate(-31.75 -22.69)"/><path class="cls-1" d="M621.69,401.75H576.62V376.94h6.74v-54h-6.74V298.1h45.07q6.07,0,11.27.26t8.88.75a54.67,54.67,0,0,1,6.79,1.3,24.51,24.51,0,0,1,14.13,10.06,34,34,0,0,1,2.15,33.23,22.2,22.2,0,0,1-8.77,9.54l11.45,23.7h6v24.81H643.69l-18.07-42.32H615.43v17.51h6.26Zm-6.26-80.92v19.74H619a56,56,0,0,0,9.54-.52,7.34,7.34,0,0,0,4.53-3,9.88,9.88,0,0,0,1.84-6.33,10.21,10.21,0,0,0-1.84-6.41,7.44,7.44,0,0,0-4.71-3,63.09,63.09,0,0,0-10-.52Z" transform="translate(-31.75 -22.69)"/><path class="cls-1" d="M714.62,401.75H681.77V376.94h6.32l15.56-54H697V298.1h59.61v24.81h-6.67l15.85,54h6.08v24.81H728.56V379h7.28l-3.16-13H711.46l-3.64,13h6.8Zm7.81-77.34-7.81,28.68h14.84Z" transform="translate(-31.75 -22.69)"/><path class="cls-1" d="M813.63,401.75h-34V376.94h7.27v-54h-7.27V298.1h39.28L849,352.27V322.91H842.3V298.1h33.44v24.81h-7.21v80.18h-27.3l-34.94-62.66v36.51h7.34Z" transform="translate(-31.75 -22.69)"/><path class="cls-1" d="M943.17,366.06H934.7V346.39h37.08q0,17-1.91,25.26a45.44,45.44,0,0,1-7.75,16.17,34.62,34.62,0,0,1-14,11.84,42.13,42.13,0,0,1-17.64,3.73A55.44,55.44,0,0,1,905,397.58q-11.5-5.67-17.77-18.78a64.83,64.83,0,0,1-6.32-28.91q0-24.21,12.76-39.05t31-14.82q15.31,0,24,9.31V298.1h20v36.21h-20a24.06,24.06,0,0,0-6.82-10.13,15.12,15.12,0,0,0-9.81-3.43q-7.87,0-11.56,6.41t-3.64,23.55q0,17.06,3.81,23.17A12.5,12.5,0,0,0,932,380.07Q943.17,380.07,943.17,366.06Z" transform="translate(-31.75 -22.69)"/><path class="cls-1" d="M1061.32,401.75H982.39V376.94h7.45v-54h-7.45V298.1h47.39v24.81h-7.87v54h19.62V360.32h19.79Z" transform="translate(-31.75 -22.69)"/><path class="cls-1" d="M1147.93,401.75h-79.1V376.94h6.44v-54h-6.56V298.1h79.22v33.16h-21.76v-8.35h-18.84v15.95h16.4V360h-16.4v17h18.84v-8.35h21.76Z" transform="translate(-31.75 -22.69)"/><path class="cls-1" d="M1202.83,401.75h-45.06V376.94h6.73v-54h-6.73V298.1h45.06c4.06,0,7.81.09,11.27.26s6.42.43,8.88.75a55.2,55.2,0,0,1,6.8,1.3,24.49,24.49,0,0,1,14.12,10.06,34,34,0,0,1,2.15,33.23,22.24,22.24,0,0,1-8.76,9.54l11.44,23.7h6v24.81h-29.86l-18.06-42.32h-10.2v17.51h6.26Zm-6.26-80.92v19.74h3.58a56,56,0,0,0,9.54-.52,7.31,7.31,0,0,0,4.53-3,9.88,9.88,0,0,0,1.85-6.33,10.22,10.22,0,0,0-1.85-6.41,7.39,7.39,0,0,0-4.71-3,63.09,63.09,0,0,0-10-.52Z" transform="translate(-31.75 -22.69)"/><path class="cls-1" d="M1280.86,401.75H1262.2V368.52h18.66q3.35,13.56,12.58,13.56,6.68,0,6.68-6.71a7.86,7.86,0,0,0-2.33-5.81q-2.51-2.54-10.55-7-10.14-5.74-14.9-9.91a30.7,30.7,0,0,1-7.63-10.51,33.66,33.66,0,0,1-3.16-14.68q0-14.46,7.51-22.58a23.94,23.94,0,0,1,18.36-8.12,24.85,24.85,0,0,1,18.48,7.75V298.1h18.78v29.51h-18.54q-3.41-12.23-12.05-12.22-6.08,0-6.08,6.48a6,6,0,0,0,1.73,4.7q1.68,1.64,10.79,7.22,12.23,7.6,16.34,11.11a24.2,24.2,0,0,1,4.26,4.8,36.19,36.19,0,0,1,3.6,6.37,38.08,38.08,0,0,1,3.28,15.8q0,13-7.75,22.06a24.5,24.5,0,0,1-19.55,9.16q-11,0-19.85-8.12Z" transform="translate(-31.75 -22.69)"/><path class="cls-2" d="M1057.84,429h-31.08l-2.21,3.19c-2,3-6,6.21-12.43,9.13a47.27,47.27,0,0,1-20,4.17c-.64,0-1.23,0-1.75-.07l-8-.67v43.6l6.3.94a40.37,40.37,0,0,0,5.83.37c2.37,0,4.58-.07,6.64-.21V533.2H982.39v45.11H1076V533.2h-18.2Zm128.65,0h-51.28l-66.71,68.86,10,37h53.82v1.9h-15.92v41.52H1200V536.8h-13.55v-1.9H1200V496.71h-13.55Zm-54.22,67.68h-10.53l10.53-10.65Zm194.93,10.67a40.05,40.05,0,0,0-7.32-6.72,34.92,34.92,0,0,0,5.59-6.14,35.94,35.94,0,0,0,6.42-21.32c.14-13.07-6.18-24.75-17.17-32.53-11.18-8.11-26.18-11.63-44.53-11.64-17.72,0-32.45,3.65-43.56,11.89-10.93,8.07-17.05,20-16.92,33.32a33.36,33.36,0,0,0,7.71,22,39.94,39.94,0,0,0,4.83,4.9,38.94,38.94,0,0,0-8.62,8.21,38,38,0,0,0-7.52,23.56c-.12,13.36,5.88,25.39,16.61,33.83,11.22,9,27.22,12.77,47.56,12.81,20.8,0,37-3.61,48.5-12.35a42.07,42.07,0,0,0,17-34.76C1335.82,523,1333,514.17,1327.2,507.38ZM1265,470.65l.06,0,.06-.06c1.5-1.33,3-2,6.14-2.08s4.46.71,5.67,1.81c1.18,1.31,1.76,2.53,1.82,5.3a10.28,10.28,0,0,1-.56,3.72,3,3,0,0,1-1,1.36,9,9,0,0,1-6,1.93c-4.09,0-5.56-1-6.25-1.71l-.12-.13-.07-.07c-1.23-1.33-1.74-2.37-1.82-4.91C1263,473.09,1263.5,472.09,1265,470.65Zm13.74,66.8c-1.52,1.42-3.46,2.33-7.48,2.39s-6.09-1-8-2.6c-1.57-1.49-2.45-3.08-2.53-7a9.38,9.38,0,0,1,2.81-6.87c1.68-1.73,3.62-2.73,7.9-2.8,4,0,5.87,1,7.43,2.44,1.4,1.47,2.27,3.24,2.33,7S1280.26,535.76,1278.71,537.45Z" transform="translate(-31.75 -22.69)"/><path class="cls-1" d="M1068.65,570.92H989.79V540.59h18.76V481a58.09,58.09,0,0,1-14,1.33,32.53,32.53,0,0,1-4.73-.29V452.82q1.13.09,2.37.09a55,55,0,0,0,23-4.83q10.8-4.93,15.45-11.66h19.81V540.59h18.2Z" transform="translate(-31.75 -22.69)"/><path class="cls-1" d="M1192.65,570.92h-68.91V544.19h15.93V527.51h-55.55L1076.73,500l61.61-63.6h40.76V504.1h13.55v23.41H1179.1v16.68h13.55ZM1104,504.1h35.64v-36Z" transform="translate(-31.75 -22.69)"/><path class="cls-1" d="M1237.49,501.54a32.81,32.81,0,0,1-14.41-10.05,25.93,25.93,0,0,1-6-17.25q0-16.87,13.93-27.39t39.15-10.43q26.16,0,40.19,10.24t14.12,26.54q0,19.91-20.19,28.34a32.47,32.47,0,0,1,17.25,10.62q6.82,8.05,6.83,20.28,0,18.1-14.12,28.91t-44,10.81q-29.19,0-42.93-11.19t-13.84-28.06Q1213.51,510.46,1237.49,501.54Zm15.83,28.72q0,8.06,5,12.51t12.89,4.46q8.16,0,12.8-4.65t4.55-12.51q0-7.77-4.55-12.32t-12.61-4.55q-8.54,0-13.27,5.12A16.84,16.84,0,0,0,1253.32,530.26Zm2.18-54.5a13.7,13.7,0,0,0,4,10.14q3.78,4.08,11.66,4.08a16.36,16.36,0,0,0,10.61-3.51q4.37-3.42,4.36-10.9a14.38,14.38,0,0,0-4-10.52q-4.08-4-10.9-4a15.69,15.69,0,0,0-11.18,4.07A13.57,13.57,0,0,0,1255.5,475.76Z" transform="translate(-31.75 -22.69)"/></g></svg>